{
.appVersion = "1156";
DisplayStrings = (
n,
"/Ohm",
"/Omega",
"/increment",
"/Delta",
"/zero.dnom",
"/nine.dnom",
"",
A,
"/Hbrevebelow",
"/dieresiscomb",
"/dotaccentcomb",
"/gravecomb",
"/dotaccentcomb",
"AÁ/Abreve/Abreveacute/Abrevedotbelow/Abrevegrave/Abrevehookabove/Abrevetilde/Acaron Â/Acircumflexacute/Acircumflexdotbelow/Acircumflexgrave/Acircumflexhookabove/Acircumflextilde/Adblgrave Ä/Adotbelow À/Ahookabove/Ainvertedbreve/Amacron Å/Aringacute Ã",
D,
"Æ",
B,
C,
E,
F,
"/Ohorn",
O,
N,
M,
G,
H,
I,
J,
L,
P,
R,
S,
T,
U,
"/Uhorn",
W,
V,
Y,
X,
Z,
a,
"ã",
"æ",
b,
c,
e,
g,
h,
"/idotless",
"/jdotless",
l,
m,
o,
"/ohorn",
p,
q,
r,
s,
t,
u,
w,
x,
y,
z,
"/zero.lf.zero",
"/zero.lf.zero",
"/zero.osf",
"/one.osf",
"/two.osf",
"/three.osf",
"/four.osf",
"/five.osf",
"/six.osf",
"/seven.osf",
"/eight.osf",
"/nine.osf",
"/zero.osf.zero",
"/zero.lf.zero",
"/zero.tf.zero",
"/zero.tosf.zero",
"/zero.zero",
"/zero.numr",
"/zeroinferior",
"/zerosuperior",
"/one.numr",
"/oneinferior",
"¹",
"/two.numr",
"/twoinferior",
"²",
"/three.numr",
"³",
"/threeinferior",
"/four.numr",
"/fourinferior",
"/foursuperior",
"/fiveinferior",
"/five.numr",
"/fivesuperior",
"/six.numr",
"/sixinferior",
"/sixsuperior",
"/seven.numr",
"/seveninferior",
"/sevensuperior",
"/eight.numr",
"/eightsuperior",
"/nine.numr",
"/ninesuperior",
"/nineinferior",
"/eightinferior"
);
classes = (
{
code = "onesuperior twosuperior threesuperior";
name = sups2;
},
{
code = "one two three";
name = sups1;
},
{
code = "zero one two three four five six seven eight nine";
name = ordn1;
}
);
copyright = "Copyright (c) 2013, Sorkin Type Co (www.sorkintype.com) with Reserved Font Name 'Gelasio'";
customParameters = (
{
name = macintoshFONDName;
value = Gelasio;
},
{
name = description;

glyphs = (
{
color = 4;
glyphname = A;
lastChange = "2018-07-18 03:37:32 +0000";
layers = (
{
anchors = (
{
name = bottom;
position = "{617, 0}";
},
{
name = btm;
position = "{597, 0}";
},
{
name = ogonek;
position = "{1169, 10}";
},
{
name = top;
position = "{795, 1419}";
}
);
guideLines = (
{
angle = 81.9305;
position = "{85, 1083}";
}
);
layerId = "D92FDD0B-F694-41DD-AE46-0E4F694F0F38";
paths = (
{
closed = 1;
nodes = (
"964 128 OFFCURVE",
"965 124 OFFCURVE",
"965 121 CURVE SMOOTH",
"965 86 OFFCURVE",
"901 93 OFFCURVE",
"817 88 CURVE",
"790 85 OFFCURVE",
"782 72 OFFCURVE",
"783 51 CURVE",
"781 36 OFFCURVE",
"791 0 OFFCURVE",
"814 0 CURVE SMOOTH",
"1330 0 LINE SMOOTH",
"1352 0 OFFCURVE",
"1365 36 OFFCURVE",
"1367 51 CURVE",
"1367 81 OFFCURVE",
"1359 85 OFFCURVE",
"1332 88 CURVE SMOOTH",
"1284 93 OFFCURVE",
"1212 77 OFFCURVE",
"1188 165 CURVE",
"823 1472 LINE",
"787 1472 LINE",
"115 165 LINE",
"73 77 OFFCURVE",
"-21 93 OFFCURVE",
"-71 88 CURVE SMOOTH",
"-99 85 OFFCURVE",
"-107 81 OFFCURVE",
"-107 51 CURVE",
"-109 36 OFFCURVE",
"-103 0 OFFCURVE",
"-81 0 CURVE SMOOTH",
"372 0 LINE SMOOTH",
"395 0 OFFCURVE",
"407 36 OFFCURVE",
"409 51 CURVE",
"408 72 OFFCURVE",
"402 85 OFFCURVE",
"377 88 CURVE",
"297 92 OFFCURVE",
"232 87 OFFCURVE",
"232 118 CURVE SMOOTH",
"232 122 OFFCURVE",
"233 127 OFFCURVE",
"235 132 CURVE SMOOTH",
"735 1126 LINE",
"963 132 LINE {name = hr00;}"
);
},
{
closed = 1;
nodes = (
"923 447 LINE",
"919 535 LINE",
"373 535 LINE",
"347 447 LINE"
);
}
);
width = 1374;
},
{
anchors = (
{
name = bottom;
position = "{707, 0}";
},
{
name = btm;
position = "{630, 0}";
},
{
name = ogonek;
position = "{1330, 10}";
},
{
name = top;
position = "{873, 1419}";
}
);
layerId = "BDB4B313-38B1-4B24-B843-560B185382BD";
paths = (
{
closed = 1;
nodes = (
"995 132 OFFCURVE",
"995 125 OFFCURVE",
"995 122 CURVE SMOOTH",
"995 87 OFFCURVE",
"931 95 OFFCURVE",
"846 88 CURVE SMOOTH",
"819 86 OFFCURVE",
"810 71 OFFCURVE",
"810 48 CURVE SMOOTH",
"810 32 OFFCURVE",
"817 0 OFFCURVE",
"839 0 CURVE SMOOTH",
"1485 0 LINE SMOOTH",
"1507 0 OFFCURVE",
"1524 28 OFFCURVE",
"1524 53 CURVE SMOOTH",
"1524 79 OFFCURVE",
"1512 88 OFFCURVE",
"1480 88 CURVE SMOOTH",
"1410 88 OFFCURVE",
"1368 130 OFFCURVE",
"1353 184 CURVE",
"965 1451 LINE",
"789 1451 LINE",
"94 186 LINE SMOOTH",
"62 128 OFFCURVE",
"5 104 OFFCURVE",
"-82 88 CURVE SMOOTH",
"-97 85 OFFCURVE",
"-120 79 OFFCURVE",
"-120 44 CURVE SMOOTH",
"-120 27 OFFCURVE",
"-112 0 OFFCURVE",
"-92 0 CURVE SMOOTH",
"377 0 LINE SMOOTH",
"404 0 OFFCURVE",
"412 29 OFFCURVE",
"412 52 CURVE SMOOTH",
"412 72 OFFCURVE",
"408 83 OFFCURVE",
"373 87 CURVE SMOOTH",
"291 96 OFFCURVE",
"225 113 OFFCURVE",
"225 146 CURVE SMOOTH",
"225 160 OFFCURVE",
"236 188 OFFCURVE",
"243 201 CURVE SMOOTH",
"736 1126 LINE",
"992 142 LINE SMOOTH"
);
},
{
closed = 1;
nodes = (
"983 408 LINE",
"983 494 LINE",
"336 494 LINE",
"336 408 LINE"
);
}
);
width = 1553;
}
);
unicode = 0041;
userData = {
com.typemytype.robofont.mark = (
0.6,
0.609,
1,
1
);
};
},
{
glyphname = Aogonek;
lastChange = "2018-07-18 03:33:48 +0000";
layers = (
{
components = (
{
name = A;
}
);
layerId = "D92FDD0B-F694-41DD-AE46-0E4F694F0F38";
paths = (
{
closed = 1;
nodes = (
"789 -385 OFFCURVE",
"874 -448 OFFCURVE",
"1039 -448 CURVE SMOOTH",
"1090 -448 OFFCURVE",
"1143 -438 OFFCURVE",
"1200 -422 CURVE SMOOTH",
"1215 -418 OFFCURVE",
"1227 -408 OFFCURVE",
"1230 -393 CURVE SMOOTH",
"1231 -386 OFFCURVE",
"1232 -380 OFFCURVE",
"1232 -375 CURVE SMOOTH",
"1232 -359 OFFCURVE",
"1227 -350 OFFCURVE",
"1214 -349 CURVE SMOOTH",
"1199 -348 OFFCURVE",
"1170 -351 OFFCURVE",
"1137 -351 CURVE SMOOTH",
"1063 -351 OFFCURVE",
"967 -337 OFFCURVE",
"967 -238 CURVE SMOOTH",
"967 -176 OFFCURVE",
"994 -69 OFFCURVE",
"1260 31 CURVE",
"1260 31 OFFCURVE",
"1089 15 OFFCURVE",
"1089 15 CURVE",
"970 -1 OFFCURVE",
"789 -145 OFFCURVE",
"789 -278 CURVE SMOOTH {name = hr00;}"
);
}
);
width = 1374;
},
{
components = (
{
name = A;
}
);
layerId = "BDB4B313-38B1-4B24-B843-560B185382BD";
paths = (
{
closed = 1;
nodes = (
"887 -385 OFFCURVE",
"963 -452 OFFCURVE",
"1129 -452 CURVE SMOOTH",
"1229 -452 OFFCURVE",
"1353 -414 OFFCURVE",
"1429 -329 CURVE SMOOTH",
"1431 -327 OFFCURVE",
"1432 -323 OFFCURVE",
"1432 -318 CURVE SMOOTH",
"1432 -297 OFFCURVE",
"1411 -259 OFFCURVE",
"1389 -266 CURVE",
"1362 -280 OFFCURVE",
"1291 -330 OFFCURVE",
"1227 -330 CURVE SMOOTH",
"1170 -330 OFFCURVE",
"1117 -313 OFFCURVE",
"1117 -228 CURVE SMOOTH",
"1117 -153 OFFCURVE",
"1213 -68 OFFCURVE",
"1409 21 CURVE",
"1271 12 LINE",
"1058 -28 OFFCURVE",
"887 -154 OFFCURVE",
"887 -293 CURVE SMOOTH"
);
}
);
width = 1553;
}
);
unicode = 0104;
},
{
color = 4;
glyphname = AE;
lastChange = "2018-07-18 03:40:58 +0000";
layers = (
{
anchors = (
{
name = bottom;
position = "{924, 0}";
},
{
name = btm;
position = "{810, -170}";
},
{
name = top;
position = "{1357, 1700}";
}
);
layerId = "D92FDD0B-F694-41DD-AE46-0E4F694F0F38";
paths = (
{
closed = 1;
nodes = (
"1541 1331 LINE SMOOTH",
"1687 1331 OFFCURVE",
"1719 1109 OFFCURVE",
"1719 1055 CURVE SMOOTH",
"1719 1027 OFFCURVE",
"1740 1020 OFFCURVE",
"1762 1020 CURVE SMOOTH",
"1777 1020 OFFCURVE",
"1805 1031 OFFCURVE",
"1808 1054 CURVE",
"1819 1418 LINE",
"519 1419 LINE SMOOTH",
"496 1419 OFFCURVE",
"485 1393 OFFCURVE",
"483 1378 CURVE SMOOTH",
"479 1348 OFFCURVE",
"496 1331 OFFCURVE",
"524 1331 CURVE SMOOTH",
"732 1331 LINE",
"35 165 LINE SMOOTH",
"-13 83 OFFCURVE",
"-92 93 OFFCURVE",
"-134 88 CURVE SMOOTH",
"-161 85 OFFCURVE",
"-168 81 OFFCURVE",
"-171 51 CURVE SMOOTH",
"-173 36 OFFCURVE",
"-169 0 OFFCURVE",
"-147 0 CURVE SMOOTH",
"326 0 LINE SMOOTH",
"349 0 OFFCURVE",
"363 36 OFFCURVE",
"364 51 CURVE SMOOTH",
"366 72 OFFCURVE",
"361 85 OFFCURVE",
"335 88 CURVE",
"222 92 OFFCURVE",
"156 96 OFFCURVE",
"156 123 CURVE SMOOTH",
"156 128 OFFCURVE",
"159 135 OFFCURVE",
"164 142 CURVE",
"858 1331 LINE",
"939 1331 LINE",
"782 152 LINE SMOOTH",
"777 108 OFFCURVE",
"708 93 OFFCURVE",
"659 88 CURVE SMOOTH",
"631 85 OFFCURVE",
"622 70 OFFCURVE",
"622 46 CURVE SMOOTH",
"622 30 OFFCURVE",
"631 0 OFFCURVE",
"652 0 CURVE SMOOTH",
"1100 0 LINE",
"1719 1 LINE",
"1777 372 LINE",
"1777 395 OFFCURVE",
"1763 406 OFFCURVE",
"1738 406 CURVE SMOOTH",
"1717 406 OFFCURVE",
"1687 398 OFFCURVE",
"1680 373 CURVE",
"1666 332 OFFCURVE",
"1610 101 OFFCURVE",
"1436 101 CURVE SMOOTH",
"1087 101 LINE",
"1038 102 OFFCURVE",
"999 114 OFFCURVE",
"999 175 CURVE SMOOTH",
"999 182 OFFCURVE",
"999 189 OFFCURVE",
"1000 197 CURVE SMOOTH",
"1152 1331 LINE"
);
},
{
closed = 1;
nodes = (
"1326 657 LINE SMOOTH",
"1382 657 OFFCURVE",
"1394 516 OFFCURVE",
"1393 473 CURVE SMOOTH",
"1393 447 OFFCURVE",
"1426 440 OFFCURVE",
"1447 440 CURVE SMOOTH",
"1462 440 OFFCURVE",
"1489 451 OFFCURVE",
"1491 474 CURVE SMOOTH",
"1539 917 LINE",
"1543 940 OFFCURVE",
"1517 951 OFFCURVE",
"1502 951 CURVE SMOOTH",
"1481 951 OFFCURVE",
"1448 944 OFFCURVE",
"1442 918 CURVE SMOOTH",
"1432 878 OFFCURVE",
"1393 743 OFFCURVE",
"1341 743 CURVE SMOOTH",
"992 743 LINE",
"992 657 LINE {name = hr00;}"
);
},
{
closed = 1;
nodes = (
"849 495 LINE",
"867 581 LINE",
"353 581 LINE",
"315 495 LINE"
);
}
);
width = 1988;
},
{
anchors = (
{
name = bottom;
position = "{1031, 0}";
},
{
name = btm;
position = "{937, -170}";
},
{
name = top;
position = "{1278, 1700}";
}
);
layerId = "BDB4B313-38B1-4B24-B843-560B185382BD";
paths = (
{
closed = 1;
nodes = (
"780 108 OFFCURVE",
"732 93 OFFCURVE",
"667 88 CURVE",
"639 85 OFFCURVE",
"630 71 OFFCURVE",
"630 48 CURVE SMOOTH",
"630 32 OFFCURVE",
"638 0 OFFCURVE",
"660 0 CURVE SMOOTH",
"1892 1 LINE",
"1955 372 LINE SMOOTH",
"1959 395 OFFCURVE",
"1933 406 OFFCURVE",
"1908 406 CURVE SMOOTH",
"1887 406 OFFCURVE",
"1847 398 OFFCURVE",
"1838 373 CURVE SMOOTH",
"1792 250 OFFCURVE",
"1700 101 OFFCURVE",
"1566 101 CURVE SMOOTH",
"1215 101 LINE SMOOTH",
"1173 101 OFFCURVE",
"1120 114 OFFCURVE",
"1120 174 CURVE SMOOTH",
"1120 181 OFFCURVE",
"1120 189 OFFCURVE",
"1122 197 CURVE",
"1306 1357 LINE",
"1246 1331 LINE",
"1704 1332 LINE SMOOTH",
"1836 1332 OFFCURVE",
"1864 1181 OFFCURVE",
"1864 1118 CURVE SMOOTH",
"1864 1112 OFFCURVE",
"1863 1107 OFFCURVE",
"1863 1103 CURVE SMOOTH",
"1860 1077 OFFCURVE",
"1889 1070 OFFCURVE",
"1910 1070 CURVE SMOOTH",
"1925 1070 OFFCURVE",
"1965 1081 OFFCURVE",
"1968 1104 CURVE",
"1993 1418 LINE",
"515 1419 LINE SMOOTH",
"492 1419 OFFCURVE",
"480 1393 OFFCURVE",
"477 1378 CURVE",
"476 1373 OFFCURVE",
"475 1368 OFFCURVE",
"475 1363 CURVE SMOOTH",
"475 1342 OFFCURVE",
"489 1331 OFFCURVE",
"512 1331 CURVE",
"725 1321 LINE",
"58 199 LINE SMOOTH",
"11 121 OFFCURVE",
"-74 92 OFFCURVE",
"-126 88 CURVE SMOOTH",
"-147 86 OFFCURVE",
"-163 77 OFFCURVE",
"-163 51 CURVE SMOOTH",
"-163 36 OFFCURVE",
"-161 0 OFFCURVE",
"-139 0 CURVE SMOOTH",
"329 0 LINE SMOOTH",
"352 0 OFFCURVE",
"372 29 OFFCURVE",
"372 51 CURVE SMOOTH",
"372 73 OFFCURVE",
"369 85 OFFCURVE",
"344 88 CURVE",
"239 88 OFFCURVE",
"203 127 OFFCURVE",
"203 167 CURVE SMOOTH",
"203 180 OFFCURVE",
"206 192 OFFCURVE",
"213 204 CURVE SMOOTH",
"849 1320 LINE",
"950 1320 LINE",
"790 152 LINE"
);
},
{
closed = 1;
nodes = (
"1462 682 LINE SMOOTH",
"1519 682 OFFCURVE",
"1534 546 OFFCURVE",
"1533 503 CURVE",
"1531 477 OFFCURVE",
"1568 470 OFFCURVE",
"1599 470 CURVE SMOOTH",
"1614 470 OFFCURVE",
"1642 481 OFFCURVE",
"1646 504 CURVE SMOOTH",
"1716 947 LINE SMOOTH",
"1720 970 OFFCURVE",
"1694 981 OFFCURVE",
"1679 981 CURVE SMOOTH",
"1650 981 OFFCURVE",
"1611 974 OFFCURVE",
"1603 948 CURVE SMOOTH",
"1592 908 OFFCURVE",
"1533 785 OFFCURVE",
"1480 778 CURVE",
"1036 778 LINE",
"1038 682 LINE"
);
},
{
closed = 1;
nodes = (
"932 429 LINE",
"932 515 LINE",
"285 515 LINE",
"285 429 LINE"
);
}
);
width = 2201;
}
);
unicode = 00C6;
},
{
color = 4;
glyphname = B;
lastChange = "2018-07-18 03:41:18 +0000";
layers = (
{
anchors = (
{
name = bottom;
position = "{600, 0}";
},
{
name = btm;
position = "{665, -170}";
},
{
name = top;
position = "{753, 1419}";
}
);
layerId = "D92FDD0B-F694-41DD-AE46-0E4F694F0F38";
paths = (
{
closed = 1;
nodes = (
"48 35 OFFCURVE",
"54 0 OFFCURVE",
"78 0 CURVE SMOOTH",
"686 0 LINE SMOOTH",
"1040 0 OFFCURVE",
"1262 174 OFFCURVE",
"1262 451 CURVE SMOOTH",
"1262 676 OFFCURVE",
"1074 745 OFFCURVE",
"921 765 CURVE",
"1109 791 OFFCURVE",
"1280 963 OFFCURVE",
"1276 1134 CURVE SMOOTH",
"1271 1355 OFFCURVE",
"1073 1419 OFFCURVE",
"783 1419 CURVE SMOOTH",
"250 1419 LINE SMOOTH",
"227 1419 OFFCURVE",
"210 1383 OFFCURVE",
"210 1368 CURVE",
"209 1362 OFFCURVE",
"209 1357 OFFCURVE",
"209 1352 CURVE SMOOTH",
"209 1337 OFFCURVE",
"218 1333 OFFCURVE",
"240 1331 CURVE SMOOTH",
"304 1326 OFFCURVE",
"389 1321 OFFCURVE",
"392 1248 CURVE SMOOTH",
"392 1243 OFFCURVE",
"392 1239 OFFCURVE",
"391 1234 CURVE SMOOTH",
"242 152 LINE SMOOTH",
"237 107 OFFCURVE",
"160 94 OFFCURVE",
"85 88 CURVE SMOOTH",
"58 86 OFFCURVE",
"49 71 OFFCURVE",
"49 51 CURVE {name = hr00;}"
);
},
{
closed = 1;
nodes = (
"700 715 LINE SMOOTH",
"804 715 OFFCURVE",
"1038 696 OFFCURVE",
"1043 458 CURVE SMOOTH",
"1050 131 OFFCURVE",
"834 96 OFFCURVE",
"646 96 CURVE SMOOTH",
"597 96 OFFCURVE",
"438 100 OFFCURVE",
"436 133 CURVE",
"599 1331 LINE",
"720 1331 LINE SMOOTH",
"933 1331 OFFCURVE",
"1060 1285 OFFCURVE",
"1060 1117 CURVE SMOOTH",
"1060 853 OFFCURVE",
"837 801 OFFCURVE",
"709 801 CURVE SMOOTH",
"462 801 LINE",
"456 715 LINE"
);
}
);
width = 1339;
},
{
anchors = (
{
name = bottom;
position = "{708, 0}";
},
{
name = btm;
position = "{625, -170}";
},
{
name = top;
position = "{884, 1419}";
}
);
layerId = "BDB4B313-38B1-4B24-B843-560B185382BD";
paths = (
{
closed = 1;
nodes = (
"11 29 OFFCURVE",
"16 0 OFFCURVE",
"38 0 CURVE SMOOTH",
"730 0 LINE SMOOTH",
"1261 0 OFFCURVE",
"1472 165 OFFCURVE",
"1478 437 CURVE SMOOTH",
"1482 635 OFFCURVE",
"1289 737 OFFCURVE",
"1086 747 CURVE",
"1321 765 OFFCURVE",
"1452 939 OFFCURVE",
"1452 1112 CURVE SMOOTH",
"1452 1308 OFFCURVE",
"1308 1419 OFFCURVE",
"854 1419 CURVE SMOOTH",
"225 1419 LINE SMOOTH",
"202 1419 OFFCURVE",
"185 1383 OFFCURVE",
"183 1368 CURVE SMOOTH",
"182 1362 OFFCURVE",
"182 1357 OFFCURVE",
"182 1352 CURVE SMOOTH",
"182 1337 OFFCURVE",
"191 1333 OFFCURVE",
"213 1331 CURVE SMOOTH",
"277 1326 OFFCURVE",
"361 1321 OFFCURVE",
"361 1249 CURVE SMOOTH",
"361 1244 OFFCURVE",
"361 1239 OFFCURVE",
"360 1234 CURVE SMOOTH",
"208 152 LINE",
"201 107 OFFCURVE",
"124 94 OFFCURVE",
"49 88 CURVE SMOOTH",
"20 86 OFFCURVE",
"11 69 OFFCURVE",
"11 46 CURVE SMOOTH"
);
},
{
closed = 1;
nodes = (
"752 704 LINE SMOOTH",
"927 704 OFFCURVE",
"1111 696 OFFCURVE",
"1109 458 CURVE",
"1103 131 OFFCURVE",
"884 100 OFFCURVE",
"724 100 CURVE SMOOTH",
"691 100 OFFCURVE",
"552 104 OFFCURVE",
"552 137 CURVE",
"717 1331 LINE",
"803 1331 LINE SMOOTH",
"1004 1331 OFFCURVE",
"1111 1278 OFFCURVE",
"1111 1132 CURVE SMOOTH",
"1111 896 OFFCURVE",
"1033 790 OFFCURVE",
"823 790 CURVE SMOOTH",
"559 790 LINE",
"578 704 LINE"
);
}
);
width = 1555;
}
);
unicode = 0042;
},
{
color = 4;
glyphname = C;
lastChange = "2018-07-18 04:19:10 +0000";
layers = (
{
anchors = (
{
name = bottom;
position = "{588, 0}";
},
{
name = btm;
position = "{664, -170}";
},
{
name = top;
position = "{886, 1419}";
}
);
layerId = "D92FDD0B-F694-41DD-AE46-0E4F694F0F38";
paths = (
{
closed = 1;
nodes = (
"966 -30 OFFCURVE",
"1150 80 OFFCURVE",
"1159 108 CURVE",
"1186 372 LINE",
"1186 375 LINE SMOOTH",
"1186 396 OFFCURVE",
"1133 406 OFFCURVE",
"1118 406 CURVE SMOOTH",
"1096 406 OFFCURVE",
"1088 399 OFFCURVE",
"1078 373 CURVE",
"1029 200 OFFCURVE",
"935 65 OFFCURVE",
"717 65 CURVE SMOOTH",
"415 65 OFFCURVE",
"351 372 OFFCURVE",
"343 597 CURVE SMOOTH",
"342 614 OFFCURVE",
"342 630 OFFCURVE",
"342 646 CURVE SMOOTH",
"342 1185 OFFCURVE",
"659 1353 OFFCURVE",
"875 1353 CURVE SMOOTH",
"1075 1353 OFFCURVE",
"1161 1256 OFFCURVE",
"1158 1039 CURVE",
"1162 1017 OFFCURVE",
"1183 1010 OFFCURVE",
"1201 1010 CURVE SMOOTH",
"1216 1010 OFFCURVE",
"1263 1020 OFFCURVE",
"1262 1051 CURVE",
"1290 1361 LINE",
"1228 1392 OFFCURVE",
"1120 1449 OFFCURVE",
"885 1449 CURVE SMOOTH",
"541 1449 OFFCURVE",
"95 1184 OFFCURVE",
"95 641 CURVE SMOOTH",
"95 631 OFFCURVE",
"96 620 OFFCURVE",
"96 609 CURVE SMOOTH",
"109 189 OFFCURVE",
"337 -30 OFFCURVE",
"737 -30 CURVE SMOOTH {name = hr00;}"
);
}
);
width = 1315;
},
{
anchors = (
{
name = bottom;
position = "{663, 0}";
},
{
name = btm;
position = "{699, -170}";
},
{
name = top;
position = "{979, 1419}";
}
);
layerId = "BDB4B313-38B1-4B24-B843-560B185382BD";
paths = (
{
closed = 1;
nodes = (
"1071 -30 OFFCURVE",
"1304 70 OFFCURVE",
"1313 98 CURVE",
"1354 375 LINE",
"1354 396 OFFCURVE",
"1289 406 OFFCURVE",
"1272 406 CURVE SMOOTH",
"1245 406 OFFCURVE",
"1229 398 OFFCURVE",
"1217 372 CURVE SMOOTH",
"1130 149 OFFCURVE",
"1041 65 OFFCURVE",
"815 65 CURVE SMOOTH",
"640 65 OFFCURVE",
"452 200 OFFCURVE",
"452 621 CURVE SMOOTH",
"452 1115 OFFCURVE",
"728 1353 OFFCURVE",
"969 1353 CURVE SMOOTH",
"1174 1353 OFFCURVE",
"1282 1253 OFFCURVE",
"1282 1070 CURVE SMOOTH",
"1282 1063 OFFCURVE",
"1282 1056 OFFCURVE",
"1282 1049 CURVE SMOOTH",
"1284 1027 OFFCURVE",
"1317 1010 OFFCURVE",
"1343 1010 CURVE SMOOTH",
"1360 1010 OFFCURVE",
"1425 1020 OFFCURVE",
"1426 1051 CURVE",
"1464 1361 LINE",
"1399 1392 OFFCURVE",
"1251 1449 OFFCURVE",
"986 1449 CURVE SMOOTH",
"489 1449 OFFCURVE",
"79 1119 OFFCURVE",
"79 629 CURVE SMOOTH",
"79 214 OFFCURVE",
"326 -30 OFFCURVE",
"811 -30 CURVE SMOOTH"
);
}
);
width = 1465;
}
);
unicode = 0043;
},
{
color = 4;
glyphname = D;
lastChange = "2018-07-18 03:41:51 +0000";
layers = (
{
anchors = (
{
name = bottom;
position = "{697, 0}";
},
{
name = btm;
position = "{821, -170}";
},
{
name = center;
position = "{797, 710}";
},
{
name = top;
position = "{811, 1419}";
}
);
layerId = "D92FDD0B-F694-41DD-AE46-0E4F694F0F38";
paths = (
{
closed = 1;
nodes = (
"45 36 OFFCURVE",
"54 0 OFFCURVE",
"77 0 CURVE SMOOTH",
"650 0 LINE SMOOTH",
"1210 0 OFFCURVE",
"1512 322 OFFCURVE",
"1512 824 CURVE SMOOTH",
"1512 1095 OFFCURVE",
"1380 1419 OFFCURVE",
"769 1419 CURVE SMOOTH",
"249 1419 LINE SMOOTH",
"226 1419 OFFCURVE",
"208 1383 OFFCURVE",
"209 1368 CURVE",
"208 1362 OFFCURVE",
"207 1357 OFFCURVE",
"207 1353 CURVE SMOOTH",
"207 1336 OFFCURVE",
"216 1333 OFFCURVE",
"238 1331 CURVE SMOOTH",
"298 1326 OFFCURVE",
"408 1320 OFFCURVE",
"399 1234 CURVE",
"257 152 LINE",
"253 108 OFFCURVE",
"149 93 OFFCURVE",
"84 88 CURVE",
"57 85 OFFCURVE",
"48 72 OFFCURVE",
"48 51 CURVE {name = hr00;}"
);
},
{
closed = 1;
nodes = (
"617 1331 LINE",
"754 1331 LINE SMOOTH",
"1109 1331 OFFCURVE",
"1282 1192 OFFCURVE",
"1282 827 CURVE SMOOTH",
"1282 318 OFFCURVE",
"1062 101 OFFCURVE",
"692 101 CURVE SMOOTH",
"543 101 OFFCURVE",
"476 115 OFFCURVE",
"464 153 CURVE"
);
}
);
width = 1534;
},
{
anchors = (
{
name = bottom;
position = "{784, 0}";
},
{
name = btm;
position = "{653, -170}";
},
{
name = center;
position = "{884, 710}";
},
{
name = top;
position = "{985, 1419}";
}
);
layerId = "BDB4B313-38B1-4B24-B843-560B185382BD";
paths = (
{
closed = 1;
nodes = (
"-5 36 OFFCURVE",
"3 0 OFFCURVE",
"25 0 CURVE SMOOTH",
"775 0 LINE SMOOTH",
"1234 0 OFFCURVE",
"1629 329 OFFCURVE",
"1629 877 CURVE SMOOTH",
"1629 1158 OFFCURVE",
"1430 1417 OFFCURVE",
"936 1419 CURVE",
"239 1419 LINE SMOOTH",
"216 1419 OFFCURVE",
"198 1383 OFFCURVE",
"197 1368 CURVE",
"196 1362 OFFCURVE",
"196 1357 OFFCURVE",
"196 1353 CURVE SMOOTH",
"196 1336 OFFCURVE",
"204 1333 OFFCURVE",
"226 1331 CURVE SMOOTH",
"282 1326 OFFCURVE",
"364 1321 OFFCURVE",
"364 1250 CURVE SMOOTH",
"364 1245 OFFCURVE",
"364 1240 OFFCURVE",
"363 1234 CURVE",
"191 152 LINE",
"185 108 OFFCURVE",
"101 93 OFFCURVE",
"36 88 CURVE",
"9 85 OFFCURVE",
"0 72 OFFCURVE",
"-2 51 CURVE"
);
},
{
closed = 1;
nodes = (
"725 1331 LINE",
"839 1331 LINE SMOOTH",
"1088 1331 OFFCURVE",
"1264 1251 OFFCURVE",
"1264 904 CURVE SMOOTH",
"1264 338 OFFCURVE",
"1025 91 OFFCURVE",
"721 91 CURVE SMOOTH",
"561 91 OFFCURVE",
"537 113 OFFCURVE",
"537 135 CURVE SMOOTH",
"537 143 OFFCURVE",
"540 151 OFFCURVE",
"541 158 CURVE"
);
}
);
width = 1708;
}
);
unicode = 0044;
},
{
glyphname = Eth;
lastChange = "2018-07-18 03:33:48 +0000";
layers = (
{
components = (
{
name = D;
}
);
layerId = "D92FDD0B-F694-41DD-AE46-0E4F694F0F38";
paths = (
{
closed = 1;
nodes = (
"848 687 LINE",
"860 773 LINE",
"146 773 LINE",
"130 687 LINE {name = hr00;}"
);
}
);
width = 1534;
},
{
components = (
{
name = D;
}
);
layerId = "BDB4B313-38B1-4B24-B843-560B185382BD";
paths = (
{
closed = 1;
nodes = (
"1011 700 OFFCURVE",
"1021 722 OFFCURVE",
"1021 747 CURVE SMOOTH",
"1021 763 OFFCURVE",
"1013 790 OFFCURVE",
"997 791 CURVE",
"148 791 LINE",
"134 785 OFFCURVE",
"124 753 OFFCURVE",
"124 728 CURVE SMOOTH",
"124 712 OFFCURVE",
"132 695 OFFCURVE",
"148 694 CURVE",
"997 694 LINE"
);
}
);
width = 1708;
}
);
unicode = 00D0;
},
{
glyphname = Dcroat;
lastChange = "2018-07-18 03:33:48 +0000";
layers = (
{
components = (
{
name = D;
}
);
layerId = "D92FDD0B-F694-41DD-AE46-0E4F694F0F38";
paths = (
{
closed = 1;
nodes = (
"848 687 LINE",
"860 773 LINE",
"146 773 LINE",
"130 687 LINE {name = hr00;}"
);
}
);
width = 1534;
},
{
components = (
{
name = D;
}
);
layerId = "BDB4B313-38B1-4B24-B843-560B185382BD";
paths = (
{
closed = 1;
nodes = (
"1011 700 OFFCURVE",
"1021 722 OFFCURVE",
"1021 747 CURVE SMOOTH",
"1021 763 OFFCURVE",
"1013 790 OFFCURVE",
"997 791 CURVE",
"148 791 LINE",
"134 785 OFFCURVE",
"124 753 OFFCURVE",
"124 728 CURVE SMOOTH",
"124 712 OFFCURVE",
"132 695 OFFCURVE",
"148 694 CURVE",
"997 694 LINE"
);
}
);
width = 1708;
}
);
unicode = 0110;
},
{
color = 4;
glyphname = E;
lastChange = "2018-07-18 03:42:12 +0000";
layers = (
{
anchors = (
{
name = bottom;
position = "{599, 0}";
},
{
name = btm;
position = "{673, -170}";
},
{
name = ogonek;
position = "{1136, 10}";
},
{
name = top;
position = "{812, 1419}";
},
{
name = topleft;
position = "{150, 1419}";
}
);
layerId = "D92FDD0B-F694-41DD-AE46-0E4F694F0F38";
paths = (
{
closed = 1;
nodes = (
"794 687 LINE SMOOTH",
"850 687 OFFCURVE",
"865 546 OFFCURVE",
"866 503 CURVE",
"864 477 OFFCURVE",
"895 470 OFFCURVE",
"916 470 CURVE SMOOTH",
"931 470 OFFCURVE",
"959 481 OFFCURVE",
"963 504 CURVE",
"1013 947 LINE",
"1017 970 OFFCURVE",
"989 981 OFFCURVE",
"974 981 CURVE SMOOTH",
"953 981 OFFCURVE",
"924 974 OFFCURVE",
"920 948 CURVE",
"911 908 OFFCURVE",
"861 780 OFFCURVE",
"808 773 CURVE",
"429 773 LINE",
"429 687 LINE {name = hr00;}"
);
},
{
closed = 1;
nodes = (
"1012 1331 LINE SMOOTH",
"1150 1331 OFFCURVE",
"1182 1136 OFFCURVE",
"1180 1095 CURVE",
"1182 1069 OFFCURVE",
"1202 1062 OFFCURVE",
"1223 1062 CURVE SMOOTH",
"1238 1062 OFFCURVE",
"1265 1073 OFFCURVE",
"1266 1096 CURVE SMOOTH",
"1280 1419 LINE",
"241 1419 LINE SMOOTH",
"218 1419 OFFCURVE",
"200 1383 OFFCURVE",
"201 1368 CURVE",
"200 1362 OFFCURVE",
"199 1357 OFFCURVE",
"199 1353 CURVE SMOOTH",
"199 1336 OFFCURVE",
"208 1333 OFFCURVE",
"230 1331 CURVE SMOOTH",
"290 1326 OFFCURVE",
"400 1320 OFFCURVE",
"391 1234 CURVE",
"241 152 LINE",
"237 108 OFFCURVE",
"133 93 OFFCURVE",
"68 88 CURVE",
"43 85 OFFCURVE",
"34 72 OFFCURVE",
"34 51 CURVE",
"31 36 OFFCURVE",
"38 0 OFFCURVE",
"61 0 CURVE SMOOTH",
"1190 0 LINE",
"1285 372 LINE",
"1286 395 OFFCURVE",
"1269 406 OFFCURVE",
"1244 406 CURVE SMOOTH",
"1223 406 OFFCURVE",
"1204 398 OFFCURVE",
"1195 373 CURVE",
"1182 332 OFFCURVE",
"1077 97 OFFCURVE",
"913 97 CURVE SMOOTH",
"532 97 LINE",
"492 101 OFFCURVE",
"452 117 OFFCURVE",
"452 174 CURVE SMOOTH",
"452 180 OFFCURVE",
"452 186 OFFCURVE",
"453 193 CURVE",
"609 1331 LINE"
);
}
);
width = 1338;
},
{
anchors = (
{
name = bottom;
position = "{669, 0}";
},
{
name = btm;
position = "{621, -170}";
},
{
name = ogonek;
position = "{1261, 10}";
},
{
name = top;
position = "{905, 1419}";
},
{
name = topleft;
position = "{150, 1419}";
}
);
layerId = "BDB4B313-38B1-4B24-B843-560B185382BD";
paths = (
{
closed = 1;
nodes = (
"914 682 LINE SMOOTH",
"971 682 OFFCURVE",
"986 546 OFFCURVE",
"985 503 CURVE",
"983 477 OFFCURVE",
"1020 470 OFFCURVE",
"1051 470 CURVE SMOOTH",
"1066 470 OFFCURVE",
"1094 481 OFFCURVE",
"1098 504 CURVE SMOOTH",
"1168 947 LINE SMOOTH",
"1172 970 OFFCURVE",
"1146 981 OFFCURVE",
"1131 981 CURVE SMOOTH",
"1102 981 OFFCURVE",
"1063 974 OFFCURVE",
"1055 948 CURVE SMOOTH",
"1044 908 OFFCURVE",
"985 785 OFFCURVE",
"932 778 CURVE",
"488 778 LINE",
"490 682 LINE"
);
},
{
closed = 1;
nodes = (
"1135 1331 LINE SMOOTH",
"1282 1331 OFFCURVE",
"1295 1144 OFFCURVE",
"1295 1103 CURVE SMOOTH",
"1295 1077 OFFCURVE",
"1323 1070 OFFCURVE",
"1344 1070 CURVE SMOOTH",
"1362 1070 OFFCURVE",
"1395 1081 OFFCURVE",
"1399 1104 CURVE",
"1424 1419 LINE",
"226 1419 LINE SMOOTH",
"203 1419 OFFCURVE",
"185 1383 OFFCURVE",
"184 1368 CURVE",
"183 1362 OFFCURVE",
"182 1357 OFFCURVE",
"182 1353 CURVE SMOOTH",
"182 1336 OFFCURVE",
"191 1333 OFFCURVE",
"213 1331 CURVE SMOOTH",
"270 1326 OFFCURVE",
"371 1321 OFFCURVE",
"371 1247 CURVE SMOOTH",
"371 1243 OFFCURVE",
"371 1239 OFFCURVE",
"370 1234 CURVE",
"218 152 LINE",
"212 108 OFFCURVE",
"108 93 OFFCURVE",
"43 88 CURVE",
"16 85 OFFCURVE",
"7 72 OFFCURVE",
"5 51 CURVE",
"2 36 OFFCURVE",
"9 0 OFFCURVE",
"32 0 CURVE SMOOTH",
"1340 0 LINE",
"1409 372 LINE",
"1410 395 OFFCURVE",
"1387 406 OFFCURVE",
"1350 406 CURVE SMOOTH",
"1329 406 OFFCURVE",
"1300 398 OFFCURVE",
"1292 373 CURVE",
"1277 332 OFFCURVE",
"1184 101 OFFCURVE",
"1020 101 CURVE SMOOTH",
"647 101 LINE",
"608 105 OFFCURVE",
"570 120 OFFCURVE",
"570 176 CURVE SMOOTH",
"570 183 OFFCURVE",
"571 189 OFFCURVE",
"572 197 CURVE SMOOTH",
"732 1331 LINE"
);
}
);
width = 1477;
}
);
unicode = 0045;
},
{
glyphname = Eogonek;
lastChange = "2018-07-18 03:33:48 +0000";
layers = (
{
components = (
{
name = E;
}
);
layerId = "D92FDD0B-F694-41DD-AE46-0E4F694F0F38";
paths = (
{
closed = 1;
nodes = (
"650 -385 OFFCURVE",
"735 -448 OFFCURVE",
"900 -448 CURVE SMOOTH",
"951 -448 OFFCURVE",
"1004 -438 OFFCURVE",
"1061 -422 CURVE SMOOTH",
"1076 -418 OFFCURVE",
"1088 -408 OFFCURVE",
"1091 -393 CURVE SMOOTH",
"1092 -386 OFFCURVE",
"1093 -380 OFFCURVE",
"1093 -375 CURVE SMOOTH",
"1093 -359 OFFCURVE",
"1088 -350 OFFCURVE",
"1075 -349 CURVE SMOOTH",
"1060 -348 OFFCURVE",
"1031 -351 OFFCURVE",
"998 -351 CURVE SMOOTH",
"924 -351 OFFCURVE",
"828 -337 OFFCURVE",
"828 -238 CURVE SMOOTH",
"828 -176 OFFCURVE",
"855 -69 OFFCURVE",
"1121 31 CURVE",
"1121 31 OFFCURVE",
"950 15 OFFCURVE",
"950 15 CURVE",
"831 -1 OFFCURVE",
"650 -145 OFFCURVE",
"650 -278 CURVE SMOOTH {name = hr00;}"
);
}
);
width = 1338;
},
{
components = (
{
name = E;
}
);
layerId = "BDB4B313-38B1-4B24-B843-560B185382BD";
paths = (
{
closed = 1;
nodes = (
"730 -385 OFFCURVE",
"806 -452 OFFCURVE",
"972 -452 CURVE SMOOTH",
"1072 -452 OFFCURVE",
"1196 -414 OFFCURVE",
"1272 -329 CURVE SMOOTH",
"1274 -327 OFFCURVE",
"1275 -323 OFFCURVE",
"1275 -318 CURVE SMOOTH",
"1275 -297 OFFCURVE",
"1254 -259 OFFCURVE",
"1232 -266 CURVE",
"1205 -280 OFFCURVE",
"1134 -330 OFFCURVE",
"1070 -330 CURVE SMOOTH",
"1013 -330 OFFCURVE",
"960 -313 OFFCURVE",
"960 -228 CURVE SMOOTH",
"960 -153 OFFCURVE",
"1056 -68 OFFCURVE",
"1252 21 CURVE",
"1114 12 LINE",
"901 -28 OFFCURVE",
"730 -154 OFFCURVE",
"730 -293 CURVE SMOOTH"
);
}
);
width = 1477;
}
);
unicode = 0118;
},
{
color = 4;
glyphname = F;
lastChange = "2018-07-18 03:42:37 +0000";
layers = (
{
anchors = (
{
name = bottom;
position = "{544, 0}";
},
{
name = btm;
position = "{653, -170}";
},
{
name = top;
position = "{777, 1419}";
}
);
layerId = "D92FDD0B-F694-41DD-AE46-0E4F694F0F38";
paths = (
{
closed = 1;
nodes = (
"987 1332 LINE SMOOTH",
"1125 1332 OFFCURVE",
"1163 1108 OFFCURVE",
"1165 1069 CURVE",
"1162 1043 OFFCURVE",
"1180 1036 OFFCURVE",
"1201 1036 CURVE SMOOTH",
"1216 1036 OFFCURVE",
"1244 1047 OFFCURVE",
"1249 1070 CURVE",
"1255 1419 LINE",
"241 1419 LINE SMOOTH",
"218 1419 OFFCURVE",
"200 1383 OFFCURVE",
"201 1368 CURVE",
"200 1362 OFFCURVE",
"199 1357 OFFCURVE",
"199 1353 CURVE SMOOTH",
"199 1336 OFFCURVE",
"208 1333 OFFCURVE",
"230 1331 CURVE",
"302 1326 OFFCURVE",
"400 1320 OFFCURVE",
"391 1234 CURVE",
"233 152 LINE",
"229 108 OFFCURVE",
"140 93 OFFCURVE",
"60 88 CURVE",
"35 85 OFFCURVE",
"26 72 OFFCURVE",
"26 51 CURVE",
"23 36 OFFCURVE",
"30 0 OFFCURVE",
"53 0 CURVE SMOOTH",
"685 0 LINE SMOOTH",
"708 0 OFFCURVE",
"714 36 OFFCURVE",
"717 51 CURVE",
"719 81 OFFCURVE",
"706 88 OFFCURVE",
"684 88 CURVE SMOOTH",
"599 88 OFFCURVE",
"436 111 OFFCURVE",
"445 197 CURVE",
"608 1332 LINE"
);
},
{
closed = 1;
nodes = (
"763 655 LINE SMOOTH",
"819 655 OFFCURVE",
"836 514 OFFCURVE",
"833 471 CURVE",
"835 445 OFFCURVE",
"861 438 OFFCURVE",
"882 438 CURVE SMOOTH",
"897 438 OFFCURVE",
"932 449 OFFCURVE",
"932 472 CURVE",
"982 915 LINE",
"983 938 OFFCURVE",
"959 949 OFFCURVE",
"944 949 CURVE SMOOTH",
"923 949 OFFCURVE",
"894 942 OFFCURVE",
"890 916 CURVE",
"877 876 OFFCURVE",
"831 748 OFFCURVE",
"781 741 CURVE",
"399 741 LINE",
"397 655 LINE {name = hr00;}"
);
}
);
width = 1227;
},
{
anchors = (
{
name = bottom;
position = "{618, 0}";
},
{
name = btm;
position = "{609, -170}";
},
{
name = top;
position = "{842, 1419}";
}
);
layerId = "BDB4B313-38B1-4B24-B843-560B185382BD";
paths = (
{
closed = 1;
nodes = (
"-2 26 OFFCURVE",
"6 0 OFFCURVE",
"26 0 CURVE SMOOTH",
"808 0 LINE SMOOTH",
"831 0 OFFCURVE",
"839 36 OFFCURVE",
"842 51 CURVE SMOOTH",
"842 55 OFFCURVE",
"843 58 OFFCURVE",
"843 61 CURVE SMOOTH",
"843 82 OFFCURVE",
"830 87 OFFCURVE",
"811 88 CURVE SMOOTH",
"631 97 OFFCURVE",
"555 108 OFFCURVE",
"555 179 CURVE SMOOTH",
"555 184 OFFCURVE",
"555 191 OFFCURVE",
"556 197 CURVE SMOOTH",
"725 1331 LINE",
"1104 1331 LINE SMOOTH",
"1210 1331 OFFCURVE",
"1272 1108 OFFCURVE",
"1272 1069 CURVE SMOOTH",
"1269 1043 OFFCURVE",
"1287 1036 OFFCURVE",
"1308 1036 CURVE SMOOTH",
"1329 1036 OFFCURVE",
"1369 1047 OFFCURVE",
"1376 1070 CURVE",
"1394 1419 LINE",
"230 1419 LINE SMOOTH",
"207 1419 OFFCURVE",
"189 1383 OFFCURVE",
"188 1368 CURVE SMOOTH",
"187 1362 OFFCURVE",
"186 1357 OFFCURVE",
"186 1353 CURVE SMOOTH",
"186 1336 OFFCURVE",
"195 1333 OFFCURVE",
"217 1331 CURVE",
"285 1326 OFFCURVE",
"375 1321 OFFCURVE",
"375 1249 CURVE SMOOTH",
"375 1244 OFFCURVE",
"375 1239 OFFCURVE",
"374 1234 CURVE SMOOTH",
"212 152 LINE SMOOTH",
"206 108 OFFCURVE",
"117 93 OFFCURVE",
"37 88 CURVE",
"7 85 OFFCURVE",
"-2 69 OFFCURVE",
"-2 43 CURVE SMOOTH"
);
},
{
closed = 1;
nodes = (
"888 643 LINE SMOOTH",
"945 643 OFFCURVE",
"960 507 OFFCURVE",
"959 464 CURVE",
"957 438 OFFCURVE",
"994 431 OFFCURVE",
"1025 431 CURVE SMOOTH",
"1040 431 OFFCURVE",
"1068 442 OFFCURVE",
"1072 465 CURVE SMOOTH",
"1142 908 LINE SMOOTH",
"1146 931 OFFCURVE",
"1117 942 OFFCURVE",
"1102 942 CURVE SMOOTH",
"1073 942 OFFCURVE",
"1037 935 OFFCURVE",
"1029 909 CURVE SMOOTH",
"1018 869 OFFCURVE",
"959 746 OFFCURVE",
"906 739 CURVE",
"462 739 LINE",
"464 643 LINE"
);
}
);
width = 1375;
}
);
unicode = 0046;
},
{
color = 4;
glyphname = G;
lastChange = "2018-07-18 04:13:56 +0000";
layers = (
{
anchors = (
{
name = bottom;
position = "{673, 0}";
},
{
name = btm;
position = "{812, -170}";
},
{
name = top;
position = "{933, 1419}";
}
);
layerId = "D92FDD0B-F694-41DD-AE46-0E4F694F0F38";
paths = (
{
closed = 1;
nodes = (
"1006 -30 OFFCURVE",
"1204 79 OFFCURVE",
"1233 123 CURVE",
"1278 489 LINE",
"1282 533 OFFCURVE",
"1343 548 OFFCURVE",
"1402 553 CURVE SMOOTH",
"1433 556 OFFCURVE",
"1441 576 OFFCURVE",
"1440 603 CURVE SMOOTH",
"1440 620 OFFCURVE",
"1430 641 OFFCURVE",
"1413 641 CURVE SMOOTH",
"901 641 LINE SMOOTH",
"859 641 OFFCURVE",
"863 569 OFFCURVE",
"858 574 CURVE",
"861 559 OFFCURVE",
"870 554 OFFCURVE",
"891 553 CURVE",
"962 547 OFFCURVE",
"1064 543 OFFCURVE",
"1069 475 CURVE",
"1025 170 LINE",
"1005 129 OFFCURVE",
"917 65 OFFCURVE",
"709 65 CURVE SMOOTH",
"515 65 OFFCURVE",
"334 260 OFFCURVE",
"334 648 CURVE SMOOTH",
"337 973 OFFCURVE",
"513 1353 OFFCURVE",
"909 1353 CURVE SMOOTH",
"1136 1353 OFFCURVE",
"1233 1216 OFFCURVE",
"1246 1039 CURVE SMOOTH",
"1246 1035 LINE",
"1250 1016 OFFCURVE",
"1263 1010 OFFCURVE",
"1280 1010 CURVE SMOOTH",
"1296 1010 OFFCURVE",
"1337 1020 OFFCURVE",
"1336 1051 CURVE",
"1375 1361 LINE",
"1307 1392 OFFCURVE",
"1164 1449 OFFCURVE",
"911 1449 CURVE SMOOTH",
"547 1449 OFFCURVE",
"95 1178 OFFCURVE",
"94 651 CURVE SMOOTH",
"94 177 OFFCURVE",
"398 -30 OFFCURVE",
"730 -30 CURVE SMOOTH {name = hr00;}"
);
}
);
width = 1485;
},
{
anchors = (
{
name = bottom;
position = "{757, 0}";
},
{
name = btm;
position = "{737, -170}";
},
{
name = top;
position = "{990, 1419}";
}
);
layerId = "BDB4B313-38B1-4B24-B843-560B185382BD";
paths = (
{
closed = 1;
nodes = (
"93 126 OFFCURVE",
"456 -30 OFFCURVE",
"791 -30 CURVE SMOOTH",
"1106 -30 OFFCURVE",
"1336 79 OFFCURVE",
"1370 123 CURVE",
"1433 489 LINE",
"1433 533 OFFCURVE",
"1506 548 OFFCURVE",
"1569 553 CURVE SMOOTH",
"1599 556 OFFCURVE",
"1609 574 OFFCURVE",
"1609 599 CURVE SMOOTH",
"1609 617 OFFCURVE",
"1602 641 OFFCURVE",
"1584 641 CURVE SMOOTH",
"932 641 LINE SMOOTH",
"890 641 OFFCURVE",
"890 569 OFFCURVE",
"887 574 CURVE",
"888 559 OFFCURVE",
"897 554 OFFCURVE",
"918 553 CURVE",
"989 547 OFFCURVE",
"1096 543 OFFCURVE",
"1099 475 CURVE",
"1098 471 OFFCURVE",
"1098 467 OFFCURVE",
"1098 462 CURVE SMOOTH",
"1098 460 OFFCURVE",
"1098 458 OFFCURVE",
"1098 456 CURVE",
"1043 170 LINE",
"1027 129 OFFCURVE",
"936 65 OFFCURVE",
"764 65 CURVE SMOOTH",
"640 65 OFFCURVE",
"456 187 OFFCURVE",
"449 568 CURVE SMOOTH",
"449 578 OFFCURVE",
"449 588 OFFCURVE",
"449 598 CURVE SMOOTH",
"449 932 OFFCURVE",
"593 1353 OFFCURVE",
"932 1353 CURVE SMOOTH",
"1112 1353 OFFCURVE",
"1299 1327 OFFCURVE",
"1329 1039 CURVE SMOOTH",
"1336 1011 OFFCURVE",
"1364 1010 OFFCURVE",
"1401 1010 CURVE SMOOTH",
"1417 1010 OFFCURVE",
"1458 1020 OFFCURVE",
"1459 1051 CURVE",
"1508 1361 LINE",
"1433 1392 OFFCURVE",
"1318 1449 OFFCURVE",
"958 1449 CURVE SMOOTH",
"508 1449 OFFCURVE",
"78 1157 OFFCURVE",
"78 609 CURVE SMOOTH",
"78 598 OFFCURVE",
"79 586 OFFCURVE",
"79 575 CURVE SMOOTH"
);
}
);
width = 1653;
}
);
unicode = 0047;
},
{
color = 4;
glyphname = H;
lastChange = "2018-07-18 04:18:29 +0000";
layers = (
{
anchors = (
{
name = bottom;
position = "{765, 0}";
},
{
name = btm;
position = "{882, -170}";
},
{
name = center;
position = "{865, 710}";
},
{
name = top;
position = "{972, 1419}";
},
{
name = topleft;
position = "{150, 1419}";
}
);
layerId = "D92FDD0B-F694-41DD-AE46-0E4F694F0F38";
paths = (
{
closed = 1;
nodes = (
"563 0 LINE SMOOTH",
"586 0 OFFCURVE",
"597 36 OFFCURVE",
"599 51 CURVE SMOOTH",
"602 81 OFFCURVE",
"594 85 OFFCURVE",
"567 88 CURVE SMOOTH",
"510 93 OFFCURVE",
"426 98 OFFCURVE",
"426 171 CURVE",
"500 687 LINE",
"1219 687 LINE",
"1141 152 LINE SMOOTH {name = hr00;}",
"1136 108 OFFCURVE",
"1053 93 OFFCURVE",
"988 88 CURVE SMOOTH",
"959 85 OFFCURVE",
"951 70 OFFCURVE",
"951 47 CURVE SMOOTH",
"951 31 OFFCURVE",
"962 0 OFFCURVE",
"983 0 CURVE SMOOTH",
"1488 0 LINE SMOOTH",
"1511 0 OFFCURVE",
"1522 36 OFFCURVE",
"1524 51 CURVE SMOOTH",
"1527 81 OFFCURVE",
"1519 85 OFFCURVE",
"1492 88 CURVE SMOOTH",
"1435 93 OFFCURVE",
"1351 98 OFFCURVE",
"1351 171 CURVE",
"1510 1267 LINE",
"1515 1311 OFFCURVE",
"1598 1326 OFFCURVE",
"1662 1331 CURVE",
"1688 1334 OFFCURVE",
"1697 1347 OFFCURVE",
"1700 1368 CURVE",
"1701 1383 OFFCURVE",
"1695 1419 OFFCURVE",
"1672 1419 CURVE SMOOTH",
"1167 1419 LINE SMOOTH",
"1147 1419 OFFCURVE",
"1126 1388 OFFCURVE",
"1126 1355 CURVE SMOOTH",
"1126 1337 OFFCURVE",
"1135 1333 OFFCURVE",
"1158 1331 CURVE SMOOTH",
"1216 1326 OFFCURVE",
"1299 1321 OFFCURVE",
"1299 1248 CURVE",
"1231 773 LINE",
"513 773 LINE",
"585 1267 LINE SMOOTH",
"590 1311 OFFCURVE",
"673 1326 OFFCURVE",
"737 1331 CURVE",
"763 1334 OFFCURVE",
"772 1347 OFFCURVE",
"775 1368 CURVE",
"776 1383 OFFCURVE",
"770 1419 OFFCURVE",
"747 1419 CURVE SMOOTH",
"252 1419 LINE SMOOTH",
"232 1419 OFFCURVE",
"211 1388 OFFCURVE",
"211 1355 CURVE SMOOTH",
"211 1337 OFFCURVE",
"220 1333 OFFCURVE",
"243 1331 CURVE SMOOTH",
"300 1326 OFFCURVE",
"374 1321 OFFCURVE",
"374 1249 CURVE",
"216 152 LINE",
"211 108 OFFCURVE",
"138 93 OFFCURVE",
"73 88 CURVE SMOOTH",
"44 85 OFFCURVE",
"36 70 OFFCURVE",
"36 47 CURVE SMOOTH",
"36 31 OFFCURVE",
"47 0 OFFCURVE",
"68 0 CURVE SMOOTH"
);
}
);
width = 1669;
},
{
anchors = (
{
name = bottom;
position = "{835, 0}";
},
{
name = btm;
position = "{801, -170}";
},
{
name = center;
position = "{965, 710}";
},
{
name = top;
position = "{1038, 1419}";
},
{
name = topleft;
position = "{150, 1419}";
}
);
layerId = "BDB4B313-38B1-4B24-B843-560B185382BD";
paths = (
{
closed = 1;
nodes = (
"652 0 LINE SMOOTH",
"675 0 OFFCURVE",
"691 24 OFFCURVE",
"691 51 CURVE SMOOTH",
"691 71 OFFCURVE",
"689 85 OFFCURVE",
"662 88 CURVE SMOOTH",
"607 93 OFFCURVE",
"526 98 OFFCURVE",
"526 165 CURVE",
"602 682 LINE",
"1258 682 LINE",
"1179 152 LINE SMOOTH",
"1171 108 OFFCURVE",
"1088 93 OFFCURVE",
"1023 88 CURVE SMOOTH",
"996 85 OFFCURVE",
"988 72 OFFCURVE",
"983 51 CURVE",
"981 36 OFFCURVE",
"989 0 OFFCURVE",
"1012 0 CURVE SMOOTH",
"1657 0 LINE SMOOTH",
"1680 0 OFFCURVE",
"1696 23 OFFCURVE",
"1696 51 CURVE SMOOTH",
"1696 71 OFFCURVE",
"1694 85 OFFCURVE",
"1667 88 CURVE SMOOTH",
"1604 93 OFFCURVE",
"1511 98 OFFCURVE",
"1511 166 CURVE",
"1674 1267 LINE",
"1680 1311 OFFCURVE",
"1752 1326 OFFCURVE",
"1810 1331 CURVE SMOOTH",
"1840 1334 OFFCURVE",
"1849 1351 OFFCURVE",
"1849 1377 CURVE SMOOTH",
"1849 1394 OFFCURVE",
"1842 1419 OFFCURVE",
"1823 1419 CURVE SMOOTH",
"1218 1419 LINE SMOOTH",
"1195 1419 OFFCURVE",
"1175 1392 OFFCURVE",
"1175 1374 CURVE SMOOTH",
"1175 1344 OFFCURVE",
"1178 1334 OFFCURVE",
"1206 1331 CURVE SMOOTH",
"1268 1326 OFFCURVE",
"1342 1320 OFFCURVE",
"1342 1253 CURVE",
"1272 778 LINE",
"616 778 LINE",
"689 1267 LINE SMOOTH",
"697 1311 OFFCURVE",
"779 1326 OFFCURVE",
"845 1331 CURVE",
"869 1334 OFFCURVE",
"884 1347 OFFCURVE",
"884 1378 CURVE SMOOTH",
"884 1395 OFFCURVE",
"877 1419 OFFCURVE",
"858 1419 CURVE SMOOTH",
"233 1419 LINE SMOOTH",
"210 1419 OFFCURVE",
"190 1394 OFFCURVE",
"190 1377 CURVE SMOOTH",
"190 1347 OFFCURVE",
"193 1334 OFFCURVE",
"221 1331 CURVE SMOOTH",
"280 1326 OFFCURVE",
"357 1321 OFFCURVE",
"357 1255 CURVE",
"194 152 LINE",
"185 108 OFFCURVE",
"107 93 OFFCURVE",
"38 88 CURVE",
"11 85 OFFCURVE",
"-2 72 OFFCURVE",
"-2 51 CURVE SMOOTH",
"-4 36 OFFCURVE",
"4 0 OFFCURVE",
"27 0 CURVE SMOOTH"
);
}
);
width = 1870;
}
);
unicode = 0048;
},
{
glyphname = Hbar;
lastChange = "2018-07-18 03:33:48 +0000";
layers = (
{
layerId = "D92FDD0B-F694-41DD-AE46-0E4F694F0F38";
paths = (
{
closed = 1;
nodes = (
"168 990 OFFCURVE",
"154 953 OFFCURVE",
"151 928 CURVE",
"150 925 OFFCURVE",
"150 922 OFFCURVE",
"150 919 CURVE SMOOTH",
"150 906 OFFCURVE",
"157 895 OFFCURVE",
"170 894 CURVE",
"1699 894 LINE",
"1714 900 OFFCURVE",
"1728 937 OFFCURVE",
"1731 962 CURVE",
"1732 965 OFFCURVE",
"1732 968 OFFCURVE",
"1732 971 CURVE SMOOTH",
"1732 984 OFFCURVE",
"1725 995 OFFCURVE",
"1712 996 CURVE",
"182 996 LINE",
"183 996 LINE {name = hr00;}"
);
},
{
closed = 1;
nodes = (
"1194 108 OFFCURVE",
"1111 93 OFFCURVE",
"1046 88 CURVE",
"1017 85 OFFCURVE",
"1009 70 OFFCURVE",
"1009 47 CURVE SMOOTH",
"1009 31 OFFCURVE",
"1020 0 OFFCURVE",
"1041 0 CURVE SMOOTH",
"1546 0 LINE SMOOTH",
"1569 0 OFFCURVE",
"1580 36 OFFCURVE",
"1582 51 CURVE SMOOTH",
"1585 81 OFFCURVE",
"1577 85 OFFCURVE",
"1550 88 CURVE SMOOTH",
"1493 93 OFFCURVE",
"1409 98 OFFCURVE",
"1409 171 CURVE SMOOTH",
"1409 176 OFFCURVE",
"1409 180 OFFCURVE",
"1410 185 CURVE SMOOTH",
"1551 1267 LINE",
"1556 1311 OFFCURVE",
"1639 1326 OFFCURVE",
"1703 1331 CURVE",
"1729 1334 OFFCURVE",
"1738 1347 OFFCURVE",
"1741 1368 CURVE",
"1742 1383 OFFCURVE",
"1736 1419 OFFCURVE",
"1713 1419 CURVE SMOOTH",
"1208 1419 LINE SMOOTH",
"1185 1419 OFFCURVE",
"1169 1383 OFFCURVE",
"1168 1368 CURVE",
"1167 1363 OFFCURVE",
"1167 1359 OFFCURVE",
"1167 1355 CURVE SMOOTH",
"1167 1337 OFFCURVE",
"1176 1333 OFFCURVE",
"1199 1331 CURVE SMOOTH",
"1257 1326 OFFCURVE",
"1340 1321 OFFCURVE",
"1340 1248 CURVE SMOOTH",
"1340 1243 OFFCURVE",
"1340 1239 OFFCURVE",
"1339 1234 CURVE",
"1199 152 LINE"
);
},
{
closed = 1;
nodes = (
"422 652 LINE",
"421 566 LINE",
"1335 566 LINE",
"1334 652 LINE"
);
},
{
closed = 1;
nodes = (
"631 1311 OFFCURVE",
"714 1326 OFFCURVE",
"778 1331 CURVE",
"804 1334 OFFCURVE",
"813 1347 OFFCURVE",
"816 1368 CURVE",
"817 1383 OFFCURVE",
"811 1419 OFFCURVE",
"788 1419 CURVE SMOOTH",
"293 1419 LINE SMOOTH",
"270 1419 OFFCURVE",
"254 1383 OFFCURVE",
"253 1368 CURVE",
"252 1363 OFFCURVE",
"252 1359 OFFCURVE",
"252 1355 CURVE SMOOTH",
"252 1337 OFFCURVE",
"261 1333 OFFCURVE",
"284 1331 CURVE SMOOTH",
"341 1326 OFFCURVE",
"415 1321 OFFCURVE",
"415 1249 CURVE SMOOTH",
"415 1244 OFFCURVE",
"415 1239 OFFCURVE",
"414 1234 CURVE SMOOTH",
"274 152 LINE",
"269 108 OFFCURVE",
"196 93 OFFCURVE",
"131 88 CURVE",
"102 85 OFFCURVE",
"94 70 OFFCURVE",
"94 47 CURVE SMOOTH",
"94 31 OFFCURVE",
"105 0 OFFCURVE",
"126 0 CURVE SMOOTH",
"621 0 LINE SMOOTH",
"644 0 OFFCURVE",
"655 36 OFFCURVE",
"657 51 CURVE SMOOTH",
"660 81 OFFCURVE",
"652 85 OFFCURVE",
"625 88 CURVE SMOOTH",
"568 93 OFFCURVE",
"484 98 OFFCURVE",
"484 171 CURVE SMOOTH",
"484 176 OFFCURVE",
"484 180 OFFCURVE",
"485 185 CURVE SMOOTH",
"626 1267 LINE"
);
}
);
width = 1669;
},
{
layerId = "BDB4B313-38B1-4B24-B843-560B185382BD";
paths = (
{
closed = 1;
nodes = (
"1877 911 OFFCURVE",
"1890 937 OFFCURVE",
"1890 964 CURVE SMOOTH",
"1890 980 OFFCURVE",
"1884 1001 OFFCURVE",
"1871 1002 CURVE",
"154 1002 LINE",
"139 996 OFFCURVE",
"126 964 OFFCURVE",
"123 939 CURVE SMOOTH",
"122 923 OFFCURVE",
"128 906 OFFCURVE",
"144 905 CURVE",
"1861 905 LINE"
);
},
{
closed = 1;
nodes = (
"739 1311 OFFCURVE",
"821 1326 OFFCURVE",
"887 1331 CURVE",
"913 1334 OFFCURVE",
"922 1347 OFFCURVE",
"925 1368 CURVE",
"926 1371 OFFCURVE",
"926 1374 OFFCURVE",
"926 1378 CURVE SMOOTH",
"926 1395 OFFCURVE",
"919 1419 OFFCURVE",
"900 1419 CURVE SMOOTH",
"275 1419 LINE SMOOTH",
"252 1419 OFFCURVE",
"236 1383 OFFCURVE",
"232 1368 CURVE",
"231 1363 OFFCURVE",
"231 1359 OFFCURVE",
"231 1355 CURVE SMOOTH",
"231 1337 OFFCURVE",
"240 1333 OFFCURVE",
"263 1331 CURVE",
"322 1326 OFFCURVE",
"399 1321 OFFCURVE",
"399 1255 CURVE SMOOTH",
"399 1248 OFFCURVE",
"398 1241 OFFCURVE",
"397 1234 CURVE",
"228 152 LINE",
"219 108 OFFCURVE",
"141 93 OFFCURVE",
"72 88 CURVE",
"45 85 OFFCURVE",
"37 72 OFFCURVE",
"32 51 CURVE",
"30 36 OFFCURVE",
"38 0 OFFCURVE",
"61 0 CURVE SMOOTH",
"686 0 LINE SMOOTH",
"709 0 OFFCURVE",
"723 36 OFFCURVE",
"725 51 CURVE",
"726 57 OFFCURVE",
"727 62 OFFCURVE",
"727 66 CURVE SMOOTH",
"727 83 OFFCURVE",
"717 86 OFFCURVE",
"696 88 CURVE SMOOTH",
"641 93 OFFCURVE",
"560 98 OFFCURVE",
"560 165 CURVE SMOOTH",
"560 171 OFFCURVE",
"561 178 OFFCURVE",
"562 185 CURVE",
"731 1267 LINE"
);
},
{
closed = 1;
nodes = (
"1205 108 OFFCURVE",
"1122 93 OFFCURVE",
"1057 88 CURVE",
"1030 85 OFFCURVE",
"1022 72 OFFCURVE",
"1017 51 CURVE",
"1015 36 OFFCURVE",
"1023 0 OFFCURVE",
"1046 0 CURVE SMOOTH",
"1691 0 LINE SMOOTH",
"1714 0 OFFCURVE",
"1729 36 OFFCURVE",
"1730 51 CURVE",
"1731 57 OFFCURVE",
"1732 62 OFFCURVE",
"1732 66 CURVE SMOOTH",
"1732 83 OFFCURVE",
"1722 86 OFFCURVE",
"1701 88 CURVE",
"1638 93 OFFCURVE",
"1545 98 OFFCURVE",
"1545 166 CURVE SMOOTH",
"1545 172 OFFCURVE",
"1545 178 OFFCURVE",
"1547 185 CURVE",
"1716 1267 LINE",
"1722 1311 OFFCURVE",
"1794 1326 OFFCURVE",
"1852 1331 CURVE SMOOTH",
"1882 1334 OFFCURVE",
"1891 1351 OFFCURVE",
"1891 1377 CURVE SMOOTH",
"1891 1394 OFFCURVE",
"1884 1419 OFFCURVE",
"1865 1419 CURVE SMOOTH",
"1260 1419 LINE SMOOTH",
"1237 1419 OFFCURVE",
"1221 1383 OFFCURVE",
"1217 1368 CURVE",
"1216 1363 OFFCURVE",
"1216 1359 OFFCURVE",
"1216 1355 CURVE SMOOTH",
"1216 1337 OFFCURVE",
"1225 1333 OFFCURVE",
"1248 1331 CURVE",
"1310 1326 OFFCURVE",
"1384 1320 OFFCURVE",
"1384 1253 CURVE SMOOTH",
"1384 1247 OFFCURVE",
"1383 1241 OFFCURVE",
"1382 1234 CURVE",
"1213 152 LINE"
);
},
{
closed = 1;
nodes = (
"1347 554 LINE",
"1347 650 LINE",
"570 650 LINE",
"570 554 LINE"
);
}
);
width = 1870;
}
);
unicode = 0126;
},
{
color = 4;
glyphname = I;
lastChange = "2018-07-18 04:20:25 +0000";
layers = (
{
anchors = (
{
name = bottom;
position = "{329, 0}";
},
{
name = btm;
position = "{423, -170}";
},
{
name = ogonek;
position = "{650, 10}";
},
{
name = top;
position = "{482, 1419}";
},
{
name = topleft;
position = "{150, 1419}";
}
);
layerId = "D92FDD0B-F694-41DD-AE46-0E4F694F0F38";
paths = (
{
closed = 1;
nodes = (
"22 26 OFFCURVE",
"27 0 OFFCURVE",
"47 0 CURVE SMOOTH",
"552 0 LINE SMOOTH",
"575 0 OFFCURVE",
"591 36 OFFCURVE",
"593 51 CURVE SMOOTH",
"594 56 OFFCURVE",
"594 60 OFFCURVE",
"594 63 CURVE SMOOTH",
"594 82 OFFCURVE",
"585 85 OFFCURVE",
"562 88 CURVE SMOOTH",
"506 93 OFFCURVE",
"423 98 OFFCURVE",
"423 169 CURVE SMOOTH",
"423 174 OFFCURVE",
"423 179 OFFCURVE",
"424 185 CURVE SMOOTH",
"571 1267 LINE SMOOTH",
"581 1311 OFFCURVE",
"662 1326 OFFCURVE",
"727 1331 CURVE SMOOTH",
"753 1334 OFFCURVE",
"764 1347 OFFCURVE",
"767 1368 CURVE SMOOTH",
"767 1383 OFFCURVE",
"765 1419 OFFCURVE",
"742 1419 CURVE SMOOTH",
"237 1419 LINE SMOOTH",
"214 1419 OFFCURVE",
"194 1383 OFFCURVE",
"194 1368 CURVE SMOOTH",
"193 1362 OFFCURVE",
"192 1356 OFFCURVE",
"192 1352 CURVE SMOOTH",
"192 1336 OFFCURVE",
"201 1333 OFFCURVE",
"223 1331 CURVE SMOOTH",
"279 1326 OFFCURVE",
"362 1321 OFFCURVE",
"362 1249 CURVE SMOOTH",
"362 1244 OFFCURVE",
"362 1239 OFFCURVE",
"361 1234 CURVE SMOOTH",
"212 152 LINE SMOOTH",
"208 108 OFFCURVE",
"123 93 OFFCURVE",
"58 88 CURVE SMOOTH",
"29 85 OFFCURVE",
"22 69 OFFCURVE",
"22 43 CURVE SMOOTH {name = hr00;}"
);
}
);
width = 798;
},
{
anchors = (
{
name = bottom;
position = "{392, 0}";
},
{
name = btm;
position = "{257, -170}";
},
{
name = ogonek;
position = "{763, 10}";
},
{
name = top;
position = "{544, 1419}";
},
{
name = topleft;
position = "{150, 1419}";
}
);
layerId = "BDB4B313-38B1-4B24-B843-560B185382BD";
paths = (
{
closed = 1;
nodes = (
"12 24 OFFCURVE",
"17 0 OFFCURVE",
"36 0 CURVE SMOOTH",
"691 0 LINE SMOOTH",
"714 0 OFFCURVE",
"732 36 OFFCURVE",
"734 51 CURVE SMOOTH",
"735 57 OFFCURVE",
"736 62 OFFCURVE",
"736 66 CURVE SMOOTH",
"736 83 OFFCURVE",
"726 86 OFFCURVE",
"705 88 CURVE SMOOTH",
"650 93 OFFCURVE",
"559 98 OFFCURVE",
"559 167 CURVE SMOOTH",
"559 172 OFFCURVE",
"560 178 OFFCURVE",
"561 185 CURVE SMOOTH",
"702 1267 LINE SMOOTH",
"713 1311 OFFCURVE",
"783 1326 OFFCURVE",
"851 1331 CURVE SMOOTH",
"881 1334 OFFCURVE",
"892 1351 OFFCURVE",
"892 1378 CURVE SMOOTH",
"892 1395 OFFCURVE",
"887 1419 OFFCURVE",
"868 1419 CURVE SMOOTH",
"223 1419 LINE SMOOTH",
"200 1419 OFFCURVE",
"180 1383 OFFCURVE",
"178 1368 CURVE SMOOTH",
"177 1362 OFFCURVE",
"176 1356 OFFCURVE",
"176 1352 CURVE SMOOTH",
"176 1336 OFFCURVE",
"185 1333 OFFCURVE",
"207 1331 CURVE SMOOTH",
"263 1326 OFFCURVE",
"352 1321 OFFCURVE",
"352 1252 CURVE SMOOTH",
"352 1246 OFFCURVE",
"351 1240 OFFCURVE",
"350 1234 CURVE SMOOTH",
"207 152 LINE SMOOTH",
"201 108 OFFCURVE",
"116 93 OFFCURVE",
"51 88 CURVE SMOOTH",
"21 85 OFFCURVE",
"12 68 OFFCURVE",
"12 41 CURVE SMOOTH"
);
}
);
width = 923;
}
);
unicode = 0049;
},
{
color = 4;
glyphname = J;
lastChange = "2018-07-18 04:20:46 +0000";
layers = (
{
anchors = (
{
name = bottom;
position = "{460, 0}";
},
{
name = btm;
position = "{566, -170}";
},
{
name = top;
position = "{842, 1419}";
}
);
layerId = "D92FDD0B-F694-41DD-AE46-0E4F694F0F38";
paths = (
{
closed = 1;
nodes = (
"526 -30 OFFCURVE",
"759 48 OFFCURVE",
"807 439 CURVE SMOOTH",
"915 1267 LINE SMOOTH",
"922 1311 OFFCURVE",
"1019 1325 OFFCURVE",
"1079 1331 CURVE SMOOTH",
"1105 1333 OFFCURVE",
"1119 1350 OFFCURVE",
"1119 1372 CURVE SMOOTH",
"1117 1389 OFFCURVE",
"1112 1419 OFFCURVE",
"1091 1419 CURVE SMOOTH",
"546 1419 LINE SMOOTH",
"524 1419 OFFCURVE",
"506 1385 OFFCURVE",
"506 1369 CURVE SMOOTH",
"506 1363 OFFCURVE",
"504 1357 OFFCURVE",
"504 1352 CURVE SMOOTH",
"504 1337 OFFCURVE",
"513 1333 OFFCURVE",
"535 1331 CURVE SMOOTH",
"603 1326 OFFCURVE",
"714 1320 OFFCURVE",
"707 1248 CURVE SMOOTH",
"594 406 LINE SMOOTH",
"565 161 OFFCURVE",
"468 59 OFFCURVE",
"327 59 CURVE SMOOTH",
"258 59 OFFCURVE",
"206 82 OFFCURVE",
"172 113 CURVE",
"209 378 LINE",
"209 418 OFFCURVE",
"164 433 OFFCURVE",
"140 433 CURVE SMOOTH",
"79 433 OFFCURVE",
"-28 397 OFFCURVE",
"-28 260 CURVE SMOOTH",
"-28 69 OFFCURVE",
"144 -30 OFFCURVE",
"326 -30 CURVE SMOOTH {name = hr01;}"
);
}
);
width = 1060;
},
{
anchors = (
{
name = bottom;
position = "{540, 0}";
},
{
name = btm;
position = "{512, -170}";
},
{
name = top;
position = "{962, 1419}";
}
);
layerId = "BDB4B313-38B1-4B24-B843-560B185382BD";
paths = (
{
closed = 1;
nodes = (
"663 -30 OFFCURVE",
"930 48 OFFCURVE",
"1007 439 CURVE SMOOTH",
"1125 1267 LINE SMOOTH",
"1131 1311 OFFCURVE",
"1248 1325 OFFCURVE",
"1308 1331 CURVE SMOOTH",
"1333 1333 OFFCURVE",
"1348 1350 OFFCURVE",
"1348 1372 CURVE SMOOTH",
"1348 1389 OFFCURVE",
"1343 1419 OFFCURVE",
"1322 1419 CURVE SMOOTH",
"577 1419 LINE SMOOTH",
"547 1419 OFFCURVE",
"543 1375 OFFCURVE",
"543 1352 CURVE SMOOTH",
"543 1337 OFFCURVE",
"552 1332 OFFCURVE",
"574 1331 CURVE SMOOTH",
"732 1326 OFFCURVE",
"782 1323 OFFCURVE",
"782 1259 CURVE SMOOTH",
"782 1254 OFFCURVE",
"782 1239 OFFCURVE",
"781 1234 CURVE SMOOTH",
"661 406 LINE SMOOTH",
"624 134 OFFCURVE",
"556 59 OFFCURVE",
"420 59 CURVE SMOOTH",
"341 59 OFFCURVE",
"271 104 OFFCURVE",
"271 177 CURVE",
"313 447 LINE",
"313 487 OFFCURVE",
"258 532 OFFCURVE",
"188 532 CURVE SMOOTH",
"33 532 OFFCURVE",
"-27 425 OFFCURVE",
"-27 318 CURVE SMOOTH",
"-27 53 OFFCURVE",
"235 -30 OFFCURVE",
"415 -30 CURVE SMOOTH"
);
}
);
width = 1219;
}
);
unicode = 004A;
},
{
color = 4;
glyphname = K;
lastChange = "2018-07-18 03:37:32 +0000";
layers = (
{
anchors = (
{
name = bottom;
position = "{641, 0}";
},
{
name = btm;
position = "{722, -170}";
},
{
name = top;
position = "{989, 1700}";
}
);
layerId = "D92FDD0B-F694-41DD-AE46-0E4F694F0F38";
paths = (
{
closed = 1;
nodes = (
"61 28 OFFCURVE",
"71 0 OFFCURVE",
"91 0 CURVE SMOOTH",
"586 0 LINE SMOOTH",
"609 0 OFFCURVE",
"622 36 OFFCURVE",
"625 51 CURVE SMOOTH",
"627 81 OFFCURVE",
"619 85 OFFCURVE",
"592 88 CURVE SMOOTH",
"532 93 OFFCURVE",
"438 99 OFFCURVE",
"447 185 CURVE SMOOTH",
"597 1267 LINE SMOOTH",
"605 1311 OFFCURVE",
"675 1326 OFFCURVE",
"740 1331 CURVE",
"766 1334 OFFCURVE",
"776 1347 OFFCURVE",
"780 1368 CURVE SMOOTH",
"779 1383 OFFCURVE",
"775 1419 OFFCURVE",
"752 1419 CURVE SMOOTH",
"257 1419 LINE SMOOTH",
"235 1419 OFFCURVE",
"217 1385 OFFCURVE",
"217 1369 CURVE SMOOTH",
"217 1363 OFFCURVE",
"215 1357 OFFCURVE",
"215 1353 CURVE SMOOTH",
"215 1336 OFFCURVE",
"224 1333 OFFCURVE",
"246 1331 CURVE SMOOTH",
"306 1326 OFFCURVE",
"396 1320 OFFCURVE",
"387 1234 CURVE SMOOTH",
"237 152 LINE SMOOTH",
"233 108 OFFCURVE",
"163 94 OFFCURVE",
"98 88 CURVE SMOOTH",
"68 85 OFFCURVE",
"61 69 OFFCURVE",
"61 45 CURVE SMOOTH {name = hr00;}"
);
},
{
closed = 1;
nodes = (
"700 674 OFFCURVE",
"902 237 OFFCURVE",
"1038 70 CURVE SMOOTH",
"1067 37 OFFCURVE",
"1101 0 OFFCURVE",
"1172 0 CURVE SMOOTH",
"1404 0 LINE SMOOTH",
"1426 0 OFFCURVE",
"1436 17 OFFCURVE",
"1439 32 CURVE SMOOTH",
"1441 62 OFFCURVE",
"1438 86 OFFCURVE",
"1410 89 CURVE SMOOTH",
"1319 99 OFFCURVE",
"1196 245 OFFCURVE",
"1141 317 CURVE SMOOTH",
"1032 464 OFFCURVE",
"887 684 OFFCURVE",
"772 767 CURVE",
"1279 1263 LINE SMOOTH",
"1331 1313 OFFCURVE",
"1406 1330 OFFCURVE",
"1474 1330 CURVE SMOOTH",
"1496 1330 OFFCURVE",
"1510 1343 OFFCURVE",
"1515 1367 CURVE SMOOTH",
"1514 1382 OFFCURVE",
"1510 1418 OFFCURVE",
"1487 1418 CURVE SMOOTH",
"1055 1418 LINE SMOOTH",
"1033 1418 OFFCURVE",
"1015 1384 OFFCURVE",
"1015 1368 CURVE SMOOTH",
"1015 1363 OFFCURVE",
"1013 1357 OFFCURVE",
"1013 1353 CURVE SMOOTH",
"1013 1340 OFFCURVE",
"1019 1332 OFFCURVE",
"1038 1330 CURVE SMOOTH",
"1073 1327 OFFCURVE",
"1148 1322 OFFCURVE",
"1148 1295 CURVE SMOOTH",
"1148 1290 OFFCURVE",
"1145 1283 OFFCURVE",
"1138 1276 CURVE SMOOTH",
"557 692 LINE"
);
}
);
width = 1422;
},
{
anchors = (
{
name = bottom;
position = "{767, 0}";
},
{
name = btm;
position = "{758, -170}";
},
{
name = top;
position = "{1022, 1700}";
}
);
layerId = "BDB4B313-38B1-4B24-B843-560B185382BD";
paths = (
{
closed = 1;
nodes = (
"2 36 OFFCURVE",
"9 0 OFFCURVE",
"32 0 CURVE SMOOTH",
"687 0 LINE SMOOTH",
"709 0 OFFCURVE",
"725 36 OFFCURVE",
"728 51 CURVE",
"729 56 OFFCURVE",
"729 60 OFFCURVE",
"729 63 CURVE SMOOTH",
"729 82 OFFCURVE",
"720 85 OFFCURVE",
"697 88 CURVE",
"627 93 OFFCURVE",
"539 98 OFFCURVE",
"539 169 CURVE SMOOTH",
"539 174 OFFCURVE",
"539 179 OFFCURVE",
"540 185 CURVE SMOOTH",
"692 1267 LINE SMOOTH",
"699 1312 OFFCURVE",
"769 1325 OFFCURVE",
"837 1331 CURVE SMOOTH",
"863 1333 OFFCURVE",
"873 1347 OFFCURVE",
"877 1368 CURVE",
"878 1383 OFFCURVE",
"874 1419 OFFCURVE",
"851 1419 CURVE SMOOTH",
"226 1419 LINE SMOOTH",
"203 1419 OFFCURVE",
"185 1383 OFFCURVE",
"184 1368 CURVE",
"183 1362 OFFCURVE",
"182 1357 OFFCURVE",
"182 1353 CURVE SMOOTH",
"182 1336 OFFCURVE",
"191 1333 OFFCURVE",
"213 1331 CURVE SMOOTH",
"269 1326 OFFCURVE",
"351 1321 OFFCURVE",
"351 1251 CURVE SMOOTH",
"351 1246 OFFCURVE",
"351 1240 OFFCURVE",
"350 1234 CURVE SMOOTH",
"198 152 LINE SMOOTH",
"191 108 OFFCURVE",
"108 94 OFFCURVE",
"43 88 CURVE SMOOTH",
"16 85 OFFCURVE",
"7 72 OFFCURVE",
"5 51 CURVE"
);
},
{
closed = 1;
nodes = (
"751 625 OFFCURVE",
"842 495 OFFCURVE",
"1069 70 CURVE SMOOTH",
"1084 41 OFFCURVE",
"1102 0 OFFCURVE",
"1169 0 CURVE SMOOTH",
"1587 0 LINE SMOOTH",
"1609 0 OFFCURVE",
"1621 17 OFFCURVE",
"1624 32 CURVE SMOOTH",
"1625 39 OFFCURVE",
"1626 46 OFFCURVE",
"1626 53 CURVE SMOOTH",
"1626 72 OFFCURVE",
"1619 87 OFFCURVE",
"1597 89 CURVE SMOOTH",
"1502 99 OFFCURVE",
"1398 244 OFFCURVE",
"1346 317 CURVE SMOOTH",
"1277 415 OFFCURVE",
"1200 554 OFFCURVE",
"966 846 CURVE",
"1340 1211 LINE SMOOTH",
"1374 1245 OFFCURVE",
"1470 1330 OFFCURVE",
"1631 1330 CURVE SMOOTH",
"1653 1330 OFFCURVE",
"1667 1343 OFFCURVE",
"1672 1367 CURVE",
"1673 1382 OFFCURVE",
"1669 1418 OFFCURVE",
"1646 1418 CURVE SMOOTH",
"1124 1418 LINE SMOOTH",
"1101 1418 OFFCURVE",
"1083 1382 OFFCURVE",
"1082 1367 CURVE",
"1081 1362 OFFCURVE",
"1080 1357 OFFCURVE",
"1080 1353 CURVE SMOOTH",
"1080 1340 OFFCURVE",
"1086 1332 OFFCURVE",
"1105 1330 CURVE SMOOTH",
"1175 1324 OFFCURVE",
"1234 1303 OFFCURVE",
"1234 1275 CURVE SMOOTH",
"1234 1266 OFFCURVE",
"1230 1256 OFFCURVE",
"1219 1246 CURVE SMOOTH",
"668 692 LINE"
);
}
);
width = 1673;
}
);
unicode = 004B;
},
{
color = 4;
glyphname = L;
lastChange = "2018-07-18 04:21:02 +0000";
layers = (
{
anchors = (
{
name = bottom;
position = "{548, 0}";
},
{
name = btm;
position = "{591, -170}";
},
{
name = center;
position = "{648, 710}";
},
{
name = top;
position = "{524, 1419}";
},
{
name = topright;
position = "{1346, 1419}";
}
);
layerId = "D92FDD0B-F694-41DD-AE46-0E4F694F0F38";
paths = (
{
closed = 1;
nodes = (
"51 28 OFFCURVE",
"61 0 OFFCURVE",
"81 0 CURVE SMOOTH",
"1092 0 LINE",
"1193 439 LINE SMOOTH",
"1196 462 OFFCURVE",
"1170 473 OFFCURVE",
"1145 473 CURVE SMOOTH",
"1124 473 OFFCURVE",
"1104 464 OFFCURVE",
"1095 440 CURVE SMOOTH",
"1025 296 OFFCURVE",
"977 101 OFFCURVE",
"794 101 CURVE SMOOTH",
"524 101 LINE SMOOTH",
"483 102 OFFCURVE",
"448 114 OFFCURVE",
"448 163 CURVE SMOOTH",
"448 167 OFFCURVE",
"448 172 OFFCURVE",
"449 177 CURVE SMOOTH",
"590 1237 LINE SMOOTH",
"603 1311 OFFCURVE",
"702 1331 OFFCURVE",
"776 1331 CURVE SMOOTH",
"801 1331 OFFCURVE",
"812 1347 OFFCURVE",
"816 1368 CURVE SMOOTH",
"815 1383 OFFCURVE",
"811 1419 OFFCURVE",
"788 1419 CURVE SMOOTH",
"253 1419 LINE SMOOTH",
"231 1419 OFFCURVE",
"213 1385 OFFCURVE",
"213 1369 CURVE SMOOTH",
"213 1363 OFFCURVE",
"211 1357 OFFCURVE",
"211 1353 CURVE SMOOTH",
"211 1336 OFFCURVE",
"220 1333 OFFCURVE",
"242 1331 CURVE SMOOTH",
"302 1326 OFFCURVE",
"392 1320 OFFCURVE",
"383 1234 CURVE SMOOTH",
"241 152 LINE SMOOTH",
"237 108 OFFCURVE",
"153 94 OFFCURVE",
"88 88 CURVE SMOOTH",
"58 85 OFFCURVE",
"51 69 OFFCURVE",
"51 45 CURVE SMOOTH {name = hr00;}"
);
}
);
width = 1236;
},
{
anchors = (
{
name = bottom;
position = "{632, 0}";
},
{
name = btm;
position = "{639, -170}";
},
{
name = center;
position = "{732, 710}";
},
{
name = top;
position = "{567, 1419}";
},
{
name = topright;
position = "{1514, 1419}";
}
);
layerId = "BDB4B313-38B1-4B24-B843-560B185382BD";
paths = (
{
closed = 1;
nodes = (
"14 26 OFFCURVE",
"22 0 OFFCURVE",
"42 0 CURVE SMOOTH",
"1233 0 LINE",
"1348 497 LINE SMOOTH",
"1354 520 OFFCURVE",
"1311 531 OFFCURVE",
"1282 531 CURVE SMOOTH",
"1261 531 OFFCURVE",
"1231 522 OFFCURVE",
"1220 498 CURVE SMOOTH",
"1146 354 OFFCURVE",
"1029 101 OFFCURVE",
"909 101 CURVE SMOOTH",
"639 101 LINE SMOOTH",
"599 102 OFFCURVE",
"567 113 OFFCURVE",
"567 159 CURVE SMOOTH",
"567 165 OFFCURVE",
"567 170 OFFCURVE",
"568 177 CURVE SMOOTH",
"707 1237 LINE SMOOTH",
"720 1311 OFFCURVE",
"809 1331 OFFCURVE",
"877 1331 CURVE SMOOTH",
"903 1331 OFFCURVE",
"913 1347 OFFCURVE",
"917 1368 CURVE SMOOTH",
"918 1383 OFFCURVE",
"914 1419 OFFCURVE",
"891 1419 CURVE SMOOTH",
"226 1419 LINE SMOOTH",
"203 1419 OFFCURVE",
"185 1383 OFFCURVE",
"184 1368 CURVE SMOOTH",
"183 1362 OFFCURVE",
"182 1357 OFFCURVE",
"182 1353 CURVE SMOOTH",
"182 1336 OFFCURVE",
"191 1333 OFFCURVE",
"213 1331 CURVE SMOOTH",
"269 1326 OFFCURVE",
"351 1321 OFFCURVE",
"351 1250 CURVE SMOOTH",
"351 1245 OFFCURVE",
"351 1240 OFFCURVE",
"350 1234 CURVE SMOOTH",
"208 152 LINE SMOOTH",
"202 108 OFFCURVE",
"118 94 OFFCURVE",
"53 88 CURVE SMOOTH",
"23 85 OFFCURVE",
"14 69 OFFCURVE",
"14 43 CURVE SMOOTH"
);
}
);
width = 1404;
}
);
unicode = 004C;
},
{
glyphname = Lslash;
lastChange = "2018-07-18 03:33:48 +0000";
layers = (
{
components = (
{
name = L;
transform = "{1, 0, 0, 1, 37, 0}";
}
);
layerId = "D92FDD0B-F694-41DD-AE46-0E4F694F0F38";
paths = (
{
closed = 1;
nodes = (
"870 853 LINE",
"831 941 LINE",
"109 640 LINE",
"148 552 LINE {name = hr00;}"
);
}
);
width = 1236;
},
{
components = (
{
name = L;
transform = "{1, 0, 0, 1, 5, 0}";
}
);
layerId = "BDB4B313-38B1-4B24-B843-560B185382BD";
paths = (
{
closed = 1;
nodes = (
"1070 854 OFFCURVE",
"1072 863 OFFCURVE",
"1072 874 CURVE SMOOTH",
"1072 891 OFFCURVE",
"1068 913 OFFCURVE",
"1062 927 CURVE SMOOTH",
"1056 942 OFFCURVE",
"1042 955 OFFCURVE",
"1027 950 CURVE",
"73 630 LINE",
"67 624 OFFCURVE",
"64 613 OFFCURVE",
"64 601 CURVE SMOOTH",
"64 592 OFFCURVE",
"66 582 OFFCURVE",
"70 572 CURVE SMOOTH",
"76 557 OFFCURVE",
"97 525 OFFCURVE",
"112 530 CURVE",
"1066 850 LINE"
);
}
);
width = 1404;
}
);
unicode = 0141;
},
{
color = 4;
glyphname = M;
lastChange = "2018-07-18 04:12:29 +0000";
layers = (
{
anchors = (
{
name = bottom;
position = "{867, 0}";
},
{
name = top;
position = "{1108, 1419}";
}
);
layerId = "D92FDD0B-F694-41DD-AE46-0E4F694F0F38";
paths = (
{
closed = 1;
nodes = (
"846 1 LINE",
"850 0 LINE",
"900 0 LINE",
"1501 1281 LINE",
"1530 1281 LINE",
"1453 152 LINE SMOOTH",
"1450 108 OFFCURVE",
"1326 93 OFFCURVE",
"1261 88 CURVE",
"1232 85 OFFCURVE",
"1225 70 OFFCURVE",
"1225 46 CURVE SMOOTH",
"1225 29 OFFCURVE",
"1233 0 OFFCURVE",
"1254 0 CURVE SMOOTH",
"1829 0 LINE SMOOTH",
"1852 0 OFFCURVE",
"1866 36 OFFCURVE",
"1868 51 CURVE SMOOTH",
"1870 81 OFFCURVE",
"1862 85 OFFCURVE",
"1835 88 CURVE SMOOTH",
"1775 93 OFFCURVE",
"1658 99 OFFCURVE",
"1663 175 CURVE SMOOTH",
"1733 1267 LINE SMOOTH",
"1738 1311 OFFCURVE",
"1842 1326 OFFCURVE",
"1907 1331 CURVE",
"1933 1334 OFFCURVE",
"1942 1347 OFFCURVE",
"1945 1368 CURVE SMOOTH",
"1945 1383 OFFCURVE",
"1941 1419 OFFCURVE",
"1918 1419 CURVE SMOOTH",
"1460 1419 LINE",
"1445 1373 OFFCURVE",
"1420 1326 OFFCURVE",
"1387 1246 CURVE",
"976 376 LINE",
"964 376 LINE",
"751 1419 LINE",
"237 1419 LINE",
"212 1418 OFFCURVE",
"196 1383 OFFCURVE",
"196 1368 CURVE SMOOTH",
"195 1363 OFFCURVE",
"195 1359 OFFCURVE",
"195 1355 CURVE SMOOTH",
"195 1337 OFFCURVE",
"204 1333 OFFCURVE",
"227 1331 CURVE",
"296 1326 OFFCURVE",
"419 1320 OFFCURVE",
"419 1245 CURVE SMOOTH",
"419 1242 OFFCURVE",
"419 1238 OFFCURVE",
"418 1234 CURVE SMOOTH",
"214 184 LINE SMOOTH",
"201 101 OFFCURVE",
"88 93 OFFCURVE",
"12 88 CURVE",
"-18 85 OFFCURVE",
"-23 69 OFFCURVE",
"-23 43 CURVE SMOOTH",
"-23 26 OFFCURVE",
"-18 0 OFFCURVE",
"1 0 CURVE SMOOTH",
"496 0 LINE SMOOTH",
"519 0 OFFCURVE",
"533 36 OFFCURVE",
"535 51 CURVE SMOOTH",
"537 81 OFFCURVE",
"529 85 OFFCURVE",
"502 88 CURVE",
"434 93 OFFCURVE",
"319 99 OFFCURVE",
"319 173 CURVE SMOOTH",
"319 177 OFFCURVE",
"319 181 OFFCURVE",
"320 185 CURVE SMOOTH",
"520 1281 LINE",
"551 1281 LINE",
"846 2 LINE",
"849 0 LINE {name = hr00;}"
);
}
);
width = 1899;
},
{
anchors = (
{
name = bottom;
position = "{912, 0}";
},
{
name = top;
position = "{1204, 1419}";
}
);
layerId = "BDB4B313-38B1-4B24-B843-560B185382BD";
paths = (
{
closed = 1;
nodes = (
"953 0 LINE",
"1549 1281 LINE",
"1578 1281 LINE",
"1490 152 LINE SMOOTH",
"1485 108 OFFCURVE",
"1361 93 OFFCURVE",
"1296 88 CURVE",
"1269 85 OFFCURVE",
"1261 72 OFFCURVE",
"1258 51 CURVE SMOOTH",
"1256 36 OFFCURVE",
"1263 0 OFFCURVE",
"1285 0 CURVE SMOOTH",
"1987 0 LINE SMOOTH",
"2009 0 OFFCURVE",
"2025 36 OFFCURVE",
"2028 51 CURVE SMOOTH",
"2029 56 OFFCURVE",
"2029 60 OFFCURVE",
"2029 63 CURVE SMOOTH",
"2029 82 OFFCURVE",
"2020 85 OFFCURVE",
"1997 88 CURVE SMOOTH",
"1937 93 OFFCURVE",
"1819 99 OFFCURVE",
"1829 185 CURVE SMOOTH",
"1908 1267 LINE SMOOTH",
"1913 1311 OFFCURVE",
"2019 1326 OFFCURVE",
"2084 1331 CURVE",
"2113 1334 OFFCURVE",
"2122 1350 OFFCURVE",
"2122 1376 CURVE SMOOTH",
"2122 1393 OFFCURVE",
"2117 1419 OFFCURVE",
"2097 1419 CURVE SMOOTH",
"1499 1419 LINE",
"1482 1373 OFFCURVE",
"1467 1326 OFFCURVE",
"1430 1246 CURVE",
"1063 484 LINE",
"1051 484 LINE",
"885 1419 LINE",
"239 1419 LINE",
"214 1418 OFFCURVE",
"198 1383 OFFCURVE",
"196 1368 CURVE SMOOTH",
"195 1363 OFFCURVE",
"195 1359 OFFCURVE",
"195 1355 CURVE SMOOTH",
"195 1337 OFFCURVE",
"204 1333 OFFCURVE",
"227 1331 CURVE",
"295 1326 OFFCURVE",
"415 1320 OFFCURVE",
"415 1248 CURVE SMOOTH",
"415 1244 OFFCURVE",
"415 1239 OFFCURVE",
"414 1234 CURVE SMOOTH",
"218 184 LINE SMOOTH",
"201 101 OFFCURVE",
"80 93 OFFCURVE",
"2 88 CURVE",
"-25 85 OFFCURVE",
"-32 72 OFFCURVE",
"-35 51 CURVE SMOOTH",
"-37 36 OFFCURVE",
"-33 0 OFFCURVE",
"-11 0 CURVE SMOOTH",
"484 0 LINE SMOOTH",
"507 0 OFFCURVE",
"523 36 OFFCURVE",
"525 51 CURVE SMOOTH",
"526 56 OFFCURVE",
"526 60 OFFCURVE",
"526 63 CURVE SMOOTH",
"526 82 OFFCURVE",
"517 85 OFFCURVE",
"494 88 CURVE",
"427 93 OFFCURVE",
"314 99 OFFCURVE",
"314 170 CURVE SMOOTH",
"314 175 OFFCURVE",
"315 180 OFFCURVE",
"316 185 CURVE SMOOTH",
"518 1281 LINE",
"554 1281 LINE",
"848 0 LINE"
);
}
);
width = 2116;
}
);
unicode = 004D;
},
{
color = 4;
glyphname = N;
lastChange = "2018-07-18 04:13:15 +0000";
layers = (
{
anchors = (
{
name = bottom;
position = "{716, 0}";
},
{
name = btm;
position = "{649, -170}";
},
{
name = top;
position = "{868, 1419}";
}
);
layerId = "D92FDD0B-F694-41DD-AE46-0E4F694F0F38";
paths = (
{
closed = 1;
nodes = (
"-47 25 OFFCURVE",
"-40 0 OFFCURVE",
"-21 0 CURVE SMOOTH",
"454 0 LINE SMOOTH",
"477 0 OFFCURVE",
"490 36 OFFCURVE",
"493 51 CURVE SMOOTH",
"494 56 OFFCURVE",
"494 60 OFFCURVE",
"494 63 CURVE SMOOTH",
"494 82 OFFCURVE",
"485 85 OFFCURVE",
"462 88 CURVE SMOOTH",
"402 93 OFFCURVE",
"265 99 OFFCURVE",
"275 165 CURVE SMOOTH",
"440 1188 LINE {name = hr02;}",
"457 1188 LINE",
"1082 -8 LINE",
"1090 -20 OFFCURVE",
"1121 -30 OFFCURVE",
"1142 -30 CURVE SMOOTH",
"1170 -30 OFFCURVE",
"1210 -16 OFFCURVE",
"1214 40 CURVE SMOOTH",
"1216 78 OFFCURVE",
"1215 88 OFFCURVE",
"1219 113 CURVE SMOOTH",
"1393 1234 LINE SMOOTH",
"1406 1320 OFFCURVE",
"1521 1325 OFFCURVE",
"1583 1331 CURVE SMOOTH",
"1609 1334 OFFCURVE",
"1619 1347 OFFCURVE",
"1623 1368 CURVE SMOOTH",
"1624 1383 OFFCURVE",
"1620 1419 OFFCURVE",
"1597 1419 CURVE SMOOTH",
"1122 1419 LINE SMOOTH",
"1099 1419 OFFCURVE",
"1081 1383 OFFCURVE",
"1080 1368 CURVE SMOOTH",
"1079 1362 OFFCURVE",
"1078 1357 OFFCURVE",
"1078 1353 CURVE SMOOTH",
"1078 1336 OFFCURVE",
"1087 1333 OFFCURVE",
"1109 1331 CURVE SMOOTH",
"1166 1326 OFFCURVE",
"1290 1321 OFFCURVE",
"1290 1245 CURVE SMOOTH",
"1290 1242 OFFCURVE",
"1290 1238 OFFCURVE",
"1289 1234 CURVE SMOOTH",
"1153 318 LINE",
"1141 318 LINE",
"555 1419 LINE",
"196 1419 LINE SMOOTH",
"173 1419 OFFCURVE",
"155 1383 OFFCURVE",
"154 1368 CURVE SMOOTH",
"153 1362 OFFCURVE",
"152 1357 OFFCURVE",
"152 1353 CURVE SMOOTH",
"152 1336 OFFCURVE",
"161 1333 OFFCURVE",
"183 1331 CURVE SMOOTH",
"239 1326 OFFCURVE",
"345 1294 OFFCURVE",
"345 1219 CURVE SMOOTH",
"345 1214 OFFCURVE",
"345 1209 OFFCURVE",
"344 1204 CURVE SMOOTH",
"166 172 LINE SMOOTH",
"157 108 OFFCURVE",
"53 93 OFFCURVE",
"-10 88 CURVE {name = hr03;}",
"-38 85 OFFCURVE",
"-47 68 OFFCURVE",
"-47 42 CURVE SMOOTH {name = hr01;}"
);
}
);
width = 1571;
},
{
anchors = (
{
name = bottom;
position = "{780, 0}";
},
{
name = btm;
position = "{807, -170}";
},
{
name = top;
position = "{1027, 1419}";
}
);
layerId = "BDB4B313-38B1-4B24-B843-560B185382BD";
paths = (
{
closed = 1;
nodes = (
"-42 48 OFFCURVE",
"-42 45 OFFCURVE",
"-42 42 CURVE SMOOTH",
"-42 25 OFFCURVE",
"-35 0 OFFCURVE",
"-16 0 CURVE SMOOTH",
"502 0 LINE SMOOTH",
"525 0 OFFCURVE",
"540 36 OFFCURVE",
"543 51 CURVE SMOOTH",
"544 57 OFFCURVE",
"545 62 OFFCURVE",
"545 66 CURVE SMOOTH",
"545 83 OFFCURVE",
"535 86 OFFCURVE",
"514 88 CURVE SMOOTH",
"457 93 OFFCURVE",
"310 98 OFFCURVE",
"310 173 CURVE SMOOTH",
"310 177 OFFCURVE",
"310 181 OFFCURVE",
"311 185 CURVE SMOOTH",
"475 1180 LINE",
"492 1180 LINE",
"1103 -8 LINE",
"1111 -20 OFFCURVE",
"1203 -30 OFFCURVE",
"1224 -30 CURVE SMOOTH",
"1301 -30 OFFCURVE",
"1365 -16 OFFCURVE",
"1382 40 CURVE SMOOTH",
"1386 78 OFFCURVE",
"1385 88 OFFCURVE",
"1389 113 CURVE SMOOTH",
"1569 1234 LINE SMOOTH",
"1587 1320 OFFCURVE",
"1719 1325 OFFCURVE",
"1780 1331 CURVE SMOOTH",
"1806 1334 OFFCURVE",
"1816 1347 OFFCURVE",
"1820 1368 CURVE SMOOTH",
"1821 1371 OFFCURVE",
"1821 1374 OFFCURVE",
"1821 1378 CURVE SMOOTH",
"1821 1395 OFFCURVE",
"1815 1419 OFFCURVE",
"1796 1419 CURVE SMOOTH",
"1271 1419 LINE SMOOTH",
"1248 1419 OFFCURVE",
"1230 1383 OFFCURVE",
"1227 1368 CURVE SMOOTH",
"1226 1362 OFFCURVE",
"1225 1357 OFFCURVE",
"1225 1353 CURVE SMOOTH",
"1225 1336 OFFCURVE",
"1234 1333 OFFCURVE",
"1256 1331 CURVE SMOOTH",
"1312 1326 OFFCURVE",
"1470 1321 OFFCURVE",
"1470 1246 CURVE SMOOTH",
"1470 1242 OFFCURVE",
"1470 1238 OFFCURVE",
"1469 1234 CURVE SMOOTH",
"1328 308 LINE",
"1316 308 LINE",
"744 1419 LINE",
"243 1419 LINE SMOOTH",
"220 1419 OFFCURVE",
"202 1383 OFFCURVE",
"199 1368 CURVE SMOOTH",
"198 1362 OFFCURVE",
"197 1357 OFFCURVE",
"197 1353 CURVE SMOOTH",
"197 1336 OFFCURVE",
"206 1333 OFFCURVE",
"228 1331 CURVE SMOOTH",
"284 1326 OFFCURVE",
"384 1295 OFFCURVE",
"384 1221 CURVE SMOOTH",
"384 1216 OFFCURVE",
"383 1210 OFFCURVE",
"382 1204 CURVE SMOOTH",
"209 172 LINE SMOOTH",
"196 108 OFFCURVE",
"62 93 OFFCURVE",
"-1 88 CURVE",
"-28 85 OFFCURVE",
"-37 72 OFFCURVE",
"-41 51 CURVE SMOOTH"
);
}
);
width = 1699;
}
);
unicode = 004E;
},
{
glyphname = Eng;
lastChange = "2018-07-18 03:33:48 +0000";
layers = (
{
anchors = (
{
name = btm;
position = "{824, -170}";
},
{
name = top;
position = "{824, 1700}";
}
);
layerId = "D92FDD0B-F694-41DD-AE46-0E4F694F0F38";
paths = (
{
closed = 1;
nodes = (
"1082 22 OFFCURVE",
"1083 15 OFFCURVE",
"1083 7 CURVE SMOOTH",
"1083 -75 OFFCURVE",
"980 -332 OFFCURVE",
"808 -332 CURVE",
"781 -256 OFFCURVE",
"768 -204 OFFCURVE",
"754 -181 CURVE",
"751 -179 OFFCURVE",
"744 -177 OFFCURVE",
"736 -177 CURVE SMOOTH",
"693 -177 OFFCURVE",
"601 -211 OFFCURVE",
"601 -304 CURVE SMOOTH",
"601 -370 OFFCURVE",
"647 -449 OFFCURVE",
"760 -449 CURVE SMOOTH",
"948 -449 OFFCURVE",
"1146 -279 OFFCURVE",
"1208 41 CURVE",
"1197 50 OFFCURVE",
"1180 58 OFFCURVE",
"1158 58 CURVE SMOOTH",
"1137 58 OFFCURVE",
"1111 50 OFFCURVE",
"1080 26 CURVE {name = hr00;}"
);
},
{
closed = 1;
nodes = (
"-47 48 OFFCURVE",
"-47 45 OFFCURVE",
"-47 42 CURVE SMOOTH",
"-47 25 OFFCURVE",
"-40 0 OFFCURVE",
"-21 0 CURVE SMOOTH",
"454 0 LINE SMOOTH",
"477 0 OFFCURVE",
"490 36 OFFCURVE",
"493 51 CURVE",
"494 56 OFFCURVE",
"494 60 OFFCURVE",
"494 63 CURVE SMOOTH",
"494 82 OFFCURVE",
"485 85 OFFCURVE",
"462 88 CURVE SMOOTH",
"402 93 OFFCURVE",
"265 99 OFFCURVE",
"275 165 CURVE SMOOTH",
"443 1188 LINE",
"460 1188 LINE",
"1080 26 LINE",
"1088 14 OFFCURVE",
"1121 -30 OFFCURVE",
"1142 -30 CURVE SMOOTH",
"1170 -30 OFFCURVE",
"1198 -14 OFFCURVE",
"1208 41 CURVE SMOOTH",
"1215 78 OFFCURVE",
"1223 88 OFFCURVE",
"1404 1234 CURVE",
"1417 1320 OFFCURVE",
"1532 1325 OFFCURVE",
"1594 1331 CURVE SMOOTH",
"1620 1334 OFFCURVE",
"1630 1347 OFFCURVE",
"1634 1368 CURVE",
"1635 1383 OFFCURVE",
"1631 1419 OFFCURVE",
"1608 1419 CURVE SMOOTH",
"1133 1419 LINE SMOOTH",
"1110 1419 OFFCURVE",
"1092 1383 OFFCURVE",
"1091 1368 CURVE",
"1090 1362 OFFCURVE",
"1089 1357 OFFCURVE",
"1089 1353 CURVE SMOOTH",
"1089 1336 OFFCURVE",
"1098 1333 OFFCURVE",
"1120 1331 CURVE SMOOTH",
"1177 1326 OFFCURVE",
"1301 1321 OFFCURVE",
"1301 1245 CURVE SMOOTH",
"1301 1242 OFFCURVE",
"1301 1238 OFFCURVE",
"1300 1234 CURVE SMOOTH",
"1153 318 LINE",
"1141 318 LINE",
"558 1419 LINE",
"199 1419 LINE SMOOTH",
"176 1419 OFFCURVE",
"158 1383 OFFCURVE",
"157 1368 CURVE",
"156 1362 OFFCURVE",
"155 1357 OFFCURVE",
"155 1353 CURVE SMOOTH",
"155 1336 OFFCURVE",
"164 1333 OFFCURVE",
"186 1331 CURVE SMOOTH",
"242 1326 OFFCURVE",
"348 1294 OFFCURVE",
"348 1219 CURVE SMOOTH",
"348 1214 OFFCURVE",
"348 1209 OFFCURVE",
"347 1204 CURVE SMOOTH",
"166 172 LINE",
"157 108 OFFCURVE",
"53 93 OFFCURVE",
"-10 88 CURVE",
"-35 85 OFFCURVE",
"-44 72 OFFCURVE",
"-46 51 CURVE"
);
}
);
width = 1571;
},
{
anchors = (
{
name = btm;
position = "{753, -170}";
},
{
name = top;
position = "{753, 1700}";
}
);
layerId = "BDB4B313-38B1-4B24-B843-560B185382BD";
paths = (
{
closed = 1;
nodes = (
"-42 48 OFFCURVE",
"-42 45 OFFCURVE",
"-42 42 CURVE SMOOTH",
"-42 25 OFFCURVE",
"-35 0 OFFCURVE",
"-16 0 CURVE SMOOTH",
"499 0 LINE SMOOTH",
"522 0 OFFCURVE",
"537 36 OFFCURVE",
"540 51 CURVE SMOOTH",
"541 57 OFFCURVE",
"542 62 OFFCURVE",
"542 66 CURVE SMOOTH",
"542 83 OFFCURVE",
"532 86 OFFCURVE",
"511 88 CURVE SMOOTH",
"454 93 OFFCURVE",
"307 98 OFFCURVE",
"307 173 CURVE SMOOTH",
"307 177 OFFCURVE",
"307 181 OFFCURVE",
"308 185 CURVE SMOOTH",
"473 1180 LINE",
"490 1180 LINE",
"1103 -8 LINE",
"1111 -20 OFFCURVE",
"1201 -30 OFFCURVE",
"1222 -30 CURVE SMOOTH",
"1299 -30 OFFCURVE",
"1365 32 OFFCURVE",
"1382 88 CURVE",
"1383 95 OFFCURVE",
"1384 106 OFFCURVE",
"1384 113 CURVE",
"1576 1234 LINE SMOOTH",
"1591 1321 OFFCURVE",
"1729 1325 OFFCURVE",
"1790 1331 CURVE SMOOTH",
"1816 1334 OFFCURVE",
"1826 1347 OFFCURVE",
"1830 1368 CURVE SMOOTH",
"1831 1371 OFFCURVE",
"1831 1374 OFFCURVE",
"1831 1378 CURVE SMOOTH",
"1831 1395 OFFCURVE",
"1825 1419 OFFCURVE",
"1806 1419 CURVE SMOOTH",
"1281 1419 LINE SMOOTH",
"1258 1419 OFFCURVE",
"1240 1383 OFFCURVE",
"1237 1368 CURVE SMOOTH",
"1236 1362 OFFCURVE",
"1235 1357 OFFCURVE",
"1235 1353 CURVE SMOOTH",
"1235 1336 OFFCURVE",
"1244 1333 OFFCURVE",
"1266 1331 CURVE SMOOTH",
"1322 1326 OFFCURVE",
"1480 1321 OFFCURVE",
"1480 1246 CURVE SMOOTH",
"1480 1242 OFFCURVE",
"1480 1238 OFFCURVE",
"1479 1234 CURVE SMOOTH",
"1326 308 LINE",
"1314 308 LINE",
"740 1419 LINE",
"241 1419 LINE SMOOTH",
"218 1419 OFFCURVE",
"200 1383 OFFCURVE",
"197 1368 CURVE SMOOTH",
"196 1362 OFFCURVE",
"195 1357 OFFCURVE",
"195 1353 CURVE SMOOTH",
"195 1336 OFFCURVE",
"204 1333 OFFCURVE",
"226 1331 CURVE SMOOTH",
"282 1326 OFFCURVE",
"385 1295 OFFCURVE",
"385 1221 CURVE SMOOTH",
"385 1215 OFFCURVE",
"384 1210 OFFCURVE",
"383 1204 CURVE SMOOTH",
"209 172 LINE SMOOTH",
"198 108 OFFCURVE",
"62 94 OFFCURVE",
"-1 88 CURVE SMOOTH",
"-28 85 OFFCURVE",
"-37 72 OFFCURVE",
"-41 51 CURVE SMOOTH"
);
},
{
closed = 1;
nodes = (
"700 -138 OFFCURVE",
"636 -202 OFFCURVE",
"636 -285 CURVE SMOOTH",
"636 -355 OFFCURVE",
"693 -449 OFFCURVE",
"848 -449 CURVE SMOOTH",
"1145 -449 OFFCURVE",
"1338 -221 OFFCURVE",
"1382 88 CURVE SMOOTH",
"1357 203 LINE",
"1358 241 OFFCURVE",
"1338 243 OFFCURVE",
"1327 243 CURVE SMOOTH",
"1262 243 OFFCURVE",
"1202 181 OFFCURVE",
"1124 117 CURVE",
"1103 -8 LINE",
"1112 -29 OFFCURVE",
"1117 -51 OFFCURVE",
"1117 -75 CURVE SMOOTH",
"1117 -183 OFFCURVE",
"1028 -313 OFFCURVE",
"891 -347 CURVE",
"839 -202 LINE SMOOTH",
"823 -158 OFFCURVE",
"801 -138 OFFCURVE",
"758 -138 CURVE SMOOTH"
);
}
);
width = 1699;
}
);
unicode = 014A;
},
{
color = 4;
glyphname = O;
lastChange = "2018-07-18 04:13:29 +0000";
layers = (
{
anchors = (
{
name = bottom;
position = "{678, 0}";
},
{
name = btm;
position = "{587, -170}";
},
{
name = center;
position = "{778, 710}";
},
{
name = ogonek;
position = "{1278, 10}";
},
{
name = top;
position = "{814, 1419}";
},
{
name = topleft;
position = "{150, 1419}";
},
{
name = topright;
position = "{1606, 1419}";
}
);
layerId = "D92FDD0B-F694-41DD-AE46-0E4F694F0F38";
paths = (
{
closed = 1;
nodes = (
"105 245 OFFCURVE",
"307 -29 OFFCURVE",
"686 -29 CURVE SMOOTH",
"1112 -29 OFFCURVE",
"1399 373 OFFCURVE",
"1399 812 CURVE SMOOTH",
"1399 824 OFFCURVE",
"1398 836 OFFCURVE",
"1398 848 CURVE SMOOTH",
"1386 1186 OFFCURVE",
"1193 1449 OFFCURVE",
"814 1449 CURVE SMOOTH",
"387 1449 OFFCURVE",
"92 1061 OFFCURVE",
"92 621 CURVE SMOOTH",
"92 609 OFFCURVE",
"93 598 OFFCURVE",
"93 586 CURVE SMOOTH {name = hr00;}"
);
},
{
closed = 1;
nodes = (
"438 65 OFFCURVE",
"343 231 OFFCURVE",
"335 499 CURVE SMOOTH",
"334 523 OFFCURVE",
"334 546 OFFCURVE",
"334 570 CURVE SMOOTH",
"334 956 OFFCURVE",
"445 1356 OFFCURVE",
"806 1356 CURVE SMOOTH",
"1056 1356 OFFCURVE",
"1144 1194 OFFCURVE",
"1152 925 CURVE SMOOTH",
"1153 901 OFFCURVE",
"1153 876 OFFCURVE",
"1153 851 CURVE SMOOTH",
"1153 467 OFFCURVE",
"1046 65 OFFCURVE",
"688 65 CURVE SMOOTH"
);
}
);
width = 1496;
},
{
anchors = (
{
name = bottom;
position = "{770, 0}";
},
{
name = btm;
position = "{682, -170}";
},
{
name = center;
position = "{870, 710}";
},
{
name = ogonek;
position = "{1443, 10}";
},
{
name = top;
position = "{952, 1419}";
},
{
name = topleft;
position = "{150, 1419}";
},
{
name = topright;
position = "{1789, 1419}";
}
);
layerId = "BDB4B313-38B1-4B24-B843-560B185382BD";
paths = (
{
closed = 1;
nodes = (
"77 249 OFFCURVE",
"286 -29 OFFCURVE",
"738 -29 CURVE SMOOTH",
"1284 -29 OFFCURVE",
"1609 390 OFFCURVE",
"1609 838 CURVE SMOOTH",
"1609 1182 OFFCURVE",
"1396 1449 OFFCURVE",
"930 1449 CURVE SMOOTH",
"396 1449 OFFCURVE",
"77 1045 OFFCURVE",
"77 596 CURVE SMOOTH"
);
},
{
closed = 1;
nodes = (
"528 65 OFFCURVE",
"445 231 OFFCURVE",
"445 499 CURVE SMOOTH",
"445 905 OFFCURVE",
"549 1356 OFFCURVE",
"932 1356 CURVE SMOOTH",
"1161 1356 OFFCURVE",
"1241 1194 OFFCURVE",
"1241 925 CURVE SMOOTH",
"1241 520 OFFCURVE",
"1137 65 OFFCURVE",
"764 65 CURVE SMOOTH"
);
}
);
width = 1679;
}
);
unicode = 004F;
},
{
color = 0;
glyphname = Ohorn;
lastChange = "2018-07-18 04:10:57 +0000";
layers = (
{
components = (
{
name = O;
}
);
layerId = "D92FDD0B-F694-41DD-AE46-0E4F694F0F38";
paths = (
{
closed = 1;
nodes = (
"1242 1322 OFFCURVE",
"1474 1398 OFFCURVE",
"1474 1633 CURVE SMOOTH",
"1474 1648 OFFCURVE",
"1472 1663 OFFCURVE",
"1469 1680 CURVE",
"1296 1680 LINE",
"1297 1671 OFFCURVE",
"1297 1659 OFFCURVE",
"1297 1644 CURVE SMOOTH",
"1297 1499 OFFCURVE",
"1181 1401 OFFCURVE",
"1022 1398 CURVE",
"1133 1322 LINE"
);
}
);
width = 1496;
},
{
components = (
{
name = O;
}
);
layerId = "BDB4B313-38B1-4B24-B843-560B185382BD";
paths = (
{
closed = 1;
nodes = (
"1432 1329 OFFCURVE",
"1650 1421 OFFCURVE",
"1650 1627 CURVE SMOOTH",
"1650 1645 OFFCURVE",
"1647 1717 OFFCURVE",
"1644 1738 CURVE",
"1428 1738 LINE",
"1430 1727 OFFCURVE",
"1430 1712 OFFCURVE",
"1430 1694 CURVE SMOOTH",
"1430 1596 OFFCURVE",
"1379 1413 OFFCURVE",
"1163 1413 CURVE",
"1373 1329 LINE"
);
}
);
width = 1679;
}
);
unicode = 01A0;
},
{
glyphname = Oslash;
lastChange = "2018-07-18 03:33:48 +0000";
layers = (
{
components = (
{
name = O;
}
);
layerId = "D92FDD0B-F694-41DD-AE46-0E4F694F0F38";
paths = (
{
closed = 1;
nodes = (
"1318 1537 LINE",
"1234 1585 LINE",
"215 -124 LINE",
"298 -173 LINE {name = hr00;}"
);
}
);
width = 1524;
},
{
components = (
{
name = O;
}
);
layerId = "BDB4B313-38B1-4B24-B843-560B185382BD";
paths = (
{
closed = 1;
nodes = (
"1404 1533 OFFCURVE",
"1382 1558 OFFCURVE",
"1361 1571 CURVE SMOOTH",
"1354 1575 OFFCURVE",
"1346 1577 OFFCURVE",
"1339 1577 CURVE SMOOTH",
"1331 1577 OFFCURVE",
"1324 1575 OFFCURVE",
"1319 1568 CURVE",
"320 -107 LINE",
"318 -122 OFFCURVE",
"331 -142 OFFCURVE",
"353 -155 CURVE SMOOTH",
"361 -160 OFFCURVE",
"374 -164 OFFCURVE",
"385 -164 CURVE SMOOTH",
"392 -164 OFFCURVE",
"398 -162 OFFCURVE",
"402 -157 CURVE",
"1402 1518 LINE"
);
}
);
width = 1679;
}
);
unicode = 00D8;
},
{
glyphname = OE;
lastChange = "2018-07-18 03:33:48 +0000";
layers = (
{
anchors = (
{
name = btm;
position = "{1147, -170}";
},
{
name = top;
position = "{1434, 1700}";
}
);
layerId = "D92FDD0B-F694-41DD-AE46-0E4F694F0F38";
paths = (
{
closed = 1;
nodes = (
"1492 687 LINE SMOOTH",
"1548 687 OFFCURVE",
"1564 543 OFFCURVE",
"1564 501 CURVE SMOOTH",
"1564 476 OFFCURVE",
"1593 470 OFFCURVE",
"1614 470 CURVE SMOOTH",
"1629 470 OFFCURVE",
"1658 481 OFFCURVE",
"1661 504 CURVE SMOOTH",
"1711 948 LINE",
"1712 971 OFFCURVE",
"1688 981 OFFCURVE",
"1672 981 CURVE SMOOTH",
"1650 981 OFFCURVE",
"1623 974 OFFCURVE",
"1618 948 CURVE",
"1608 908 OFFCURVE",
"1552 773 OFFCURVE",
"1507 773 CURVE SMOOTH",
"1112 773 LINE",
"1112 687 LINE {name = hr00;}"
);
},
{
closed = 1;
nodes = (
"1305 1297 OFFCURVE",
"1332 1325 OFFCURVE",
"1395 1331 CURVE",
"1709 1332 LINE SMOOTH",
"1847 1332 OFFCURVE",
"1878 1143 OFFCURVE",
"1878 1094 CURVE",
"1879 1068 OFFCURVE",
"1901 1062 OFFCURVE",
"1922 1062 CURVE SMOOTH",
"1937 1062 OFFCURVE",
"1961 1072 OFFCURVE",
"1964 1095 CURVE",
"1978 1418 LINE",
"1429 1419 LINE",
"1121 1419 LINE",
"1057 1421 OFFCURVE",
"1019 1449 OFFCURVE",
"862 1449 CURVE SMOOTH",
"454 1449 OFFCURVE",
"152 1126 OFFCURVE",
"100 716 CURVE SMOOTH",
"95 673 OFFCURVE",
"92 632 OFFCURVE",
"92 591 CURVE SMOOTH",
"92 240 OFFCURVE",
"288 -29 OFFCURVE",
"651 -29 CURVE SMOOTH",
"821 -29 OFFCURVE",
"868 -2 OFFCURVE",
"1029 0 CURVE",
"1246 0 LINE",
"1888 0 LINE",
"1983 372 LINE",
"1983 395 OFFCURVE",
"1968 406 OFFCURVE",
"1943 406 CURVE SMOOTH",
"1922 406 OFFCURVE",
"1901 398 OFFCURVE",
"1893 373 CURVE",
"1853 263 OFFCURVE",
"1745 97 OFFCURVE",
"1611 97 CURVE SMOOTH",
"1230 97 LINE SMOOTH",
"1191 97 OFFCURVE",
"1150 120 OFFCURVE",
"1150 177 CURVE SMOOTH",
"1150 182 OFFCURVE",
"1150 188 OFFCURVE",
"1151 193 CURVE",
"1300 1257 LINE"
);
},
{
closed = 1;
nodes = (
"415 65 OFFCURVE",
"326 222 OFFCURVE",
"326 488 CURVE SMOOTH",
"326 557 OFFCURVE",
"332 632 OFFCURVE",
"342 714 CURVE SMOOTH",
"392 1116 OFFCURVE",
"525 1360 OFFCURVE",
"842 1360 CURVE SMOOTH",
"1007 1360 OFFCURVE",
"1071 1313 OFFCURVE",
"1095 1275 CURVE",
"1095 1274 LINE",
"935 141 LINE",
"887 78 OFFCURVE",
"803 65 OFFCURVE",
"667 65 CURVE SMOOTH"
);
}
);
width = 2044;
},
{
anchors = (
{
name = btm;
position = "{1124, -170}";
},
{
name = top;
position = "{1411, 1700}";
}
);
layerId = "BDB4B313-38B1-4B24-B843-560B185382BD";
paths = (
{
closed = 1;
nodes = (
"1474 1332 LINE",
"1958 1332 LINE SMOOTH",
"2082 1332 OFFCURVE",
"2120 1152 OFFCURVE",
"2115 1103 CURVE SMOOTH",
"2112 1077 OFFCURVE",
"2148 1070 OFFCURVE",
"2169 1070 CURVE SMOOTH",
"2184 1070 OFFCURVE",
"2214 1081 OFFCURVE",
"2217 1104 CURVE",
"2242 1419 LINE",
"1220 1419 LINE",
"1150 1421 OFFCURVE",
"1113 1449 OFFCURVE",
"944 1449 CURVE SMOOTH",
"405 1449 OFFCURVE",
"73 1045 OFFCURVE",
"73 571 CURVE SMOOTH",
"73 220 OFFCURVE",
"292 -29 OFFCURVE",
"669 -29 CURVE SMOOTH",
"839 -29 OFFCURVE",
"927 -2 OFFCURVE",
"1008 0 CURVE",
"1415 0 LINE",
"2123 1 LINE",
"2196 372 LINE SMOOTH",
"2200 395 OFFCURVE",
"2174 406 OFFCURVE",
"2149 406 CURVE SMOOTH",
"2128 406 OFFCURVE",
"2099 398 OFFCURVE",
"2089 373 CURVE SMOOTH",
"2073 332 OFFCURVE",
"1961 101 OFFCURVE",
"1827 101 CURVE SMOOTH",
"1452 101 LINE",
"1411 102 OFFCURVE",
"1366 114 OFFCURVE",
"1366 171 CURVE SMOOTH",
"1366 179 OFFCURVE",
"1367 187 OFFCURVE",
"1369 197 CURVE",
"1552 1351 LINE"
);
},
{
closed = 1;
nodes = (
"540 65 OFFCURVE",
"435 255 OFFCURVE",
"435 530 CURVE SMOOTH",
"435 916 OFFCURVE",
"563 1360 OFFCURVE",
"917 1360 CURVE SMOOTH",
"1096 1360 OFFCURVE",
"1159 1313 OFFCURVE",
"1186 1234 CURVE",
"1014 152 LINE SMOOTH",
"1008 116 OFFCURVE",
"936 65 OFFCURVE",
"692 65 CURVE SMOOTH"
);
},
{
closed = 1;
nodes = (
"1711 682 LINE SMOOTH",
"1768 682 OFFCURVE",
"1783 546 OFFCURVE",
"1782 503 CURVE",
"1780 477 OFFCURVE",
"1817 470 OFFCURVE",
"1848 470 CURVE SMOOTH",
"1863 470 OFFCURVE",
"1891 481 OFFCURVE",
"1895 504 CURVE SMOOTH",
"1965 947 LINE SMOOTH",
"1969 970 OFFCURVE",
"1943 981 OFFCURVE",
"1928 981 CURVE SMOOTH",
"1899 981 OFFCURVE",
"1860 974 OFFCURVE",
"1852 948 CURVE SMOOTH",
"1841 908 OFFCURVE",
"1782 785 OFFCURVE",
"1729 778 CURVE",
"1285 778 LINE",
"1287 682 LINE"
);
}
);
width = 2264;
}
);
unicode = 0152;
},
{
color = 4;
glyphname = P;
lastChange = "2018-07-18 04:21:40 +0000";
layers = (
{
anchors = (
{
name = bottom;
position = "{555, 0}";
},
{
name = btm;
position = "{690, -170}";
},
{
name = top;
position = "{733, 1419}";
}
);
layerId = "D92FDD0B-F694-41DD-AE46-0E4F694F0F38";
paths = (
{
closed = 1;
nodes = (
"716 1331 LINE SMOOTH",
"1003 1331 OFFCURVE",
"1055 1218 OFFCURVE",
"1055 1046 CURVE SMOOTH",
"1055 760 OFFCURVE",
"887 635 OFFCURVE",
"648 635 CURVE SMOOTH",
"378 635 LINE",
"359 555 LINE",
"643 555 LINE SMOOTH",
"970 555 OFFCURVE",
"1282 715 OFFCURVE",
"1282 1044 CURVE SMOOTH",
"1282 1278 OFFCURVE",
"1151 1419 OFFCURVE",
"757 1419 CURVE SMOOTH",
"246 1419 LINE SMOOTH",
"223 1419 OFFCURVE",
"205 1383 OFFCURVE",
"206 1368 CURVE",
"205 1362 OFFCURVE",
"204 1357 OFFCURVE",
"204 1353 CURVE SMOOTH",
"204 1336 OFFCURVE",
"213 1333 OFFCURVE",
"235 1331 CURVE SMOOTH",
"292 1326 OFFCURVE",
"377 1321 OFFCURVE",
"377 1247 CURVE SMOOTH",
"377 1243 OFFCURVE",
"377 1238 OFFCURVE",
"376 1234 CURVE",
"226 152 LINE",
"221 108 OFFCURVE",
"138 93 OFFCURVE",
"73 88 CURVE",
"46 85 OFFCURVE",
"37 72 OFFCURVE",
"37 51 CURVE",
"34 36 OFFCURVE",
"43 0 OFFCURVE",
"66 0 CURVE SMOOTH",
"631 0 LINE SMOOTH",
"654 0 OFFCURVE",
"667 36 OFFCURVE",
"670 51 CURVE",
"672 81 OFFCURVE",
"664 85 OFFCURVE",
"637 88 CURVE",
"561 93 OFFCURVE",
"426 99 OFFCURVE",
"436 185 CURVE",
"593 1331 LINE {name = hr00;}"
);
}
);
width = 1249;
},
{
anchors = (
{
name = bottom;
position = "{653, 0}";
},
{
name = btm;
position = "{380, -170}";
},
{
name = top;
position = "{837, 1419}";
}
);
layerId = "BDB4B313-38B1-4B24-B843-560B185382BD";
paths = (
{
closed = 1;
nodes = (
"5 32 OFFCURVE",
"12 0 OFFCURVE",
"35 0 CURVE SMOOTH",
"747 0 LINE SMOOTH",
"770 0 OFFCURVE",
"788 24 OFFCURVE",
"788 46 CURVE SMOOTH",
"788 76 OFFCURVE",
"781 86 OFFCURVE",
"754 88 CURVE SMOOTH",
"628 98 OFFCURVE",
"539 110 OFFCURVE",
"539 173 CURVE SMOOTH",
"539 177 OFFCURVE",
"539 181 OFFCURVE",
"540 185 CURVE SMOOTH",
"600 555 LINE",
"759 555 LINE SMOOTH",
"1189 555 OFFCURVE",
"1448 737 OFFCURVE",
"1448 1069 CURVE SMOOTH",
"1448 1241 OFFCURVE",
"1348 1419 OFFCURVE",
"873 1419 CURVE",
"226 1419 LINE SMOOTH",
"203 1419 OFFCURVE",
"185 1383 OFFCURVE",
"184 1368 CURVE",
"183 1362 OFFCURVE",
"182 1357 OFFCURVE",
"182 1353 CURVE SMOOTH",
"182 1336 OFFCURVE",
"191 1333 OFFCURVE",
"213 1331 CURVE SMOOTH",
"269 1326 OFFCURVE",
"351 1321 OFFCURVE",
"351 1251 CURVE SMOOTH",
"351 1246 OFFCURVE",
"351 1240 OFFCURVE",
"350 1234 CURVE SMOOTH",
"199 152 LINE SMOOTH",
"192 108 OFFCURVE",
"108 94 OFFCURVE",
"43 88 CURVE SMOOTH",
"16 85 OFFCURVE",
"5 72 OFFCURVE",
"5 51 CURVE SMOOTH"
);
},
{
closed = 1;
nodes = (
"702 1331 LINE",
"744 1331 LINE SMOOTH",
"1031 1331 OFFCURVE",
"1081 1229 OFFCURVE",
"1081 1071 CURVE SMOOTH",
"1081 777 OFFCURVE",
"949 641 OFFCURVE",
"708 641 CURVE SMOOTH",
"612 641 LINE"
);
}
);
width = 1446;
}
);
unicode = 0050;
userData = {
com.typemytype.robofont.mark = (
0.6,
0.609,
1,
1
);
};
},
{
glyphname = Thorn;
lastChange = "2018-07-18 03:33:48 +0000";
layers = (
{
anchors = (
{
name = btm;
position = "{633, -170}";
},
{
name = top;
position = "{633, 1700}";
}
);
layerId = "D92FDD0B-F694-41DD-AE46-0E4F694F0F38";
paths = (
{
closed = 1;
nodes = (
"55 31 OFFCURVE",
"61 0 OFFCURVE",
"82 0 CURVE SMOOTH",
"587 0 LINE SMOOTH",
"610 0 OFFCURVE",
"625 36 OFFCURVE",
"626 51 CURVE",
"629 81 OFFCURVE",
"621 85 OFFCURVE",
"594 88 CURVE SMOOTH",
"537 93 OFFCURVE",
"452 98 OFFCURVE",
"452 172 CURVE SMOOTH",
"452 176 OFFCURVE",
"452 181 OFFCURVE",
"453 185 CURVE",
"467 300 LINE",
"630 300 LINE SMOOTH",
"951 300 OFFCURVE",
"1227 465 OFFCURVE",
"1227 781 CURVE SMOOTH",
"1227 793 OFFCURVE",
"1227 805 OFFCURVE",
"1226 817 CURVE SMOOTH",
"1211 1043 OFFCURVE",
"1082 1164 OFFCURVE",
"721 1164 CURVE SMOOTH",
"578 1164 LINE",
"590 1267 LINE",
"599 1311 OFFCURVE",
"680 1326 OFFCURVE",
"745 1331 CURVE",
"770 1334 OFFCURVE",
"781 1347 OFFCURVE",
"783 1368 CURVE SMOOTH",
"783 1383 OFFCURVE",
"780 1419 OFFCURVE",
"757 1419 CURVE SMOOTH",
"252 1419 LINE SMOOTH",
"229 1419 OFFCURVE",
"210 1383 OFFCURVE",
"210 1368 CURVE",
"209 1362 OFFCURVE",
"209 1357 OFFCURVE",
"209 1353 CURVE SMOOTH",
"209 1336 OFFCURVE",
"218 1333 OFFCURVE",
"241 1331 CURVE SMOOTH",
"298 1326 OFFCURVE",
"382 1321 OFFCURVE",
"382 1247 CURVE SMOOTH",
"382 1243 OFFCURVE",
"382 1238 OFFCURVE",
"381 1234 CURVE SMOOTH",
"242 152 LINE",
"239 108 OFFCURVE",
"155 93 OFFCURVE",
"90 88 CURVE",
"63 85 OFFCURVE",
"55 70 OFFCURVE",
"55 47 CURVE SMOOTH {name = hr00;}"
);
},
{
closed = 1;
nodes = (
"929 1076 OFFCURVE",
"990 970 OFFCURVE",
"1000 806 CURVE SMOOTH",
"1001 792 OFFCURVE",
"1001 778 OFFCURVE",
"1001 764 CURVE SMOOTH",
"1001 506 OFFCURVE",
"842 386 OFFCURVE",
"614 386 CURVE SMOOTH",
"478 386 LINE",
"569 1076 LINE",
"704 1076 LINE SMOOTH"
);
}
);
width = 1258;
},
{
anchors = (
{
name = btm;
position = "{592, -170}";
},
{
name = top;
position = "{592, 1700}";
}
);
layerId = "BDB4B313-38B1-4B24-B843-560B185382BD";
paths = (
{
closed = 1;
nodes = (
"634 300 LINE SMOOTH",
"1052 300 OFFCURVE",
"1373 472 OFFCURVE",
"1373 797 CURVE SMOOTH",
"1373 1035 OFFCURVE",
"1251 1164 OFFCURVE",
"773 1164 CURVE SMOOTH",
"454 1164 LINE",
"454 1076 LINE",
"749 1076 LINE SMOOTH",
"952 1076 OFFCURVE",
"1006 962 OFFCURVE",
"1006 786 CURVE SMOOTH",
"1006 513 OFFCURVE",
"817 386 OFFCURVE",
"623 386 CURVE SMOOTH",
"307 386 LINE",
"305 300 LINE"
);
},
{
closed = 1;
nodes = (
"697 1311 OFFCURVE",
"779 1326 OFFCURVE",
"845 1331 CURVE",
"871 1334 OFFCURVE",
"880 1347 OFFCURVE",
"883 1368 CURVE",
"884 1371 OFFCURVE",
"884 1374 OFFCURVE",
"884 1378 CURVE SMOOTH",
"884 1395 OFFCURVE",
"877 1419 OFFCURVE",
"858 1419 CURVE SMOOTH",
"233 1419 LINE SMOOTH",
"210 1419 OFFCURVE",
"190 1394 OFFCURVE",
"190 1377 CURVE SMOOTH",
"190 1347 OFFCURVE",
"193 1334 OFFCURVE",
"221 1331 CURVE",
"280 1326 OFFCURVE",
"357 1321 OFFCURVE",
"357 1255 CURVE SMOOTH",
"357 1248 OFFCURVE",
"356 1241 OFFCURVE",
"355 1234 CURVE",
"194 152 LINE",
"185 108 OFFCURVE",
"107 93 OFFCURVE",
"38 88 CURVE",
"11 85 OFFCURVE",
"3 72 OFFCURVE",
"-2 51 CURVE",
"-4 36 OFFCURVE",
"4 0 OFFCURVE",
"27 0 CURVE SMOOTH",
"652 0 LINE SMOOTH",
"675 0 OFFCURVE",
"691 24 OFFCURVE",
"691 51 CURVE SMOOTH",
"691 71 OFFCURVE",
"689 85 OFFCURVE",
"662 88 CURVE SMOOTH",
"607 93 OFFCURVE",
"526 98 OFFCURVE",
"526 165 CURVE SMOOTH",
"526 171 OFFCURVE",
"527 178 OFFCURVE",
"528 185 CURVE",
"689 1267 LINE"
);
}
);
width = 1450;
}
);
unicode = 00DE;
},
{
glyphname = Q;
lastChange = "2018-07-18 03:33:48 +0000";
layers = (
{
anchors = (
{
name = btm;
position = "{770, -170}";
},
{
name = top;
position = "{770, 1700}";
}
);
components = (
{
name = O;
}
);
layerId = "D92FDD0B-F694-41DD-AE46-0E4F694F0F38";
paths = (
{
closed = 1;
nodes = (
"698 -369 OFFCURVE",
"945 -419 OFFCURVE",
"1167 -419 CURVE SMOOTH",
"1276 -419 OFFCURVE",
"1330 -393 OFFCURVE",
"1330 -393 CURVE",
"1330 -393 OFFCURVE",
"1330 -323 OFFCURVE",
"1330 -323 CURVE",
"958 -330 OFFCURVE",
"873 -76 OFFCURVE",
"870 29 CURVE",
"870 29 OFFCURVE",
"638 0 OFFCURVE",
"638 0 CURVE {name = hr00;}"
);
}
);
width = 1496;
},
{
anchors = (
{
name = btm;
position = "{770, -170}";
},
{
name = top;
position = "{770, 1700}";
}
);
components = (
{
name = O;
}
);
layerId = "BDB4B313-38B1-4B24-B843-560B185382BD";
paths = (
{
closed = 1;
nodes = (
"615 -17 OFFCURVE",
"613 -34 OFFCURVE",
"613 -50 CURVE SMOOTH",
"613 -276 OFFCURVE",
"838 -419 OFFCURVE",
"1126 -419 CURVE SMOOTH",
"1302 -419 OFFCURVE",
"1389 -383 OFFCURVE",
"1389 -383 CURVE",
"1389 -383 OFFCURVE",
"1389 -313 OFFCURVE",
"1389 -313 CURVE",
"1070 -319 OFFCURVE",
"944 -140 OFFCURVE",
"944 -13 CURVE SMOOTH",
"944 2 OFFCURVE",
"946 16 OFFCURVE",
"949 29 CURVE",
"949 29 OFFCURVE",
"617 0 OFFCURVE",
"617 0 CURVE"
);
}
);
width = 1679;
}
);
unicode = 0051;
userData = {
com.typemytype.robofont.mark = (
0.6,
0.609,
1,
1
);
};
},
{
color = 4;
glyphname = R;
lastChange = "2018-07-18 04:22:21 +0000";
layers = (
{
anchors = (
{
name = bottom;
position = "{649, 0}";
},
{
name = btm;
position = "{694, -170}";
},
{
name = top;
position = "{804, 1419}";
}
);
layerId = "D92FDD0B-F694-41DD-AE46-0E4F694F0F38";
paths = (
{
closed = 1;
nodes = (
"727 1332 LINE SMOOTH",
"995 1332 OFFCURVE",
"1086 1265 OFFCURVE",
"1086 1054 CURVE SMOOTH",
"1086 833 OFFCURVE",
"953 701 OFFCURVE",
"711 701 CURVE SMOOTH",
"452 701 LINE",
"452 625 LINE",
"714 625 LINE SMOOTH",
"971 625 OFFCURVE",
"843 0 OFFCURVE",
"1147 0 CURVE SMOOTH",
"1359 0 LINE SMOOTH",
"1398 0 OFFCURVE",
"1395 63 OFFCURVE",
"1395 63 CURVE",
"1395 80 OFFCURVE",
"1387 88 OFFCURVE",
"1365 89 CURVE SMOOTH",
"1282 94 OFFCURVE",
"1216 125 OFFCURVE",
"1179 209 CURVE SMOOTH",
"1101 376 OFFCURVE",
"1055 578 OFFCURVE",
"911 636 CURVE",
"1101 659 OFFCURVE",
"1301 838 OFFCURVE",
"1301 1057 CURVE SMOOTH",
"1301 1281 OFFCURVE",
"1169 1419 OFFCURVE",
"767 1419 CURVE SMOOTH",
"253 1419 LINE SMOOTH",
"230 1419 OFFCURVE",
"212 1383 OFFCURVE",
"213 1368 CURVE",
"212 1362 OFFCURVE",
"211 1357 OFFCURVE",
"211 1352 CURVE SMOOTH",
"215 1309 OFFCURVE",
"396 1348 OFFCURVE",
"385 1251 CURVE",
"249 152 LINE SMOOTH",
"244 107 OFFCURVE",
"171 94 OFFCURVE",
"106 88 CURVE SMOOTH",
"83 86 OFFCURVE",
"74 71 OFFCURVE",
"74 51 CURVE",
"73 48 OFFCURVE",
"73 45 OFFCURVE",
"73 42 CURVE SMOOTH",
"73 25 OFFCURVE",
"80 0 OFFCURVE",
"99 0 CURVE SMOOTH",
"604 0 LINE SMOOTH",
"641 0 OFFCURVE",
"640 60 OFFCURVE",
"641 66 CURVE",
"641 82 OFFCURVE",
"631 86 OFFCURVE",
"610 88 CURVE SMOOTH",
"551 93 OFFCURVE",
"458 97 OFFCURVE",
"458 172 CURVE SMOOTH",
"458 176 OFFCURVE",
"458 181 OFFCURVE",
"459 185 CURVE SMOOTH",
"601 1332 LINE {name = hr00;}"
);
}
);
width = 1437;
},
{
anchors = (
{
name = bottom;
position = "{747, 0}";
},
{
name = btm;
position = "{815, -170}";
},
{
name = top;
position = "{891, 1421}";
}
);
layerId = "BDB4B313-38B1-4B24-B843-560B185382BD";
paths = (
{
closed = 1;
nodes = (
"829 1331 LINE SMOOTH",
"1076 1331 OFFCURVE",
"1158 1265 OFFCURVE",
"1158 1054 CURVE SMOOTH",
"1158 833 OFFCURVE",
"1047 701 OFFCURVE",
"783 701 CURVE SMOOTH",
"554 701 LINE",
"554 625 LINE",
"816 625 LINE",
"1013 636 LINE",
"1286 661 OFFCURVE",
"1503 838 OFFCURVE",
"1503 1057 CURVE SMOOTH",
"1503 1291 OFFCURVE",
"1376 1419 OFFCURVE",
"849 1419 CURVE SMOOTH",
"225 1419 LINE SMOOTH",
"194 1419 OFFCURVE",
"183 1391 OFFCURVE",
"183 1358 CURVE SMOOTH",
"183 1305 OFFCURVE",
"368 1348 OFFCURVE",
"357 1251 CURVE",
"221 152 LINE SMOOTH",
"216 107 OFFCURVE",
"143 94 OFFCURVE",
"78 88 CURVE SMOOTH",
"52 86 OFFCURVE",
"45 63 OFFCURVE",
"45 42 CURVE SMOOTH",
"45 25 OFFCURVE",
"52 0 OFFCURVE",
"71 0 CURVE SMOOTH",
"706 0 LINE SMOOTH",
"743 0 OFFCURVE",
"743 39 OFFCURVE",
"743 56 CURVE SMOOTH",
"743 72 OFFCURVE",
"733 86 OFFCURVE",
"712 88 CURVE SMOOTH",
"653 93 OFFCURVE",
"560 97 OFFCURVE",
"560 172 CURVE SMOOTH",
"560 176 OFFCURVE",
"560 181 OFFCURVE",
"561 185 CURVE SMOOTH",
"703 1331 LINE"
);
},
{
closed = 1;
nodes = (
"944 636 OFFCURVE",
"990 242 OFFCURVE",
"1069 80 CURVE SMOOTH",
"1097 23 OFFCURVE",
"1143 0 OFFCURVE",
"1216 0 CURVE SMOOTH",
"1543 0 LINE SMOOTH",
"1565 0 OFFCURVE",
"1577 17 OFFCURVE",
"1577 32 CURVE SMOOTH",
"1578 62 OFFCURVE",
"1571 86 OFFCURVE",
"1543 89 CURVE SMOOTH",
"1458 99 OFFCURVE",
"1417 172 OFFCURVE",
"1333 307 CURVE SMOOTH",
"1261 418 OFFCURVE",
"1217 667 OFFCURVE",
"1027 667 CURVE",
"756 636 LINE"
);
}
);
width = 1633;
}
);
unicode = 0052;
userData = {
com.typemytype.robofont.mark = (
0.6,
0.609,
1,
1
);
};
},
{
color = 4;
glyphname = S;
lastChange = "2018-07-18 04:22:46 +0000";
layers = (
{
anchors = (
{
name = bottom;
position = "{505, 0}";
},
{
name = btm;
position = "{476, -170}";
},
{
name = top;
position = "{659, 1419}";
}
);
layerId = "D92FDD0B-F694-41DD-AE46-0E4F694F0F38";
paths = (
{
closed = 1;
nodes = (
"42 48 OFFCURVE",
"60 20 OFFCURVE",
"87 20 CURVE SMOOTH",
"107 20 OFFCURVE",
"139 32 OFFCURVE",
"160 61 CURVE SMOOTH",
"171 76 OFFCURVE",
"186 83 OFFCURVE",
"193 78 CURVE SMOOTH",
"253 38 OFFCURVE",
"364 -30 OFFCURVE",
"546 -30 CURVE SMOOTH",
"829 -30 OFFCURVE",
"1016 123 OFFCURVE",
"1016 371 CURVE SMOOTH",
"1016 606 OFFCURVE",
"834 714 OFFCURVE",
"676 816 CURVE SMOOTH",
"545 901 OFFCURVE",
"409 993 OFFCURVE",
"409 1145 CURVE SMOOTH",
"409 1302 OFFCURVE",
"530 1366 OFFCURVE",
"668 1366 CURVE SMOOTH",
"809 1366 OFFCURVE",
"938 1265 OFFCURVE",
"954 1050 CURVE",
"954 1038 OFFCURVE",
"977 1028 OFFCURVE",
"998 1028 CURVE SMOOTH",
"1026 1028 OFFCURVE",
"1048 1032 OFFCURVE",
"1050 1087 CURVE",
"1047 1208 OFFCURVE",
"1069 1360 OFFCURVE",
"1066 1398 CURVE",
"1066 1416 OFFCURVE",
"1043 1432 OFFCURVE",
"1018 1432 CURVE SMOOTH",
"980 1432 OFFCURVE",
"970 1388 OFFCURVE",
"929 1388 CURVE SMOOTH",
"922 1388 OFFCURVE",
"912 1386 OFFCURVE",
"904 1391 CURVE",
"850 1417 OFFCURVE",
"763 1449 OFFCURVE",
"662 1449 CURVE SMOOTH",
"384 1449 OFFCURVE",
"216 1295 OFFCURVE",
"216 1092 CURVE SMOOTH",
"216 863 OFFCURVE",
"348 774 OFFCURVE",
"531 655 CURVE SMOOTH",
"671 564 OFFCURVE",
"814 462 OFFCURVE",
"814 301 CURVE SMOOTH",
"818 127 OFFCURVE",
"699 54 OFFCURVE",
"541 54 CURVE SMOOTH",
"411 54 OFFCURVE",
"282 114 OFFCURVE",
"231 257 CURVE",
"189 371 OFFCURVE",
"192 444 OFFCURVE",
"188 478 CURVE",
"188 505 OFFCURVE",
"160 520 OFFCURVE",
"137 520 CURVE SMOOTH",
"110 520 OFFCURVE",
"91 513 OFFCURVE",
"90 471 CURVE",
"90 391 OFFCURVE",
"73 214 OFFCURVE",
"45 72 CURVE {name = hr00;}"
);
}
);
width = 1149;
},
{
anchors = (
{
name = bottom;
position = "{599, 0}";
},
{
name = btm;
position = "{477, -170}";
},
{
name = top;
position = "{732, 1419}";
}
);
layerId = "BDB4B313-38B1-4B24-B843-560B185382BD";
paths = (
{
closed = 1;
nodes = (
"-3 48 OFFCURVE",
"24 20 OFFCURVE",
"52 20 CURVE SMOOTH",
"72 20 OFFCURVE",
"104 32 OFFCURVE",
"127 61 CURVE SMOOTH",
"138 76 OFFCURVE",
"153 83 OFFCURVE",
"160 78 CURVE SMOOTH",
"219 38 OFFCURVE",
"394 -30 OFFCURVE",
"560 -30 CURVE SMOOTH",
"958 -30 OFFCURVE",
"1136 194 OFFCURVE",
"1136 400 CURVE SMOOTH",
"1136 619 OFFCURVE",
"966 753 OFFCURVE",
"794 858 CURVE SMOOTH",
"640 951 OFFCURVE",
"499 1034 OFFCURVE",
"499 1176 CURVE SMOOTH",
"499 1308 OFFCURVE",
"596 1370 OFFCURVE",
"755 1370 CURVE SMOOTH",
"911 1370 OFFCURVE",
"1023 1295 OFFCURVE",
"1060 1059 CURVE SMOOTH",
"1063 1040 OFFCURVE",
"1099 1028 OFFCURVE",
"1120 1028 CURVE SMOOTH",
"1148 1028 OFFCURVE",
"1172 1032 OFFCURVE",
"1174 1087 CURVE SMOOTH",
"1179 1208 OFFCURVE",
"1192 1330 OFFCURVE",
"1202 1404 CURVE SMOOTH",
"1204 1422 OFFCURVE",
"1175 1432 OFFCURVE",
"1144 1432 CURVE SMOOTH",
"1106 1432 OFFCURVE",
"1107 1383 OFFCURVE",
"1066 1383 CURVE SMOOTH",
"1059 1383 OFFCURVE",
"1040 1386 OFFCURVE",
"1030 1391 CURVE SMOOTH",
"1001 1405 OFFCURVE",
"881 1449 OFFCURVE",
"737 1449 CURVE SMOOTH",
"403 1449 OFFCURVE",
"193 1291 OFFCURVE",
"193 1065 CURVE SMOOTH",
"193 860 OFFCURVE",
"346 720 OFFCURVE",
"502 614 CURVE SMOOTH",
"668 504 OFFCURVE",
"829 418 OFFCURVE",
"829 276 CURVE SMOOTH",
"829 119 OFFCURVE",
"727 59 OFFCURVE",
"547 59 CURVE SMOOTH",
"401 59 OFFCURVE",
"260 126 OFFCURVE",
"213 277 CURVE SMOOTH",
"182 376 OFFCURVE",
"181 444 OFFCURVE",
"179 478 CURVE",
"179 505 OFFCURVE",
"143 520 OFFCURVE",
"120 520 CURVE SMOOTH",
"93 520 OFFCURVE",
"62 513 OFFCURVE",
"61 471 CURVE",
"57 391 OFFCURVE",
"34 214 OFFCURVE",
"2 72 CURVE SMOOTH"
);
}
);
width = 1337;
}
);
unicode = 0053;
},
{
color = 4;
glyphname = T;
lastChange = "2018-07-18 04:23:37 +0000";
layers = (
{
anchors = (
{
name = bottom;
position = "{564, 0}";
},
{
name = btm;
position = "{499, -170}";
},
{
name = center;
position = "{664, 710}";
},
{
name = top;
position = "{732, 1419}";
}
);
layerId = "D92FDD0B-F694-41DD-AE46-0E4F694F0F38";
paths = (
{
closed = 1;
nodes = (
"206 28 OFFCURVE",
"216 0 OFFCURVE",
"236 0 CURVE SMOOTH",
"851 0 LINE SMOOTH",
"874 0 OFFCURVE",
"887 36 OFFCURVE",
"890 51 CURVE SMOOTH",
"892 81 OFFCURVE",
"884 85 OFFCURVE",
"857 88 CURVE",
"777 93 OFFCURVE",
"642 99 OFFCURVE",
"651 185 CURVE SMOOTH",
"819 1331 LINE",
"1036 1331 LINE SMOOTH",
"1150 1331 OFFCURVE",
"1171 1084 OFFCURVE",
"1168 1019 CURVE",
"1166 993 OFFCURVE",
"1182 986 OFFCURVE",
"1203 986 CURVE SMOOTH",
"1218 986 OFFCURVE",
"1262 997 OFFCURVE",
"1266 1020 CURVE",
"1267 1419 LINE",
"150 1419 LINE SMOOTH",
"135 1419 OFFCURVE",
"98 1151 OFFCURVE",
"81 1020 CURVE",
"77 997 OFFCURVE",
"110 986 OFFCURVE",
"125 986 CURVE SMOOTH",
"146 986 OFFCURVE",
"171 993 OFFCURVE",
"179 1019 CURVE",
"192 1084 OFFCURVE",
"259 1331 OFFCURVE",
"373 1331 CURVE SMOOTH",
"612 1331 LINE",
"443 182 LINE SMOOTH",
"437 108 OFFCURVE",
"338 93 OFFCURVE",
"243 88 CURVE",
"213 85 OFFCURVE",
"206 69 OFFCURVE",
"206 45 CURVE SMOOTH {name = hr00;}"
);
}
);
width = 1267;
},
{
anchors = (
{
name = bottom;
position = "{631, 0}";
},
{
name = btm;
position = "{578, -170}";
},
{
name = center;
position = "{731, 710}";
},
{
name = top;
position = "{831, 1419}";
}
);
layerId = "BDB4B313-38B1-4B24-B843-560B185382BD";
paths = (
{
closed = 1;
nodes = (
"198 26 OFFCURVE",
"206 0 OFFCURVE",
"226 0 CURVE SMOOTH",
"1012 0 LINE SMOOTH",
"1035 0 OFFCURVE",
"1057 27 OFFCURVE",
"1057 50 CURVE SMOOTH",
"1057 80 OFFCURVE",
"1049 86 OFFCURVE",
"1022 88 CURVE SMOOTH",
"945 95 OFFCURVE",
"808 99 OFFCURVE",
"808 175 CURVE SMOOTH",
"808 178 OFFCURVE",
"808 181 OFFCURVE",
"809 185 CURVE SMOOTH",
"979 1331 LINE",
"1101 1331 LINE SMOOTH",
"1287 1331 OFFCURVE",
"1300 1089 OFFCURVE",
"1300 979 CURVE SMOOTH",
"1300 961 OFFCURVE",
"1300 946 OFFCURVE",
"1300 937 CURVE",
"1298 911 OFFCURVE",
"1324 904 OFFCURVE",
"1345 904 CURVE SMOOTH",
"1360 904 OFFCURVE",
"1409 915 OFFCURVE",
"1413 938 CURVE",
"1426 1050 OFFCURVE",
"1459 1322 OFFCURVE",
"1459 1399 CURVE SMOOTH",
"1459 1412 OFFCURVE",
"1458 1419 OFFCURVE",
"1456 1419 CURVE SMOOTH",
"189 1419 LINE SMOOTH",
"174 1419 OFFCURVE",
"90 1069 OFFCURVE",
"67 938 CURVE",
"63 915 OFFCURVE",
"130 904 OFFCURVE",
"145 904 CURVE SMOOTH",
"166 904 OFFCURVE",
"194 911 OFFCURVE",
"202 937 CURVE",
"217 1002 OFFCURVE",
"333 1331 OFFCURVE",
"537 1331 CURVE SMOOTH",
"647 1331 LINE",
"476 182 LINE SMOOTH",
"465 108 OFFCURVE",
"332 96 OFFCURVE",
"237 88 CURVE SMOOTH",
"207 86 OFFCURVE",
"198 69 OFFCURVE",
"198 43 CURVE SMOOTH"
);
}
);
width = 1401;
}
);
unicode = 0054;
},
{
color = 4;
glyphname = U;
lastChange = "2018-07-18 04:23:54 +0000";
layers = (
{
anchors = (
{
name = bottom;
position = "{705, 0}";
},
{
name = btm;
position = "{689, -170}";
},
{
name = ogonek;
position = "{1326, 10}";
},
{
name = top;
position = "{932, 1419}";
},
{
name = topright;
position = "{1659, 1419}";
}
);
layerId = "D92FDD0B-F694-41DD-AE46-0E4F694F0F38";
paths = (
{
closed = 1;
nodes = (
"250 493 OFFCURVE",
"247 456 OFFCURVE",
"247 417 CURVE SMOOTH",
"247 399 OFFCURVE",
"248 380 OFFCURVE",
"249 361 CURVE SMOOTH",
"266 83 OFFCURVE",
"481 -29 OFFCURVE",
"752 -29 CURVE SMOOTH",
"1075 -29 OFFCURVE",
"1268 123 OFFCURVE",
"1311 523 CURVE SMOOTH",
"1410 1230 LINE SMOOTH",
"1417 1294 OFFCURVE",
"1481 1326 OFFCURVE",
"1568 1331 CURVE SMOOTH",
"1593 1332 OFFCURVE",
"1605 1348 OFFCURVE",
"1605 1370 CURVE SMOOTH",
"1605 1387 OFFCURVE",
"1601 1419 OFFCURVE",
"1580 1419 CURVE SMOOTH",
"1184 1419 LINE SMOOTH",
"1162 1419 OFFCURVE",
"1144 1385 OFFCURVE",
"1144 1369 CURVE SMOOTH",
"1144 1363 OFFCURVE",
"1142 1357 OFFCURVE",
"1142 1352 CURVE SMOOTH {name = hr02;}",
"1142 1336 OFFCURVE",
"1151 1331 OFFCURVE",
"1173 1331 CURVE SMOOTH",
"1263 1331 OFFCURVE",
"1319 1290 OFFCURVE",
"1312 1233 CURVE SMOOTH",
"1210 521 LINE SMOOTH",
"1177 257 OFFCURVE",
"1073 65 OFFCURVE",
"764 65 CURVE SMOOTH",
"611 65 OFFCURVE",
"476 147 OFFCURVE",
"460 364 CURVE SMOOTH",
"460 377 OFFCURVE",
"459 390 OFFCURVE",
"459 403 CURVE SMOOTH",
"459 446 OFFCURVE",
"462 492 OFFCURVE",
"467 543 CURVE SMOOTH",
"568 1267 LINE SMOOTH",
"576 1311 OFFCURVE",
"670 1325 OFFCURVE",
"741 1331 CURVE SMOOTH {name = hr03;}",
"766 1333 OFFCURVE",
"779 1348 OFFCURVE",
"779 1369 CURVE SMOOTH",
"779 1372 OFFCURVE",
"778 1375 OFFCURVE",
"778 1378 CURVE SMOOTH",
"778 1395 OFFCURVE",
"771 1419 OFFCURVE",
"753 1419 CURVE SMOOTH",
"228 1419 LINE SMOOTH",
"205 1419 OFFCURVE",
"188 1385 OFFCURVE",
"188 1369 CURVE SMOOTH",
"188 1363 OFFCURVE",
"186 1357 OFFCURVE",
"186 1352 CURVE SMOOTH",
"190 1309 OFFCURVE",
"368 1352 OFFCURVE",
"357 1256 CURVE SMOOTH",
"253 523 LINE SMOOTH {name = hr01;}"
);
}
);
width = 1549;
},
{
anchors = (
{
name = bottom;
position = "{784, 0}";
},
{
name = btm;
position = "{740, -170}";
},
{
name = ogonek;
position = "{1468, 10}";
},
{
name = top;
position = "{1039, 1419}";
},
{
name = topright;
position = "{1817, 1419}";
}
);
layerId = "BDB4B313-38B1-4B24-B843-560B185382BD";
paths = (
{
closed = 1;
nodes = (
"215 504 OFFCURVE",
"212 448 OFFCURVE",
"212 394 CURVE SMOOTH",
"223 116 OFFCURVE",
"428 -29 OFFCURVE",
"811 -29 CURVE SMOOTH",
"1158 -29 OFFCURVE",
"1343 157 OFFCURVE",
"1420 546 CURVE SMOOTH",
"1526 1230 LINE SMOOTH",
"1535 1294 OFFCURVE",
"1604 1326 OFFCURVE",
"1717 1331 CURVE SMOOTH",
"1744 1332 OFFCURVE",
"1756 1350 OFFCURVE",
"1756 1375 CURVE SMOOTH",
"1756 1392 OFFCURVE",
"1751 1419 OFFCURVE",
"1731 1419 CURVE SMOOTH",
"1275 1419 LINE SMOOTH",
"1252 1419 OFFCURVE",
"1234 1383 OFFCURVE",
"1233 1368 CURVE SMOOTH",
"1232 1362 OFFCURVE",
"1231 1357 OFFCURVE",
"1231 1352 CURVE SMOOTH",
"1231 1336 OFFCURVE",
"1240 1332 OFFCURVE",
"1262 1331 CURVE SMOOTH",
"1375 1325 OFFCURVE",
"1428 1315 OFFCURVE",
"1428 1265 CURVE SMOOTH",
"1428 1262 OFFCURVE",
"1427 1254 OFFCURVE",
"1425 1244 CURVE SMOOTH",
"1326 578 LINE SMOOTH",
"1278 331 OFFCURVE",
"1182 65 OFFCURVE",
"850 65 CURVE SMOOTH",
"667 65 OFFCURVE",
"563 144 OFFCURVE",
"555 361 CURVE SMOOTH",
"555 411 OFFCURVE",
"558 491 OFFCURVE",
"570 554 CURVE SMOOTH",
"675 1267 LINE SMOOTH",
"683 1311 OFFCURVE",
"740 1329 OFFCURVE",
"850 1331 CURVE SMOOTH",
"876 1332 OFFCURVE",
"889 1349 OFFCURVE",
"889 1373 CURVE SMOOTH",
"889 1390 OFFCURVE",
"884 1419 OFFCURVE",
"864 1419 CURVE SMOOTH",
"199 1419 LINE SMOOTH",
"175 1419 OFFCURVE",
"158 1383 OFFCURVE",
"157 1368 CURVE SMOOTH",
"156 1362 OFFCURVE",
"155 1357 OFFCURVE",
"155 1352 CURVE SMOOTH",
"157 1311 OFFCURVE",
"324 1346 OFFCURVE",
"324 1268 CURVE SMOOTH",
"324 1264 OFFCURVE",
"324 1260 OFFCURVE",
"323 1256 CURVE SMOOTH",
"223 546 LINE SMOOTH"
);
}
);
width = 1707;
}
);
unicode = 0055;
},
{
color = 4;
glyphname = V;
lastChange = "2018-07-18 04:24:41 +0000";
layers = (
{
anchors = (
{
name = bottom;
position = "{613, 0}";
},
{
name = btm;
position = "{869, -170}";
},
{
name = top;
position = "{878, 1419}";
}
);
layerId = "D92FDD0B-F694-41DD-AE46-0E4F694F0F38";
paths = (
{
closed = 1;
nodes = (
"598 -18 LINE",
"1368 1254 LINE SMOOTH",
"1419 1339 OFFCURVE",
"1490 1326 OFFCURVE",
"1540 1331 CURVE SMOOTH",
"1568 1334 OFFCURVE",
"1578 1338 OFFCURVE",
"1583 1368 CURVE SMOOTH",
"1584 1383 OFFCURVE",
"1579 1419 OFFCURVE",
"1557 1419 CURVE SMOOTH",
"1102 1419 LINE SMOOTH",
"1079 1419 OFFCURVE",
"1061 1383 OFFCURVE",
"1060 1368 CURVE SMOOTH",
"1059 1364 OFFCURVE",
"1059 1359 OFFCURVE",
"1059 1356 CURVE SMOOTH",
"1059 1342 OFFCURVE",
"1065 1333 OFFCURVE",
"1086 1331 CURVE",
"1195 1331 OFFCURVE",
"1240 1313 OFFCURVE",
"1240 1281 CURVE SMOOTH",
"1240 1274 OFFCURVE",
"1237 1266 OFFCURVE",
"1233 1257 CURVE SMOOTH",
"637 222 LINE",
"489 1271 LINE SMOOTH",
"488 1275 OFFCURVE",
"488 1279 OFFCURVE",
"488 1283 CURVE SMOOTH",
"488 1320 OFFCURVE",
"526 1327 OFFCURVE",
"629 1331 CURVE",
"655 1334 OFFCURVE",
"665 1347 OFFCURVE",
"669 1368 CURVE SMOOTH",
"670 1383 OFFCURVE",
"665 1419 OFFCURVE",
"643 1419 CURVE SMOOTH",
"118 1419 LINE SMOOTH",
"96 1419 OFFCURVE",
"77 1383 OFFCURVE",
"77 1368 CURVE SMOOTH",
"76 1361 OFFCURVE",
"75 1356 OFFCURVE",
"75 1352 CURVE SMOOTH",
"75 1336 OFFCURVE",
"83 1333 OFFCURVE",
"105 1331 CURVE SMOOTH",
"153 1326 OFFCURVE",
"235 1342 OFFCURVE",
"255 1254 CURVE SMOOTH",
"485 -18 LINE {name = hr00;}"
);
}
);
width = 1365;
},
{
anchors = (
{
name = bottom;
position = "{711, 0}";
},
{
name = btm;
position = "{614, -170}";
},
{
name = top;
position = "{1043, 1419}";
}
);
layerId = "BDB4B313-38B1-4B24-B843-560B185382BD";
paths = (
{
closed = 1;
nodes = (
"706 -18 LINE",
"1529 1241 LINE",
"1583 1326 OFFCURVE",
"1665 1326 OFFCURVE",
"1715 1331 CURVE SMOOTH",
"1743 1334 OFFCURVE",
"1753 1338 OFFCURVE",
"1758 1368 CURVE SMOOTH",
"1759 1371 OFFCURVE",
"1759 1374 OFFCURVE",
"1759 1377 CURVE SMOOTH",
"1759 1394 OFFCURVE",
"1752 1419 OFFCURVE",
"1734 1419 CURVE SMOOTH",
"1279 1419 LINE SMOOTH",
"1256 1419 OFFCURVE",
"1238 1383 OFFCURVE",
"1235 1368 CURVE SMOOTH",
"1234 1364 OFFCURVE",
"1234 1359 OFFCURVE",
"1234 1356 CURVE SMOOTH",
"1234 1342 OFFCURVE",
"1240 1333 OFFCURVE",
"1261 1331 CURVE SMOOTH",
"1364 1325 OFFCURVE",
"1404 1304 OFFCURVE",
"1404 1271 CURVE SMOOTH",
"1404 1263 OFFCURVE",
"1402 1255 OFFCURVE",
"1398 1246 CURVE",
"753 222 LINE",
"746 222 LINE",
"595 1250 LINE SMOOTH",
"595 1253 OFFCURVE",
"594 1256 OFFCURVE",
"594 1258 CURVE SMOOTH",
"594 1301 OFFCURVE",
"646 1323 OFFCURVE",
"754 1331 CURVE SMOOTH",
"780 1333 OFFCURVE",
"790 1347 OFFCURVE",
"794 1368 CURVE SMOOTH",
"795 1371 OFFCURVE",
"795 1374 OFFCURVE",
"795 1378 CURVE SMOOTH",
"795 1395 OFFCURVE",
"789 1419 OFFCURVE",
"770 1419 CURVE SMOOTH",
"95 1419 LINE SMOOTH",
"73 1419 OFFCURVE",
"54 1383 OFFCURVE",
"51 1368 CURVE SMOOTH",
"50 1362 OFFCURVE",
"49 1357 OFFCURVE",
"49 1353 CURVE SMOOTH",
"49 1336 OFFCURVE",
"58 1333 OFFCURVE",
"80 1331 CURVE SMOOTH",
"128 1326 OFFCURVE",
"210 1342 OFFCURVE",
"226 1254 CURVE SMOOTH",
"460 -18 LINE"
);
}
);
width = 1561;
}
);
unicode = 0056;
},
{
color = 4;
glyphname = W;
lastChange = "2018-07-18 04:24:31 +0000";
layers = (
{
anchors = (
{
name = bottom;
position = "{929, 0}";
},
{
name = btm;
position = "{961, -170}";
},
{
name = top;
position = "{1202, 1419}";
}
);
layerId = "D92FDD0B-F694-41DD-AE46-0E4F694F0F38";
paths = (
{
closed = 1;
nodes = (
"540 -18 LINE",
"1090 1053 LINE",
"1230 -18 LINE",
"1353 -18 LINE",
"1975 1254 LINE SMOOTH",
"2015 1344 OFFCURVE",
"2087 1326 OFFCURVE",
"2137 1331 CURVE SMOOTH",
"2165 1334 OFFCURVE",
"2175 1338 OFFCURVE",
"2180 1368 CURVE SMOOTH",
"2181 1383 OFFCURVE",
"2176 1419 OFFCURVE",
"2154 1419 CURVE SMOOTH",
"1709 1419 LINE SMOOTH",
"1686 1419 OFFCURVE",
"1668 1383 OFFCURVE",
"1667 1368 CURVE SMOOTH",
"1666 1364 OFFCURVE",
"1666 1359 OFFCURVE",
"1666 1355 CURVE SMOOTH",
"1666 1341 OFFCURVE",
"1672 1331 OFFCURVE",
"1693 1331 CURVE SMOOTH",
"1782 1331 OFFCURVE",
"1838 1319 OFFCURVE",
"1838 1285 CURVE SMOOTH",
"1838 1279 OFFCURVE",
"1837 1273 OFFCURVE",
"1834 1267 CURVE SMOOTH",
"1386 281 LINE",
"1251 1399 LINE",
"1143 1399 LINE",
"577 286 LINE",
"489 1261 LINE SMOOTH",
"484 1309 OFFCURVE",
"538 1331 OFFCURVE",
"651 1331 CURVE SMOOTH",
"677 1331 OFFCURVE",
"687 1347 OFFCURVE",
"691 1368 CURVE SMOOTH",
"692 1383 OFFCURVE",
"688 1419 OFFCURVE",
"665 1419 CURVE SMOOTH",
"150 1419 LINE SMOOTH",
"128 1419 OFFCURVE",
"109 1383 OFFCURVE",
"108 1368 CURVE SMOOTH",
"107 1362 OFFCURVE",
"106 1357 OFFCURVE",
"106 1353 CURVE SMOOTH",
"106 1336 OFFCURVE",
"115 1333 OFFCURVE",
"137 1331 CURVE SMOOTH",
"185 1326 OFFCURVE",
"266 1343 OFFCURVE",
"277 1254 CURVE SMOOTH",
"417 -18 LINE {name = hr00;}"
);
}
);
width = 1998;
},
{
anchors = (
{
name = bottom;
position = "{1084, 0}";
},
{
name = btm;
position = "{947, -170}";
},
{
name = top;
position = "{1380, 1419}";
}
);
layerId = "BDB4B313-38B1-4B24-B843-560B185382BD";
paths = (
{
closed = 1;
nodes = (
"669 -18 LINE",
"1203 1039 LINE",
"1287 -18 LINE",
"1562 -18 LINE",
"2256 1254 LINE SMOOTH",
"2296 1328 OFFCURVE",
"2391 1326 OFFCURVE",
"2442 1331 CURVE SMOOTH",
"2470 1334 OFFCURVE",
"2480 1338 OFFCURVE",
"2485 1368 CURVE SMOOTH",
"2486 1371 OFFCURVE",
"2486 1374 OFFCURVE",
"2486 1377 CURVE SMOOTH",
"2486 1394 OFFCURVE",
"2479 1419 OFFCURVE",
"2461 1419 CURVE SMOOTH",
"1916 1419 LINE SMOOTH",
"1893 1419 OFFCURVE",
"1875 1383 OFFCURVE",
"1872 1368 CURVE SMOOTH",
"1871 1364 OFFCURVE",
"1871 1359 OFFCURVE",
"1871 1355 CURVE SMOOTH",
"1871 1341 OFFCURVE",
"1877 1331 OFFCURVE",
"1898 1331 CURVE SMOOTH",
"1994 1331 OFFCURVE",
"2090 1307 OFFCURVE",
"2090 1260 CURVE SMOOTH",
"2090 1255 OFFCURVE",
"2088 1249 OFFCURVE",
"2085 1242 CURVE SMOOTH",
"1616 291 LINE",
"1603 291 LINE",
"1502 1399 LINE",
"1244 1399 LINE",
"716 291 LINE",
"702 291 LINE",
"619 1261 LINE SMOOTH",
"615 1309 OFFCURVE",
"692 1331 OFFCURVE",
"803 1331 CURVE SMOOTH",
"829 1331 OFFCURVE",
"839 1347 OFFCURVE",
"843 1368 CURVE SMOOTH",
"844 1371 OFFCURVE",
"844 1374 OFFCURVE",
"844 1378 CURVE SMOOTH",
"844 1395 OFFCURVE",
"838 1419 OFFCURVE",
"819 1419 CURVE SMOOTH",
"119 1419 LINE SMOOTH",
"97 1419 OFFCURVE",
"78 1383 OFFCURVE",
"75 1368 CURVE SMOOTH",
"74 1362 OFFCURVE",
"73 1357 OFFCURVE",
"73 1353 CURVE SMOOTH",
"73 1336 OFFCURVE",
"82 1333 OFFCURVE",
"104 1331 CURVE SMOOTH",
"152 1326 OFFCURVE",
"263 1343 OFFCURVE",
"270 1254 CURVE",
"416 -18 LINE"
);
}
);
width = 2307;
}
);
unicode = 0057;
},
{
color = 4;
glyphname = X;
lastChange = "2018-07-18 04:25:18 +0000";
layers = (
{
layerId = "D92FDD0B-F694-41DD-AE46-0E4F694F0F38";
paths = (
{
closed = 1;
nodes = (
"-58 49 OFFCURVE",
"-59 46 OFFCURVE",
"-59 43 CURVE SMOOTH",
"-59 26 OFFCURVE",
"-52 0 OFFCURVE",
"-33 0 CURVE SMOOTH",
"492 0 LINE SMOOTH",
"514 0 OFFCURVE",
"530 36 OFFCURVE",
"533 51 CURVE SMOOTH",
"534 56 OFFCURVE",
"535 60 OFFCURVE",
"535 64 CURVE SMOOTH",
"535 77 OFFCURVE",
"527 86 OFFCURVE",
"508 88 CURVE",
"366 92 OFFCURVE",
"323 109 OFFCURVE",
"323 134 CURVE SMOOTH",
"323 143 OFFCURVE",
"328 152 OFFCURVE",
"335 162 CURVE",
"706 613 LINE",
"942 132 LINE",
"944 127 OFFCURVE",
"944 123 OFFCURVE",
"944 120 CURVE SMOOTH",
"944 91 OFFCURVE",
"896 92 OFFCURVE",
"835 88 CURVE",
"808 85 OFFCURVE",
"799 72 OFFCURVE",
"794 51 CURVE SMOOTH",
"791 36 OFFCURVE",
"799 0 OFFCURVE",
"821 0 CURVE SMOOTH",
"1327 0 LINE SMOOTH",
"1349 0 OFFCURVE",
"1365 36 OFFCURVE",
"1368 51 CURVE SMOOTH",
"1369 57 OFFCURVE",
"1370 62 OFFCURVE",
"1370 67 CURVE SMOOTH",
"1370 83 OFFCURVE",
"1361 86 OFFCURVE",
"1340 88 CURVE SMOOTH",
"1299 93 OFFCURVE",
"1204 86 OFFCURVE",
"1173 165 CURVE",
"852 758 LINE",
"1306 1254 LINE",
"1378 1330 OFFCURVE",
"1469 1326 OFFCURVE",
"1519 1331 CURVE SMOOTH",
"1547 1334 OFFCURVE",
"1557 1338 OFFCURVE",
"1562 1368 CURVE SMOOTH",
"1563 1371 OFFCURVE",
"1563 1375 OFFCURVE",
"1563 1379 CURVE SMOOTH",
"1563 1396 OFFCURVE",
"1557 1419 OFFCURVE",
"1539 1419 CURVE SMOOTH",
"1034 1419 LINE SMOOTH",
"1011 1419 OFFCURVE",
"993 1383 OFFCURVE",
"989 1368 CURVE SMOOTH",
"988 1364 OFFCURVE",
"988 1359 OFFCURVE",
"988 1355 CURVE SMOOTH",
"988 1341 OFFCURVE",
"994 1331 OFFCURVE",
"1015 1331 CURVE SMOOTH",
"1112 1331 OFFCURVE",
"1181 1310 OFFCURVE",
"1181 1281 CURVE SMOOTH",
"1181 1274 OFFCURVE",
"1176 1266 OFFCURVE",
"1166 1257 CURVE",
"809 839 LINE",
"587 1287 LINE",
"585 1292 OFFCURVE",
"584 1296 OFFCURVE",
"584 1300 CURVE SMOOTH",
"584 1329 OFFCURVE",
"633 1331 OFFCURVE",
"695 1331 CURVE SMOOTH",
"721 1331 OFFCURVE",
"731 1347 OFFCURVE",
"735 1368 CURVE SMOOTH",
"736 1371 OFFCURVE",
"736 1376 OFFCURVE",
"736 1380 CURVE SMOOTH",
"736 1397 OFFCURVE",
"730 1419 OFFCURVE",
"712 1419 CURVE SMOOTH",
"200 1419 LINE SMOOTH",
"178 1419 OFFCURVE",
"159 1383 OFFCURVE",
"155 1368 CURVE SMOOTH",
"154 1362 OFFCURVE",
"153 1357 OFFCURVE",
"153 1353 CURVE SMOOTH",
"153 1336 OFFCURVE",
"162 1333 OFFCURVE",
"184 1331 CURVE SMOOTH",
"232 1326 OFFCURVE",
"324 1333 OFFCURVE",
"358 1254 CURVE",
"658 684 LINE",
"191 165 LINE",
"127 88 OFFCURVE",
"30 93 OFFCURVE",
"-14 88 CURVE SMOOTH",
"-43 85 OFFCURVE",
"-51 81 OFFCURVE",
"-58 51 CURVE SMOOTH {name = hr00;}"
);
}
);
width = 1455;
},
{
layerId = "BDB4B313-38B1-4B24-B843-560B185382BD";
paths = (
{
closed = 1;
nodes = (
"-65 49 OFFCURVE",
"-66 46 OFFCURVE",
"-66 43 CURVE SMOOTH",
"-66 26 OFFCURVE",
"-59 0 OFFCURVE",
"-40 0 CURVE SMOOTH",
"495 0 LINE SMOOTH",
"518 0 OFFCURVE",
"533 28 OFFCURVE",
"533 48 CURVE SMOOTH",
"533 70 OFFCURVE",
"530 85 OFFCURVE",
"505 88 CURVE",
"391 92 OFFCURVE",
"338 111 OFFCURVE",
"338 136 CURVE SMOOTH",
"338 144 OFFCURVE",
"344 153 OFFCURVE",
"354 162 CURVE SMOOTH",
"735 582 LINE",
"928 181 LINE SMOOTH",
"935 165 OFFCURVE",
"950 136 OFFCURVE",
"950 120 CURVE SMOOTH",
"950 100 OFFCURVE",
"930 94 OFFCURVE",
"822 88 CURVE",
"795 85 OFFCURVE",
"786 72 OFFCURVE",
"779 51 CURVE",
"778 48 OFFCURVE",
"778 45 OFFCURVE",
"778 42 CURVE SMOOTH",
"778 25 OFFCURVE",
"785 0 OFFCURVE",
"804 0 CURVE SMOOTH",
"1476 0 LINE SMOOTH",
"1498 0 OFFCURVE",
"1519 28 OFFCURVE",
"1519 51 CURVE SMOOTH",
"1519 66 OFFCURVE",
"1515 86 OFFCURVE",
"1493 88 CURVE SMOOTH",
"1445 92 OFFCURVE",
"1359 89 OFFCURVE",
"1320 165 CURVE SMOOTH",
"988 774 LINE",
"1465 1254 LINE SMOOTH",
"1542 1328 OFFCURVE",
"1622 1326 OFFCURVE",
"1672 1331 CURVE SMOOTH",
"1700 1334 OFFCURVE",
"1710 1338 OFFCURVE",
"1715 1368 CURVE",
"1717 1372 OFFCURVE",
"1717 1378 OFFCURVE",
"1717 1383 CURVE SMOOTH",
"1717 1400 OFFCURVE",
"1711 1419 OFFCURVE",
"1694 1419 CURVE SMOOTH",
"1219 1419 LINE SMOOTH",
"1196 1419 OFFCURVE",
"1183 1390 OFFCURVE",
"1182 1368 CURVE SMOOTH",
"1180 1347 OFFCURVE",
"1182 1331 OFFCURVE",
"1208 1331 CURVE SMOOTH",
"1280 1331 OFFCURVE",
"1329 1312 OFFCURVE",
"1329 1284 CURVE SMOOTH",
"1329 1276 OFFCURVE",
"1324 1267 OFFCURVE",
"1315 1257 CURVE SMOOTH",
"953 858 LINE",
"753 1276 LINE SMOOTH",
"748 1287 OFFCURVE",
"745 1294 OFFCURVE",
"745 1303 CURVE SMOOTH",
"745 1322 OFFCURVE",
"770 1331 OFFCURVE",
"868 1331 CURVE SMOOTH",
"894 1331 OFFCURVE",
"910 1359 OFFCURVE",
"910 1380 CURVE SMOOTH",
"910 1396 OFFCURVE",
"910 1419 OFFCURVE",
"887 1419 CURVE SMOOTH",
"218 1419 LINE SMOOTH",
"196 1419 OFFCURVE",
"175 1389 OFFCURVE",
"175 1371 CURVE SMOOTH",
"175 1350 OFFCURVE",
"181 1333 OFFCURVE",
"209 1330 CURVE SMOOTH",
"297 1321 OFFCURVE",
"355 1316 OFFCURVE",
"387 1254 CURVE SMOOTH",
"699 660 LINE",
"200 165 LINE SMOOTH",
"124 92 OFFCURVE",
"31 93 OFFCURVE",
"-19 88 CURVE SMOOTH",
"-48 85 OFFCURVE",
"-56 81 OFFCURVE",
"-65 51 CURVE"
);
}
);
width = 1643;
}
);
unicode = 0058;
},
{
color = 4;
glyphname = Y;
lastChange = "2018-07-18 04:25:00 +0000";
layers = (
{
anchors = (
{
name = bottom;
position = "{560, 0}";
},
{
name = btm;
position = "{535, -170}";
},
{
name = top;
position = "{813, 1419}";
},
{
name = topleft;
position = "{150, 1419}";
}
);
layerId = "D92FDD0B-F694-41DD-AE46-0E4F694F0F38";
paths = (
{
closed = 1;
nodes = (
"265 26 OFFCURVE",
"273 0 OFFCURVE",
"293 0 CURVE SMOOTH",
"878 0 LINE SMOOTH",
"900 0 OFFCURVE",
"916 36 OFFCURVE",
"919 51 CURVE SMOOTH",
"920 54 OFFCURVE",
"920 57 OFFCURVE",
"920 60 CURVE SMOOTH",
"920 82 OFFCURVE",
"903 85 OFFCURVE",
"879 88 CURVE",
"809 93 OFFCURVE",
"700 80 OFFCURVE",
"700 152 CURVE SMOOTH",
"700 156 OFFCURVE",
"700 160 OFFCURVE",
"701 165 CURVE SMOOTH",
"764 541 LINE",
"1274 1254 LINE SMOOTH",
"1334 1335 OFFCURVE",
"1390 1336 OFFCURVE",
"1440 1341 CURVE SMOOTH",
"1468 1344 OFFCURVE",
"1477 1348 OFFCURVE",
"1482 1378 CURVE SMOOTH",
"1485 1393 OFFCURVE",
"1478 1419 OFFCURVE",
"1456 1419 CURVE SMOOTH",
"1035 1419 LINE SMOOTH",
"1008 1419 OFFCURVE",
"993 1384 OFFCURVE",
"993 1372 CURVE SMOOTH",
"993 1352 OFFCURVE",
"1005 1331 OFFCURVE",
"1029 1331 CURVE SMOOTH",
"1120 1331 OFFCURVE",
"1154 1315 OFFCURVE",
"1154 1290 CURVE SMOOTH",
"1154 1280 OFFCURVE",
"1150 1270 OFFCURVE",
"1142 1258 CURVE SMOOTH",
"721 639 LINE",
"456 1287 LINE SMOOTH",
"455 1291 OFFCURVE",
"454 1294 OFFCURVE",
"454 1297 CURVE SMOOTH",
"454 1332 OFFCURVE",
"528 1331 OFFCURVE",
"606 1331 CURVE SMOOTH",
"635 1331 OFFCURVE",
"654 1364 OFFCURVE",
"654 1386 CURVE SMOOTH",
"654 1400 OFFCURVE",
"646 1419 OFFCURVE",
"627 1419 CURVE SMOOTH",
"112 1419 LINE SMOOTH",
"90 1419 OFFCURVE",
"73 1393 OFFCURVE",
"70 1378 CURVE SMOOTH",
"69 1372 OFFCURVE",
"69 1367 OFFCURVE",
"69 1363 CURVE SMOOTH",
"69 1346 OFFCURVE",
"77 1343 OFFCURVE",
"100 1341 CURVE SMOOTH",
"148 1336 OFFCURVE",
"205 1337 OFFCURVE",
"236 1254 CURVE SMOOTH",
"555 534 LINE",
"491 152 LINE SMOOTH",
"479 81 OFFCURVE",
"383 93 OFFCURVE",
"315 88 CURVE",
"286 85 OFFCURVE",
"265 69 OFFCURVE",
"265 43 CURVE SMOOTH {name = hr00;}"
);
}
);
width = 1260;
},
{
anchors = (
{
name = bottom;
position = "{680, 0}";
},
{
name = btm;
position = "{629, -170}";
},
{
name = top;
position = "{963, 1419}";
},
{
name = topleft;
position = "{150, 1419}";
}
);
layerId = "BDB4B313-38B1-4B24-B843-560B185382BD";
paths = (
{
closed = 1;
nodes = (
"246 25 OFFCURVE",
"253 0 OFFCURVE",
"272 0 CURVE SMOOTH",
"1001 0 LINE SMOOTH",
"1023 0 OFFCURVE",
"1041 36 OFFCURVE",
"1044 51 CURVE SMOOTH",
"1045 55 OFFCURVE",
"1046 59 OFFCURVE",
"1046 63 CURVE SMOOTH",
"1046 82 OFFCURVE",
"1029 85 OFFCURVE",
"1006 88 CURVE SMOOTH",
"944 94 OFFCURVE",
"828 81 OFFCURVE",
"828 150 CURVE SMOOTH",
"828 155 OFFCURVE",
"829 160 OFFCURVE",
"830 165 CURVE SMOOTH",
"890 547 LINE",
"1420 1254 LINE SMOOTH",
"1484 1336 OFFCURVE",
"1539 1336 OFFCURVE",
"1590 1341 CURVE SMOOTH",
"1618 1344 OFFCURVE",
"1627 1348 OFFCURVE",
"1634 1378 CURVE SMOOTH",
"1637 1393 OFFCURVE",
"1630 1419 OFFCURVE",
"1608 1419 CURVE SMOOTH",
"1163 1419 LINE SMOOTH",
"1140 1419 OFFCURVE",
"1124 1393 OFFCURVE",
"1121 1378 CURVE SMOOTH",
"1120 1375 OFFCURVE",
"1120 1372 OFFCURVE",
"1120 1369 CURVE SMOOTH",
"1120 1350 OFFCURVE",
"1133 1331 OFFCURVE",
"1155 1331 CURVE SMOOTH",
"1249 1331 OFFCURVE",
"1286 1315 OFFCURVE",
"1286 1288 CURVE SMOOTH",
"1286 1279 OFFCURVE",
"1282 1269 OFFCURVE",
"1274 1258 CURVE SMOOTH",
"827 639 LINE",
"569 1287 LINE SMOOTH",
"567 1291 OFFCURVE",
"567 1294 OFFCURVE",
"567 1297 CURVE SMOOTH",
"567 1321 OFFCURVE",
"611 1328 OFFCURVE",
"731 1331 CURVE SMOOTH",
"757 1332 OFFCURVE",
"780 1358 OFFCURVE",
"780 1378 CURVE SMOOTH",
"780 1393 OFFCURVE",
"777 1419 OFFCURVE",
"754 1419 CURVE SMOOTH",
"97 1419 LINE SMOOTH",
"75 1419 OFFCURVE",
"55 1398 OFFCURVE",
"55 1378 CURVE SMOOTH",
"55 1360 OFFCURVE",
"55 1343 OFFCURVE",
"83 1341 CURVE SMOOTH",
"168 1335 OFFCURVE",
"202 1307 OFFCURVE",
"223 1254 CURVE SMOOTH",
"543 534 LINE",
"476 152 LINE SMOOTH",
"462 81 OFFCURVE",
"366 94 OFFCURVE",
"298 88 CURVE SMOOTH",
"268 86 OFFCURVE",
"246 68 OFFCURVE",
"246 42 CURVE SMOOTH"
);
}
);
width = 1499;
}
);
unicode = 0059;
},
{
color = 4;
glyphname = Z;
lastChange = "2018-07-18 04:25:32 +0000";
layers = (
{
anchors = (
{
name = bottom;
position = "{546, 0}";
},
{
name = btm;
position = "{449, -170}";
},
{
name = top;
position = "{747, 1419}";
}
);
layerId = "D92FDD0B-F694-41DD-AE46-0E4F694F0F38";
paths = (
{
closed = 1;
nodes = (
"-38 15 OFFCURVE",
"-20 0 OFFCURVE",
"-4 0 CURVE SMOOTH",
"982 0 LINE",
"1000 1 OFFCURVE",
"1016 14 OFFCURVE",
"1034 41 CURVE",
"1115 429 LINE",
"1119 452 OFFCURVE",
"1074 463 OFFCURVE",
"1059 463 CURVE SMOOTH",
"1038 463 OFFCURVE",
"1025 456 OFFCURVE",
"1017 430 CURVE SMOOTH",
"1004 381 OFFCURVE",
"874 83 OFFCURVE",
"714 83 CURVE SMOOTH",
"236 83 LINE",
"1186 1323 LINE SMOOTH",
"1194 1333 OFFCURVE",
"1212 1352 OFFCURVE",
"1212 1374 CURVE SMOOTH",
"1212 1388 LINE SMOOTH",
"1212 1407 OFFCURVE",
"1199 1419 OFFCURVE",
"1178 1419 CURVE SMOOTH",
"256 1419 LINE",
"236 1418 OFFCURVE",
"218 1405 OFFCURVE",
"201 1378 CURVE",
"127 1020 LINE",
"123 997 OFFCURVE",
"165 986 OFFCURVE",
"180 986 CURVE SMOOTH",
"201 986 OFFCURVE",
"216 993 OFFCURVE",
"224 1019 CURVE SMOOTH",
"236 1068 OFFCURVE",
"371 1331 OFFCURVE",
"469 1331 CURVE SMOOTH",
"933 1331 LINE",
"14 123 LINE",
"-29 69 OFFCURVE",
"-38 53 OFFCURVE",
"-38 40 CURVE SMOOTH",
"-38 34 LINE SMOOTH {name = hr00;}"
);
}
);
width = 1232;
},
{
anchors = (
{
name = bottom;
position = "{636, 0}";
},
{
name = btm;
position = "{445, -170}";
},
{
name = top;
position = "{808, 1419}";
}
);
layerId = "BDB4B313-38B1-4B24-B843-560B185382BD";
paths = (
{
closed = 1;
nodes = (
"-43 12 OFFCURVE",
"-30 0 OFFCURVE",
"-4 0 CURVE SMOOTH",
"1109 0 LINE",
"1129 1 OFFCURVE",
"1145 14 OFFCURVE",
"1163 41 CURVE",
"1288 429 LINE",
"1292 452 OFFCURVE",
"1249 463 OFFCURVE",
"1234 463 CURVE SMOOTH",
"1203 463 OFFCURVE",
"1182 456 OFFCURVE",
"1170 430 CURVE SMOOTH",
"1155 381 OFFCURVE",
"969 83 OFFCURVE",
"835 83 CURVE SMOOTH",
"380 83 LINE",
"1324 1330 LINE SMOOTH",
"1331 1340 OFFCURVE",
"1339 1348 OFFCURVE",
"1339 1361 CURVE SMOOTH",
"1339 1389 LINE SMOOTH",
"1339 1408 OFFCURVE",
"1321 1419 OFFCURVE",
"1305 1419 CURVE SMOOTH",
"264 1419 LINE",
"244 1418 OFFCURVE",
"226 1405 OFFCURVE",
"209 1378 CURVE",
"111 1020 LINE",
"107 997 OFFCURVE",
"140 986 OFFCURVE",
"155 986 CURVE SMOOTH",
"186 986 OFFCURVE",
"207 993 OFFCURVE",
"219 1019 CURVE SMOOTH",
"234 1068 OFFCURVE",
"404 1331 OFFCURVE",
"506 1331 CURVE SMOOTH",
"913 1331 LINE",
"15 138 LINE",
"-32 84 OFFCURVE",
"-43 67 OFFCURVE",
"-43 50 CURVE SMOOTH",
"-43 31 LINE SMOOTH"
);
}
);
width = 1412;
}
);
unicode = 005A;
userData = {
com.typemytype.robofont.mark = (
0.6,
0.609,
1,
1
);
};
},
{
color = 4;
glyphname = a;
lastChange = "2018-07-18 04:27:10 +0000";
layers = (
{
anchors = (
{
name = bottom;
position = "{517, 0}";
},
{
name = btm;
position = "{554, -170}";
},
{
name = ogonek;
position = "{988, 10}";
},
{
name = top;
position = "{613, 994}";
}
);
layerId = "D92FDD0B-F694-41DD-AE46-0E4F694F0F38";
paths = (
{
closed = 1;
nodes = (
"1000 113 OFFCURVE",
"948 96 OFFCURVE",
"920 96 CURVE SMOOTH",
"874 96 OFFCURVE",
"861 117 OFFCURVE",
"861 147 CURVE SMOOTH",
"861 154 OFFCURVE",
"862 161 OFFCURVE",
"863 168 CURVE",
"1009 958 LINE",
"1010 961 OFFCURVE",
"1011 964 OFFCURVE",
"1011 967 CURVE SMOOTH",
"1011 982 OFFCURVE",
"1000 997 OFFCURVE",
"987 997 CURVE SMOOTH",
"984 997 OFFCURVE",
"980 996 OFFCURVE",
"977 994 CURVE",
"873 939 LINE",
"812 984 OFFCURVE",
"726 1013 OFFCURVE",
"588 1013 CURVE SMOOTH",
"286 1013 OFFCURVE",
"76 710 OFFCURVE",
"76 375 CURVE SMOOTH",
"76 160 OFFCURVE",
"149 -30 OFFCURVE",
"391 -30 CURVE SMOOTH",
"472 -30 OFFCURVE",
"579 8 OFFCURVE",
"663 104 CURVE",
"663 102 LINE SMOOTH",
"663 57 OFFCURVE",
"669 -13 OFFCURVE",
"785 -13 CURVE SMOOTH {name = hr02;}",
"834 -13 OFFCURVE",
"929 8 OFFCURVE",
"1020 41 CURVE SMOOTH",
"1038 47 OFFCURVE",
"1045 67 OFFCURVE",
"1045 83 CURVE SMOOTH {name = hr03;}",
"1045 112 OFFCURVE",
"1032 113 OFFCURVE",
"1020 113 CURVE SMOOTH"
);
},
{
closed = 1;
nodes = (
"616 149 OFFCURVE",
"524 88 OFFCURVE",
"447 88 CURVE SMOOTH {name = hr04;}",
"312 88 OFFCURVE",
"280 226 OFFCURVE",
"280 362 CURVE SMOOTH",
"280 574 OFFCURVE",
"344 918 OFFCURVE",
"591 918 CURVE SMOOTH",
"676 918 OFFCURVE",
"757 881 OFFCURVE",
"797 819 CURVE",
"749 590 OFFCURVE",
"701 356 OFFCURVE",
"678 216 CURVE"
);
}
);
width = 1173;
},
{
anchors = (
{
name = bottom;
position = "{606, 0}";
},
{
name = btm;
position = "{598, -170}";
},
{
name = ogonek;
position = "{1149, 10}";
},
{
name = top;
position = "{723, 994}";
}
);
layerId = "BDB4B313-38B1-4B24-B843-560B185382BD";
paths = (
{
closed = 1;
nodes = (
"593 -27 OFFCURVE",
"722 88 OFFCURVE",
"807 249 CURVE",
"795 201 OFFCURVE",
"783 135 OFFCURVE",
"783 88 CURVE SMOOTH",
"783 25 OFFCURVE",
"805 -25 OFFCURVE",
"917 -25 CURVE SMOOTH",
"1071 -25 OFFCURVE",
"1218 26 OFFCURVE",
"1245 34 CURVE SMOOTH",
"1251 36 OFFCURVE",
"1270 43 OFFCURVE",
"1270 77 CURVE SMOOTH",
"1270 95 OFFCURVE",
"1262 114 OFFCURVE",
"1242 114 CURVE SMOOTH",
"1238 114 OFFCURVE",
"1235 113 OFFCURVE",
"1231 112 CURVE SMOOTH",
"1205 105 OFFCURVE",
"1183 102 OFFCURVE",
"1164 102 CURVE SMOOTH",
"1147 102 OFFCURVE",
"1106 109 OFFCURVE",
"1106 147 CURVE SMOOTH",
"1106 159 OFFCURVE",
"1107 172 OFFCURVE",
"1109 189 CURVE SMOOTH",
"1238 970 LINE SMOOTH",
"1240 979 OFFCURVE",
"1241 986 OFFCURVE",
"1241 990 CURVE SMOOTH",
"1241 1006 OFFCURVE",
"1225 1011 OFFCURVE",
"1206 1011 CURVE SMOOTH",
"1185 1011 OFFCURVE",
"1157 999 OFFCURVE",
"1127 983 CURVE SMOOTH",
"1034 934 LINE",
"970 980 OFFCURVE",
"880 1011 OFFCURVE",
"719 1011 CURVE SMOOTH",
"337 1011 OFFCURVE",
"71 711 OFFCURVE",
"71 372 CURVE SMOOTH",
"71 131 OFFCURVE",
"229 -27 OFFCURVE",
"389 -27 CURVE SMOOTH"
);
},
{
closed = 1;
nodes = (
"467 153 OFFCURVE",
"400 179 OFFCURVE",
"400 371 CURVE SMOOTH",
"400 405 OFFCURVE",
"402 446 OFFCURVE",
"407 492 CURVE SMOOTH",
"432 731 OFFCURVE",
"558 920 OFFCURVE",
"740 920 CURVE SMOOTH",
"827 920 OFFCURVE",
"877 876 OFFCURVE",
"908 802 CURVE",
"833 406 LINE",
"787 315 OFFCURVE",
"628 153 OFFCURVE",
"518 153 CURVE SMOOTH"
);
}
);
width = 1352;
}
);
unicode = 0061;
},
{
glyphname = aogonek;
lastChange = "2018-07-18 03:33:48 +0000";
layers = (
{
components = (
{
name = a;
}
);
layerId = "D92FDD0B-F694-41DD-AE46-0E4F694F0F38";
paths = (
{
closed = 1;
nodes = (
"556 -385 OFFCURVE",
"641 -448 OFFCURVE",
"806 -448 CURVE SMOOTH",
"857 -448 OFFCURVE",
"910 -438 OFFCURVE",
"967 -422 CURVE SMOOTH",
"982 -418 OFFCURVE",
"994 -408 OFFCURVE",
"997 -393 CURVE SMOOTH",
"998 -386 OFFCURVE",
"999 -380 OFFCURVE",
"999 -375 CURVE SMOOTH",
"999 -359 OFFCURVE",
"994 -350 OFFCURVE",
"981 -349 CURVE SMOOTH",
"966 -348 OFFCURVE",
"937 -351 OFFCURVE",
"904 -351 CURVE SMOOTH",
"830 -351 OFFCURVE",
"734 -337 OFFCURVE",
"734 -238 CURVE SMOOTH",
"734 -176 OFFCURVE",
"761 -69 OFFCURVE",
"1027 31 CURVE",
"1027 31 OFFCURVE",
"876 15 OFFCURVE",
"876 15 CURVE",
"757 -1 OFFCURVE",
"556 -145 OFFCURVE",
"556 -278 CURVE SMOOTH {name = hr00;}"
);
}
);
width = 1173;
},
{
components = (
{
name = a;
}
);
layerId = "BDB4B313-38B1-4B24-B843-560B185382BD";
paths = (
{
closed = 1;
nodes = (
"657 -385 OFFCURVE",
"733 -452 OFFCURVE",
"899 -452 CURVE SMOOTH",
"999 -452 OFFCURVE",
"1123 -414 OFFCURVE",
"1199 -329 CURVE SMOOTH",
"1201 -327 OFFCURVE",
"1202 -323 OFFCURVE",
"1202 -318 CURVE SMOOTH",
"1202 -297 OFFCURVE",
"1181 -259 OFFCURVE",
"1159 -266 CURVE",
"1132 -280 OFFCURVE",
"1061 -330 OFFCURVE",
"997 -330 CURVE SMOOTH",
"940 -330 OFFCURVE",
"887 -313 OFFCURVE",
"887 -228 CURVE SMOOTH",
"887 -153 OFFCURVE",
"983 -68 OFFCURVE",
"1179 21 CURVE",
"1041 12 LINE",
"828 -28 OFFCURVE",
"657 -154 OFFCURVE",
"657 -293 CURVE SMOOTH {name = hr00;}"
);
}
);
width = 1352;
}
);
unicode = 0105;
},
{
glyphname = ae;
lastChange = "2018-07-18 04:27:53 +0000";
layers = (
{
anchors = (
{
name = btm;
position = "{824, -170}";
},
{
name = top;
position = "{1040, 994}";
}
);
layerId = "D92FDD0B-F694-41DD-AE46-0E4F694F0F38";
paths = (
{
closed = 1;
nodes = (
"1490 225 LINE",
"1481 231 OFFCURVE",
"1475 223 OFFCURVE",
"1468 215 CURVE",
"1374 124 OFFCURVE",
"1291 75 OFFCURVE",
"1173 75 CURVE SMOOTH",
"1074 75 OFFCURVE",
"990 152 OFFCURVE",
"986 360 CURVE",
"986 407 LINE",
"1299 465 OFFCURVE",
"1591 591 OFFCURVE",
"1587 804 CURVE SMOOTH",
"1586 898 OFFCURVE",
"1520 1014 OFFCURVE",
"1304 1014 CURVE SMOOTH",
"1202 1014 OFFCURVE",
"1101 975 OFFCURVE",
"1015 909 CURVE",
"980 979 OFFCURVE",
"911 1011 OFFCURVE",
"781 1011 CURVE SMOOTH",
"397 1011 OFFCURVE",
"88 628 OFFCURVE",
"88 282 CURVE SMOOTH",
"88 143 OFFCURVE",
"146 -27 OFFCURVE",
"344 -27 CURVE SMOOTH",
"477 -27 OFFCURVE",
"650 126 OFFCURVE",
"770 358 CURVE",
"779 123 OFFCURVE",
"913 -29 OFFCURVE",
"1144 -29 CURVE SMOOTH",
"1314 -29 OFFCURVE",
"1433 50 OFFCURVE",
"1522 164 CURVE",
"1524 170 OFFCURVE",
"1532 176 OFFCURVE",
"1532 183 CURVE SMOOTH",
"1532 186 OFFCURVE",
"1531 189 OFFCURVE",
"1527 192 CURVE"
);
},
{
closed = 1;
nodes = (
"1350 933 OFFCURVE",
"1399 901 OFFCURVE",
"1400 838 CURVE SMOOTH",
"1403 640 OFFCURVE",
"1255 540 OFFCURVE",
"990 484 CURVE",
"1017 768 OFFCURVE",
"1152 933 OFFCURVE",
"1299 933 CURVE SMOOTH"
);
},
{
closed = 1;
nodes = (
"690 306 OFFCURVE",
"497 113 OFFCURVE",
"388 113 CURVE SMOOTH",
"314 113 OFFCURVE",
"283 197 OFFCURVE",
"283 304 CURVE SMOOTH",
"283 575 OFFCURVE",
"481 926 OFFCURVE",
"760 926 CURVE SMOOTH",
"813 926 OFFCURVE",
"888 892 OFFCURVE",
"888 807 CURVE SMOOTH",
"888 792 OFFCURVE",
"885 775 OFFCURVE",
"880 757 CURVE",
"859 707 OFFCURVE",
"826 640 OFFCURVE",
"799 566 CURVE {name = hr00;}"
);
}
);
width = 1565;
},
{
anchors = (
{
name = btm;
position = "{744, -170}";
},
{
name = top;
position = "{1040, 994}";
}
);
layerId = "BDB4B313-38B1-4B24-B843-560B185382BD";
paths = (
{
closed = 1;
nodes = (
"1633 225 LINE",
"1624 231 OFFCURVE",
"1618 223 OFFCURVE",
"1611 215 CURVE",
"1501 143 OFFCURVE",
"1402 105 OFFCURVE",
"1264 105 CURVE SMOOTH",
"1166 105 OFFCURVE",
"1071 173 OFFCURVE",
"1071 360 CURVE SMOOTH",
"1071 376 OFFCURVE",
"1071 392 OFFCURVE",
"1072 407 CURVE",
"1501 465 OFFCURVE",
"1720 558 OFFCURVE",
"1720 781 CURVE SMOOTH",
"1720 875 OFFCURVE",
"1637 1014 OFFCURVE",
"1361 1014 CURVE SMOOTH",
"1242 1014 OFFCURVE",
"1130 981 OFFCURVE",
"1035 923 CURVE",
"987 965 OFFCURVE",
"895 1011 OFFCURVE",
"752 1011 CURVE SMOOTH",
"369 1011 OFFCURVE",
"65 690 OFFCURVE",
"65 286 CURVE SMOOTH",
"65 58 OFFCURVE",
"144 -27 OFFCURVE",
"334 -27 CURVE SMOOTH",
"508 -27 OFFCURVE",
"660 115 OFFCURVE",
"751 250 CURVE",
"800 77 OFFCURVE",
"951 -29 OFFCURVE",
"1173 -29 CURVE SMOOTH",
"1410 -29 OFFCURVE",
"1527 50 OFFCURVE",
"1664 164 CURVE",
"1667 170 OFFCURVE",
"1675 176 OFFCURVE",
"1675 183 CURVE SMOOTH",
"1675 186 OFFCURVE",
"1674 189 OFFCURVE",
"1670 192 CURVE"
);
},
{
closed = 1;
nodes = (
"1400 933 OFFCURVE",
"1419 871 OFFCURVE",
"1419 808 CURVE SMOOTH",
"1419 630 OFFCURVE",
"1298 534 OFFCURVE",
"1077 484 CURVE",
"1101 768 OFFCURVE",
"1203 933 OFFCURVE",
"1315 933 CURVE SMOOTH"
);
},
{
closed = 1;
nodes = (
"734 375 LINE",
"660 264 OFFCURVE",
"557 153 OFFCURVE",
"494 153 CURVE SMOOTH",
"431 153 OFFCURVE",
"391 199 OFFCURVE",
"391 300 CURVE SMOOTH",
"391 661 OFFCURVE",
"546 926 OFFCURVE",
"742 926 CURVE SMOOTH",
"824 926 OFFCURVE",
"880 880 OFFCURVE",
"884 794 CURVE",
"791 684 OFFCURVE",
"734 541 OFFCURVE",
"734 381 CURVE SMOOTH"
);
}
);
width = 1754;
}
);
unicode = 00E6;
userData = {
com.typemytype.robofont.mark = (
0.6,
0.609,
1,
1
);
};
},
{
color = 4;
glyphname = b;
lastChange = "2018-07-18 04:28:09 +0000";
layers = (
{
anchors = (
{
name = bottom;
position = "{497, 0}";
},
{
name = btm;
position = "{559, -170}";
},
{
name = top;
position = "{770, 994}";
}
);
layerId = "D92FDD0B-F694-41DD-AE46-0E4F694F0F38";
paths = (
{
closed = 1;
nodes = (
"133 70 OFFCURVE",
"324 -30 OFFCURVE",
"514 -30 CURVE SMOOTH",
"791 -30 OFFCURVE",
"975 223 OFFCURVE",
"1008 492 CURVE SMOOTH",
"1013 534 OFFCURVE",
"1016 576 OFFCURVE",
"1016 617 CURVE SMOOTH",
"1016 828 OFFCURVE",
"939 1013 OFFCURVE",
"701 1013 CURVE SMOOTH",
"601 1013 OFFCURVE",
"463 959 OFFCURVE",
"372 815 CURVE",
"431 1104 LINE",
"492 1506 LINE SMOOTH",
"492 1509 OFFCURVE",
"493 1512 OFFCURVE",
"493 1514 CURVE SMOOTH",
"493 1536 OFFCURVE",
"479 1546 OFFCURVE",
"468 1546 CURVE SMOOTH",
"457 1546 OFFCURVE",
"442 1546 OFFCURVE",
"426 1546 CURVE SMOOTH",
"359 1546 OFFCURVE",
"255 1545 OFFCURVE",
"148 1539 CURVE SMOOTH",
"129 1538 OFFCURVE",
"116 1502 OFFCURVE",
"116 1488 CURVE SMOOTH",
"116 1468 OFFCURVE",
"124 1461 OFFCURVE",
"134 1455 CURVE SMOOTH",
"182 1428 OFFCURVE",
"279 1439 OFFCURVE",
"279 1368 CURVE SMOOTH",
"279 1364 OFFCURVE",
"279 1359 OFFCURVE",
"278 1354 CURVE SMOOTH",
"92 126 LINE {name = hr00;}"
);
},
{
closed = 1;
nodes = (
"424 802 OFFCURVE",
"546 895 OFFCURVE",
"645 895 CURVE SMOOTH",
"775 895 OFFCURVE",
"812 804 OFFCURVE",
"812 657 CURVE SMOOTH",
"812 608 OFFCURVE",
"808 552 OFFCURVE",
"802 492 CURVE SMOOTH",
"770 252 OFFCURVE",
"684 65 OFFCURVE",
"491 65 CURVE SMOOTH",
"385 65 OFFCURVE",
"305 129 OFFCURVE",
"285 173 CURVE",
"367 719 LINE"
);
}
);
width = 1134;
},
{
anchors = (
{
name = bottom;
position = "{595, 0}";
},
{
name = btm;
position = "{585, -170}";
},
{
name = top;
position = "{931, 994}";
}
);
layerId = "BDB4B313-38B1-4B24-B843-560B185382BD";
paths = (
{
closed = 1;
nodes = (
"139 70 OFFCURVE",
"375 -30 OFFCURVE",
"601 -30 CURVE SMOOTH",
"1002 -30 OFFCURVE",
"1210 223 OFFCURVE",
"1255 492 CURVE SMOOTH",
"1260 529 OFFCURVE",
"1263 565 OFFCURVE",
"1263 600 CURVE SMOOTH",
"1263 830 OFFCURVE",
"1144 1013 OFFCURVE",
"865 1013 CURVE SMOOTH",
"744 1013 OFFCURVE",
"602 953 OFFCURVE",
"501 825 CURVE",
"548 1104 LINE",
"604 1508 LINE SMOOTH",
"605 1512 OFFCURVE",
"605 1515 OFFCURVE",
"605 1518 CURVE SMOOTH",
"605 1542 OFFCURVE",
"590 1548 OFFCURVE",
"580 1548 CURVE SMOOTH",
"500 1547 OFFCURVE",
"333 1546 OFFCURVE",
"145 1538 CURVE SMOOTH",
"129 1537 OFFCURVE",
"117 1510 OFFCURVE",
"114 1494 CURVE SMOOTH",
"111 1469 OFFCURVE",
"120 1460 OFFCURVE",
"133 1454 CURVE",
"181 1441 OFFCURVE",
"276 1451 OFFCURVE",
"276 1355 CURVE SMOOTH",
"276 1347 OFFCURVE",
"275 1338 OFFCURVE",
"274 1329 CURVE SMOOTH",
"89 126 LINE"
);
},
{
closed = 1;
nodes = (
"541 770 OFFCURVE",
"631 865 OFFCURVE",
"742 865 CURVE SMOOTH",
"873 865 OFFCURVE",
"918 771 OFFCURVE",
"918 622 CURVE SMOOTH",
"918 582 OFFCURVE",
"914 539 OFFCURVE",
"909 492 CURVE SMOOTH",
"877 252 OFFCURVE",
"771 65 OFFCURVE",
"578 65 CURVE SMOOTH",
"494 65 OFFCURVE",
"423 110 OFFCURVE",
"410 165 CURVE",
"491 702 LINE"
);
}
);
width = 1329;
}
);
unicode = 0062;
},
{
color = 4;
glyphname = c;
lastChange = "2018-07-18 04:29:11 +0000";
layers = (
{
anchors = (
{
name = bottom;
position = "{395, 0}";
},
{
name = btm;
position = "{380, -170}";
},
{
name = top;
position = "{593, 994}";
}
);
layerId = "D92FDD0B-F694-41DD-AE46-0E4F694F0F38";
paths = (
{
closed = 1;
nodes = (
"333 1014 OFFCURVE",
"69 740 OFFCURVE",
"69 381 CURVE SMOOTH",
"69 133 OFFCURVE",
"199 -28 OFFCURVE",
"437 -28 CURVE SMOOTH",
"603 -28 OFFCURVE",
"719 50 OFFCURVE",
"808 164 CURVE",
"811 170 OFFCURVE",
"819 176 OFFCURVE",
"819 183 CURVE SMOOTH",
"819 186 OFFCURVE",
"818 189 OFFCURVE",
"814 192 CURVE SMOOTH",
"777 225 LINE",
"768 231 OFFCURVE",
"762 223 OFFCURVE",
"755 215 CURVE",
"663 124 OFFCURVE",
"582 75 OFFCURVE",
"468 75 CURVE SMOOTH",
"369 75 OFFCURVE",
"286 152 OFFCURVE",
"286 360 CURVE SMOOTH",
"286 720 OFFCURVE",
"428 933 OFFCURVE",
"579 933 CURVE SMOOTH",
"618 933 OFFCURVE",
"652 925 OFFCURVE",
"665 914 CURVE",
"719 705 LINE SMOOTH",
"731 660 OFFCURVE",
"750 662 OFFCURVE",
"789 662 CURVE SMOOTH",
"831 662 OFFCURVE",
"893 704 OFFCURVE",
"893 787 CURVE SMOOTH",
"893 944 OFFCURVE",
"762 1014 OFFCURVE",
"595 1014 CURVE SMOOTH {name = hr00;}"
);
}
);
width = 929;
},
{
anchors = (
{
name = bottom;
position = "{479, 0}";
},
{
name = btm;
position = "{478, -170}";
},
{
name = top;
position = "{706, 994}";
}
);
layerId = "BDB4B313-38B1-4B24-B843-560B185382BD";
paths = (
{
closed = 1;
nodes = (
"350 1014 OFFCURVE",
"71 752 OFFCURVE",
"71 411 CURVE SMOOTH",
"71 145 OFFCURVE",
"241 -28 OFFCURVE",
"539 -28 CURVE SMOOTH",
"737 -28 OFFCURVE",
"885 58 OFFCURVE",
"990 184 CURVE",
"993 190 OFFCURVE",
"1001 196 OFFCURVE",
"1001 203 CURVE SMOOTH",
"1001 206 OFFCURVE",
"1000 209 OFFCURVE",
"996 212 CURVE SMOOTH",
"959 245 LINE",
"950 251 OFFCURVE",
"944 243 OFFCURVE",
"937 235 CURVE",
"845 156 OFFCURVE",
"764 115 OFFCURVE",
"650 115 CURVE SMOOTH",
"532 115 OFFCURVE",
"418 189 OFFCURVE",
"418 390 CURVE SMOOTH",
"418 732 OFFCURVE",
"523 933 OFFCURVE",
"671 933 CURVE SMOOTH",
"722 933 OFFCURVE",
"737 926 OFFCURVE",
"746 919 CURVE",
"801 705 LINE SMOOTH",
"813 660 OFFCURVE",
"822 662 OFFCURVE",
"861 662 CURVE SMOOTH",
"977 662 OFFCURVE",
"1075 704 OFFCURVE",
"1075 787 CURVE SMOOTH",
"1075 934 OFFCURVE",
"959 1014 OFFCURVE",
"707 1014 CURVE SMOOTH"
);
}
);
width = 1097;
}
);
unicode = 0063;
},
{
color = 4;
glyphname = d;
lastChange = "2018-07-18 03:37:32 +0000";
layers = (
{
anchors = (
{
name = bottom;
position = "{519, 0}";
},
{
name = btm;
position = "{602, -170}";
},
{
name = center;
position = "{589, 497}";
},
{
name = top;
position = "{480, 1700}";
},
{
name = topright;
position = "{1228, 994}";
}
);
layerId = "D92FDD0B-F694-41DD-AE46-0E4F694F0F38";
paths = (
{
closed = 1;
nodes = (
"823 847 LINE SMOOTH",
"780 592 OFFCURVE",
"700 102 OFFCURVE",
"700 92 CURVE SMOOTH",
"700 57 OFFCURVE",
"713 -13 OFFCURVE",
"829 -13 CURVE SMOOTH {name = hr02;}",
"878 -13 OFFCURVE",
"977 8 OFFCURVE",
"1068 41 CURVE SMOOTH",
"1086 47 OFFCURVE",
"1093 67 OFFCURVE",
"1093 83 CURVE SMOOTH {name = hr03;}",
"1093 112 OFFCURVE",
"1080 113 OFFCURVE",
"1068 113 CURVE SMOOTH",
"1048 113 OFFCURVE",
"996 96 OFFCURVE",
"968 96 CURVE SMOOTH",
"922 96 OFFCURVE",
"909 117 OFFCURVE",
"909 147 CURVE SMOOTH",
"909 154 OFFCURVE",
"910 161 OFFCURVE",
"911 168 CURVE SMOOTH",
"1117 1506 LINE SMOOTH",
"1121 1532 OFFCURVE",
"1104 1546 OFFCURVE",
"1092 1546 CURVE SMOOTH",
"1035 1546 OFFCURVE",
"882 1546 OFFCURVE",
"748 1538 CURVE SMOOTH",
"732 1537 OFFCURVE",
"719 1510 OFFCURVE",
"717 1494 CURVE SMOOTH",
"716 1490 OFFCURVE",
"716 1486 OFFCURVE",
"716 1483 CURVE SMOOTH",
"716 1466 OFFCURVE",
"724 1457 OFFCURVE",
"736 1454 CURVE SMOOTH",
"785 1440 OFFCURVE",
"903 1439 OFFCURVE",
"903 1368 CURVE SMOOTH",
"903 1363 OFFCURVE",
"903 1359 OFFCURVE",
"902 1354 CURVE",
"864 1104 LINE",
"849 979 LINE {name = hr01;}"
);
},
{
closed = 1;
nodes = (
"683 201 OFFCURVE",
"541 88 OFFCURVE",
"446 88 CURVE SMOOTH {name = hr04;}",
"311 88 OFFCURVE",
"279 226 OFFCURVE",
"279 362 CURVE SMOOTH",
"279 574 OFFCURVE",
"343 918 OFFCURVE",
"590 918 CURVE SMOOTH",
"696 918 OFFCURVE",
"797 864 OFFCURVE",
"818 777 CURVE",
"931 882 LINE",
"868 958 OFFCURVE",
"777 1013 OFFCURVE",
"587 1013 CURVE SMOOTH",
"285 1013 OFFCURVE",
"75 710 OFFCURVE",
"75 375 CURVE SMOOTH",
"75 160 OFFCURVE",
"148 -30 OFFCURVE",
"390 -30 CURVE SMOOTH",
"487 -30 OFFCURVE",
"625 24 OFFCURVE",
"713 168 CURVE",
"738 304 LINE"
);
}
);
width = 1178;
},
{
anchors = (
{
name = bottom;
position = "{609, 0}";
},
{
name = btm;
position = "{615, -170}";
},
{
name = center;
position = "{679, 497}";
},
{
name = top;
position = "{612, 1700}";
},
{
name = topright;
position = "{1407, 994}";
}
);
layerId = "BDB4B313-38B1-4B24-B843-560B185382BD";
paths = (
{
closed = 1;
nodes = (
"1289 40 OFFCURVE",
"1296 61 OFFCURVE",
"1296 76 CURVE SMOOTH",
"1296 79 OFFCURVE",
"1296 82 OFFCURVE",
"1295 85 CURVE SMOOTH",
"1291 107 OFFCURVE",
"1284 114 OFFCURVE",
"1271 114 CURVE SMOOTH",
"1252 114 OFFCURVE",
"1218 103 OFFCURVE",
"1189 103 CURVE SMOOTH",
"1158 103 OFFCURVE",
"1132 114 OFFCURVE",
"1132 157 CURVE SMOOTH",
"1132 163 OFFCURVE",
"1132 169 OFFCURVE",
"1133 175 CURVE SMOOTH",
"1332 1508 LINE SMOOTH",
"1333 1512 OFFCURVE",
"1333 1515 OFFCURVE",
"1333 1518 CURVE SMOOTH",
"1333 1542 OFFCURVE",
"1317 1548 OFFCURVE",
"1308 1548 CURVE SMOOTH",
"1232 1547 OFFCURVE",
"1022 1546 OFFCURVE",
"842 1538 CURVE SMOOTH",
"826 1537 OFFCURVE",
"814 1510 OFFCURVE",
"811 1494 CURVE",
"808 1469 OFFCURVE",
"817 1460 OFFCURVE",
"830 1454 CURVE",
"879 1441 OFFCURVE",
"1003 1452 OFFCURVE",
"1003 1350 CURVE SMOOTH",
"1003 1344 OFFCURVE",
"1002 1337 OFFCURVE",
"1001 1329 CURVE",
"968 1104 LINE",
"950 965 LINE",
"901 991 OFFCURVE",
"846 1015 OFFCURVE",
"730 1015 CURVE SMOOTH",
"341 1015 OFFCURVE",
"72 711 OFFCURVE",
"72 383 CURVE SMOOTH",
"72 164 OFFCURVE",
"184 -28 OFFCURVE",
"460 -28 CURVE SMOOTH",
"575 -28 OFFCURVE",
"739 44 OFFCURVE",
"820 146 CURVE",
"819 139 OFFCURVE",
"818 130 OFFCURVE",
"818 121 CURVE SMOOTH",
"818 67 OFFCURVE",
"842 -17 OFFCURVE",
"999 -17 CURVE SMOOTH",
"1064 -17 OFFCURVE",
"1152 -3 OFFCURVE",
"1271 34 CURVE"
);
},
{
closed = 1;
nodes = (
"862 920 OFFCURVE",
"905 846 OFFCURVE",
"919 802 CURVE",
"837 286 LINE",
"790 210 OFFCURVE",
"688 120 OFFCURVE",
"583 120 CURVE SMOOTH",
"522 120 OFFCURVE",
"416 137 OFFCURVE",
"416 360 CURVE SMOOTH",
"416 398 OFFCURVE",
"419 442 OFFCURVE",
"426 492 CURVE SMOOTH",
"453 757 OFFCURVE",
"590 920 OFFCURVE",
"751 920 CURVE SMOOTH"
);
}
);
width = 1357;
}
);
unicode = 0064;
},
{
glyphname = eth;
lastChange = "2018-07-18 03:33:48 +0000";
layers = (
{
anchors = (
{
name = btm;
position = "{553, -170}";
},
{
name = top;
position = "{553, 1700}";
}
);
layerId = "D92FDD0B-F694-41DD-AE46-0E4F694F0F38";
paths = (
{
closed = 1;
nodes = (
"850 1602 LINE",
"657 1450 LINE",
"570 1508 OFFCURVE",
"465 1550 OFFCURVE",
"342 1571 CURVE",
"314 1481 LINE",
"404 1466 OFFCURVE",
"485 1427 OFFCURVE",
"552 1375 CURVE",
"377 1250 LINE",
"434 1168 LINE",
"629 1306 LINE",
"752 1197 OFFCURVE",
"803 1035 OFFCURVE",
"805 934 CURVE SMOOTH",
"805 927 OFFCURVE",
"805 920 OFFCURVE",
"805 913 CURVE",
"750 965 OFFCURVE",
"673 994 OFFCURVE",
"563 994 CURVE SMOOTH",
"298 994 OFFCURVE",
"71 728 OFFCURVE",
"71 392 CURVE SMOOTH",
"71 154 OFFCURVE",
"213 -29 OFFCURVE",
"487 -29 CURVE SMOOTH",
"816 -29 OFFCURVE",
"1014 350 OFFCURVE",
"1014 729 CURVE SMOOTH",
"1014 970 OFFCURVE",
"936 1211 OFFCURVE",
"741 1385 CURVE",
"902 1514 LINE {name = hr00;}"
);
},
{
closed = 1;
nodes = (
"657 877 OFFCURVE",
"766 863 OFFCURVE",
"810 782 CURVE",
"812 753 OFFCURVE",
"813 725 OFFCURVE",
"813 698 CURVE SMOOTH",
"813 651 OFFCURVE",
"810 607 OFFCURVE",
"804 572 CURVE SMOOTH",
"764 322 OFFCURVE",
"698 66 OFFCURVE",
"496 66 CURVE SMOOTH",
"331 66 OFFCURVE",
"283 168 OFFCURVE",
"283 339 CURVE SMOOTH",
"283 604 OFFCURVE",
"375 877 OFFCURVE",
"565 877 CURVE SMOOTH"
);
}
);
width = 1119;
},
{
anchors = (
{
name = btm;
position = "{523, -170}";
},
{
name = top;
position = "{523, 1700}";
}
);
layerId = "BDB4B313-38B1-4B24-B843-560B185382BD";
paths = (
{
closed = 1;
nodes = (
"376 1481 LINE",
"715 1449 OFFCURVE",
"897 1115 OFFCURVE",
"897 934 CURVE SMOOTH",
"897 927 OFFCURVE",
"897 920 OFFCURVE",
"896 913 CURVE",
"843 965 OFFCURVE",
"772 994 OFFCURVE",
"671 994 CURVE SMOOTH",
"280 994 OFFCURVE",
"66 697 OFFCURVE",
"66 379 CURVE SMOOTH",
"66 128 OFFCURVE",
"220 -29 OFFCURVE",
"537 -29 CURVE SMOOTH",
"964 -29 OFFCURVE",
"1233 299 OFFCURVE",
"1233 739 CURVE SMOOTH",
"1233 1202 OFFCURVE",
"908 1544 OFFCURVE",
"406 1571 CURVE"
);
},
{
closed = 1;
nodes = (
"770 877 OFFCURVE",
"869 863 OFFCURVE",
"899 782 CURVE",
"899 708 OFFCURVE",
"889 622 OFFCURVE",
"879 572 CURVE SMOOTH",
"828 322 OFFCURVE",
"763 66 OFFCURVE",
"528 66 CURVE SMOOTH",
"431 66 OFFCURVE",
"407 194 OFFCURVE",
"407 318 CURVE SMOOTH",
"407 559 OFFCURVE",
"486 877 OFFCURVE",
"701 877 CURVE SMOOTH"
);
},
{
closed = 1;
nodes = (
"374 1188 LINE",
"443 1110 LINE",
"1085 1564 LINE",
"1021 1650 LINE"
);
}
);
width = 1305;
}
);
unicode = 00F0;
},
{
glyphname = dcroat;
lastChange = "2018-07-18 03:33:48 +0000";
layers = (
{
components = (
{
name = d;
}
);
layerId = "D92FDD0B-F694-41DD-AE46-0E4F694F0F38";
paths = (
{
closed = 1;
nodes = (
"650 1288 OFFCURVE",
"638 1266 OFFCURVE",
"634 1241 CURVE",
"634 1225 OFFCURVE",
"636 1193 OFFCURVE",
"652 1192 CURVE",
"1223 1192 LINE",
"1238 1198 OFFCURVE",
"1252 1235 OFFCURVE",
"1255 1260 CURVE",
"1256 1263 OFFCURVE",
"1256 1266 OFFCURVE",
"1256 1269 CURVE SMOOTH",
"1256 1282 OFFCURVE",
"1249 1293 OFFCURVE",
"1236 1294 CURVE",
"664 1294 LINE {name = hr00;}"
);
}
);
width = 1178;
},
{
components = (
{
name = d;
transform = "{1, 0, 0, 1, -1, 0}";
}
);
layerId = "BDB4B313-38B1-4B24-B843-560B185382BD";
paths = (
{
closed = 1;
nodes = (
"647 1288 OFFCURVE",
"635 1266 OFFCURVE",
"631 1241 CURVE",
"631 1225 OFFCURVE",
"633 1193 OFFCURVE",
"649 1192 CURVE",
"1463 1192 LINE",
"1478 1198 OFFCURVE",
"1492 1235 OFFCURVE",
"1495 1260 CURVE",
"1496 1263 OFFCURVE",
"1496 1266 OFFCURVE",
"1496 1269 CURVE SMOOTH",
"1496 1282 OFFCURVE",
"1489 1293 OFFCURVE",
"1476 1294 CURVE",
"661 1294 LINE"
);
}
);
width = 1357;
}
);
unicode = 0111;
},
{
color = 4;
glyphname = e;
lastChange = "2018-07-18 04:32:22 +0000";
layers = (
{
anchors = (
{
name = bottom;
position = "{413, 0}";
},
{
name = btm;
position = "{492, -170}";
},
{
name = ogonek;
position = "{801, 10}";
},
{
name = top;
position = "{608, 994}";
}
);
layerId = "D92FDD0B-F694-41DD-AE46-0E4F694F0F38";
paths = (
{
closed = 1;
nodes = (
"893 894 OFFCURVE",
"830 1014 OFFCURVE",
"610 1014 CURVE SMOOTH",
"341 1014 OFFCURVE",
"75 746 OFFCURVE",
"75 393 CURVE SMOOTH",
"75 139 OFFCURVE",
"208 -29 OFFCURVE",
"450 -29 CURVE SMOOTH",
"620 -29 OFFCURVE",
"739 50 OFFCURVE",
"828 164 CURVE",
"830 170 OFFCURVE",
"838 176 OFFCURVE",
"838 183 CURVE SMOOTH",
"838 186 OFFCURVE",
"837 189 OFFCURVE",
"833 192 CURVE SMOOTH",
"796 225 LINE",
"787 231 OFFCURVE",
"781 223 OFFCURVE",
"774 215 CURVE",
"680 124 OFFCURVE",
"597 75 OFFCURVE",
"479 75 CURVE SMOOTH",
"380 75 OFFCURVE",
"296 152 OFFCURVE",
"292 360 CURVE SMOOTH",
"292 376 OFFCURVE",
"292 392 OFFCURVE",
"292 407 CURVE",
"603 465 OFFCURVE",
"893 589 OFFCURVE",
"893 800 CURVE SMOOTH {name = hr00;}"
);
},
{
closed = 1;
nodes = (
"656 933 OFFCURVE",
"705 901 OFFCURVE",
"706 838 CURVE SMOOTH",
"709 640 OFFCURVE",
"561 540 OFFCURVE",
"296 484 CURVE",
"323 768 OFFCURVE",
"458 933 OFFCURVE",
"605 933 CURVE SMOOTH"
);
}
);
width = 966;
},
{
anchors = (
{
name = bottom;
position = "{501, 0}";
},
{
name = btm;
position = "{467, -170}";
},
{
name = ogonek;
position = "{959, 10}";
},
{
name = top;
position = "{719, 994}";
}
);
layerId = "BDB4B313-38B1-4B24-B843-560B185382BD";
paths = (
{
closed = 1;
nodes = (
"1080 875 OFFCURVE",
"997 1014 OFFCURVE",
"721 1014 CURVE SMOOTH",
"369 1014 OFFCURVE",
"70 740 OFFCURVE",
"70 381 CURVE SMOOTH",
"70 133 OFFCURVE",
"255 -29 OFFCURVE",
"553 -29 CURVE SMOOTH",
"790 -29 OFFCURVE",
"907 50 OFFCURVE",
"1044 164 CURVE SMOOTH",
"1046 166 OFFCURVE",
"1050 170 OFFCURVE",
"1050 175 CURVE SMOOTH",
"1050 176 OFFCURVE",
"1049 178 OFFCURVE",
"1049 179 CURVE SMOOTH",
"1046 195 OFFCURVE",
"1017 221 OFFCURVE",
"1007 221 CURVE SMOOTH",
"1002 221 OFFCURVE",
"996 218 OFFCURVE",
"991 215 CURVE SMOOTH",
"880 145 OFFCURVE",
"782 105 OFFCURVE",
"644 105 CURVE SMOOTH",
"526 105 OFFCURVE",
"407 173 OFFCURVE",
"407 360 CURVE SMOOTH",
"407 376 OFFCURVE",
"407 392 OFFCURVE",
"408 407 CURVE",
"851 465 OFFCURVE",
"1080 558 OFFCURVE",
"1080 781 CURVE SMOOTH"
);
},
{
closed = 1;
nodes = (
"760 933 OFFCURVE",
"779 871 OFFCURVE",
"779 808 CURVE SMOOTH",
"779 630 OFFCURVE",
"646 534 OFFCURVE",
"413 484 CURVE",
"439 768 OFFCURVE",
"553 933 OFFCURVE",
"675 933 CURVE SMOOTH"
);
}
);
width = 1141;
}
);
unicode = 0065;
},
{
glyphname = eogonek;
lastChange = "2018-07-18 03:33:48 +0000";
layers = (
{
components = (
{
name = e;
}
);
layerId = "D92FDD0B-F694-41DD-AE46-0E4F694F0F38";
paths = (
{
closed = 1;
nodes = (
"262 -385 OFFCURVE",
"347 -448 OFFCURVE",
"512 -448 CURVE SMOOTH",
"563 -448 OFFCURVE",
"616 -438 OFFCURVE",
"673 -422 CURVE SMOOTH",
"688 -418 OFFCURVE",
"700 -408 OFFCURVE",
"703 -393 CURVE SMOOTH",
"704 -386 OFFCURVE",
"705 -380 OFFCURVE",
"705 -375 CURVE SMOOTH",
"705 -359 OFFCURVE",
"700 -350 OFFCURVE",
"687 -349 CURVE SMOOTH",
"672 -348 OFFCURVE",
"643 -351 OFFCURVE",
"610 -351 CURVE SMOOTH",
"536 -351 OFFCURVE",
"440 -337 OFFCURVE",
"440 -238 CURVE SMOOTH",
"440 -176 OFFCURVE",
"503 -67 OFFCURVE",
"693 33 CURVE",
"693 33 OFFCURVE",
"582 15 OFFCURVE",
"582 15 CURVE",
"479 -1 OFFCURVE",
"262 -145 OFFCURVE",
"262 -278 CURVE SMOOTH {name = hr00;}"
);
}
);
width = 966;
},
{
components = (
{
name = e;
}
);
layerId = "BDB4B313-38B1-4B24-B843-560B185382BD";
paths = (
{
closed = 1;
nodes = (
"411 -385 OFFCURVE",
"487 -452 OFFCURVE",
"653 -452 CURVE SMOOTH",
"753 -452 OFFCURVE",
"877 -414 OFFCURVE",
"953 -329 CURVE SMOOTH",
"955 -327 OFFCURVE",
"956 -323 OFFCURVE",
"956 -318 CURVE SMOOTH",
"956 -297 OFFCURVE",
"935 -259 OFFCURVE",
"913 -266 CURVE SMOOTH",
"886 -280 OFFCURVE",
"815 -330 OFFCURVE",
"751 -330 CURVE SMOOTH",
"694 -330 OFFCURVE",
"641 -313 OFFCURVE",
"641 -228 CURVE SMOOTH",
"641 -153 OFFCURVE",
"756 -33 OFFCURVE",
"932 68 CURVE",
"794 59 LINE",
"592 -17 OFFCURVE",
"411 -154 OFFCURVE",
"411 -293 CURVE SMOOTH {name = hr00;}"
);
}
);
width = 1141;
}
);
unicode = 0119;
},
{
color = 4;
glyphname = f;
lastChange = "2018-07-18 03:37:32 +0000";
layers = (
{
anchors = (
{
name = bottom;
position = "{267, 0}";
},
{
name = btm;
position = "{315, -170}";
},
{
name = top;
position = "{446, 2040}";
}
);
layerId = "D92FDD0B-F694-41DD-AE46-0E4F694F0F38";
paths = (
{
closed = 1;
nodes = (
"646 892 LINE",
"661 898 OFFCURVE",
"666 935 OFFCURVE",
"669 960 CURVE",
"670 963 OFFCURVE",
"670 966 OFFCURVE",
"670 969 CURVE SMOOTH",
"670 982 OFFCURVE",
"663 993 OFFCURVE",
"650 994 CURVE",
"405 994 LINE",
"389 892 LINE {name = hr00;}"
);
},
{
closed = 1;
nodes = (
"98 984 LINE",
"84 978 OFFCURVE",
"72 966 OFFCURVE",
"68 941 CURVE",
"68 925 OFFCURVE",
"70 893 OFFCURVE",
"86 892 CURVE",
"238 892 LINE",
"250 993 LINE"
);
},
{
closed = 1;
nodes = (
"52 -272 OFFCURVE",
"-15 -340 OFFCURVE",
"-89 -344 CURVE",
"-169 -208 LINE",
"-172 -206 OFFCURVE",
"-181 -206 OFFCURVE",
"-186 -206 CURVE SMOOTH",
"-221 -206 OFFCURVE",
"-287 -240 OFFCURVE",
"-287 -320 CURVE SMOOTH",
"-287 -387 OFFCURVE",
"-254 -442 OFFCURVE",
"-128 -442 CURVE SMOOTH",
"112 -442 OFFCURVE",
"251 -198 OFFCURVE",
"288 56 CURVE",
"434 1107 LINE",
"471 1421 OFFCURVE",
"559 1475 OFFCURVE",
"619 1475 CURVE",
"717 1310 LINE",
"717 1308 OFFCURVE",
"717 1307 OFFCURVE",
"728 1307 CURVE SMOOTH",
"763 1307 OFFCURVE",
"841 1361 OFFCURVE",
"841 1439 CURVE",
"843 1517 OFFCURVE",
"790 1573 OFFCURVE",
"698 1573 CURVE SMOOTH",
"440 1573 OFFCURVE",
"275 1330 OFFCURVE",
"243 1075 CURVE",
"96 20 LINE"
);
}
);
width = 673;
},
{
anchors = (
{
name = bottom;
position = "{320, 0}";
},
{
name = btm;
position = "{102, -170}";
},
{
name = top;
position = "{430, 2007}";
}
);
layerId = "BDB4B313-38B1-4B24-B843-560B185382BD";
paths = (
{
closed = 1;
nodes = (
"51 -272 OFFCURVE",
"-30 -340 OFFCURVE",
"-108 -344 CURVE",
"-184 -143 LINE",
"-188 -141 OFFCURVE",
"-239 -140 OFFCURVE",
"-228 -140 CURVE SMOOTH",
"-324 -140 OFFCURVE",
"-372 -205 OFFCURVE",
"-372 -284 CURVE SMOOTH",
"-372 -352 OFFCURVE",
"-329 -442 OFFCURVE",
"-147 -442 CURVE SMOOTH",
"167 -442 OFFCURVE",
"361 -198 OFFCURVE",
"409 56 CURVE SMOOTH",
"521 892 LINE",
"745 892 LINE",
"762 899 OFFCURVE",
"778 945 OFFCURVE",
"778 969 CURVE SMOOTH",
"778 982 OFFCURVE",
"771 993 OFFCURVE",
"758 994 CURVE",
"534 994 LINE",
"549 1107 LINE SMOOTH",
"587 1421 OFFCURVE",
"631 1475 OFFCURVE",
"694 1475 CURVE",
"784 1312 LINE SMOOTH",
"786 1310 OFFCURVE",
"790 1309 OFFCURVE",
"796 1309 CURVE SMOOTH",
"858 1309 OFFCURVE",
"968 1353 OFFCURVE",
"968 1431 CURVE SMOOTH",
"970 1499 OFFCURVE",
"907 1573 OFFCURVE",
"723 1573 CURVE SMOOTH",
"403 1573 OFFCURVE",
"277 1330 OFFCURVE",
"238 1075 CURVE SMOOTH",
"226 994 LINE",
"225 994 LINE",
"91 984 LINE",
"77 978 OFFCURVE",
"65 966 OFFCURVE",
"61 941 CURVE SMOOTH",
"61 925 OFFCURVE",
"63 893 OFFCURVE",
"79 892 CURVE",
"213 892 LINE",
"97 20 LINE SMOOTH"
);
}
);
width = 780;
}
);
unicode = 0066;
},
{
color = 4;
glyphname = g;
lastChange = "2018-07-18 04:33:24 +0000";
layers = (
{
anchors = (
{
name = bottom;
position = "{455, -444}";
},
{
name = btm;
position = "{590, -170}";
},
{
name = top;
position = "{575, 994}";
}
);
layerId = "D92FDD0B-F694-41DD-AE46-0E4F694F0F38";
paths = (
{
closed = 1;
nodes = (
"976 1014 OFFCURVE",
"887 959 OFFCURVE",
"851 914 CURVE",
"793 977 OFFCURVE",
"700 1014 OFFCURVE",
"579 1014 CURVE SMOOTH",
"300 1014 OFFCURVE",
"128 888 OFFCURVE",
"128 664 CURVE SMOOTH",
"128 581 OFFCURVE",
"173 487 OFFCURVE",
"273 430 CURVE",
"184 373 OFFCURVE",
"121 302 OFFCURVE",
"121 182 CURVE SMOOTH",
"121 139 OFFCURVE",
"136 106 OFFCURVE",
"159 80 CURVE",
"45 37 OFFCURVE",
"-6 -63 OFFCURVE",
"-6 -162 CURVE SMOOTH {name = hr02;}",
"-6 -327 OFFCURVE",
"136 -451 OFFCURVE",
"424 -451 CURVE SMOOTH",
"695 -451 OFFCURVE",
"965 -317 OFFCURVE",
"965 -46 CURVE SMOOTH",
"965 67 OFFCURVE",
"853 149 OFFCURVE",
"641 170 CURVE SMOOTH",
"397 194 LINE SMOOTH",
"330 200 OFFCURVE",
"283 225 OFFCURVE",
"283 283 CURVE SMOOTH",
"283 288 OFFCURVE",
"283 294 OFFCURVE",
"284 300 CURVE SMOOTH {name = hr03;}",
"289 331 OFFCURVE",
"317 371 OFFCURVE",
"349 398 CURVE",
"390 386 OFFCURVE",
"438 379 OFFCURVE",
"492 379 CURVE SMOOTH",
"750 379 OFFCURVE",
"917 526 OFFCURVE",
"917 732 CURVE SMOOTH",
"917 781 OFFCURVE",
"906 825 OFFCURVE",
"886 863 CURVE",
"913 879 OFFCURVE",
"953 889 OFFCURVE",
"972 889 CURVE SMOOTH",
"976 889 OFFCURVE",
"979 888 OFFCURVE",
"981 887 CURVE",
"1026 809 LINE",
"1038 792 OFFCURVE",
"1059 783 OFFCURVE",
"1081 783 CURVE SMOOTH",
"1124 783 OFFCURVE",
"1171 816 OFFCURVE",
"1171 890 CURVE SMOOTH",
"1171 969 OFFCURVE",
"1132 1014 OFFCURVE",
"1042 1014 CURVE SMOOTH"
);
},
{
closed = 1;
nodes = (
"379 474 OFFCURVE",
"322 536 OFFCURVE",
"322 635 CURVE SMOOTH",
"322 810 OFFCURVE",
"365 926 OFFCURVE",
"560 926 CURVE SMOOTH",
"678 926 OFFCURVE",
"721 859 OFFCURVE",
"721 761 CURVE SMOOTH",
"721 559 OFFCURVE",
"664 474 OFFCURVE",
"500 474 CURVE SMOOTH {name = hr01;}"
);
},
{
closed = 1;
nodes = (
"519 -11 LINE SMOOTH",
"627 -20 OFFCURVE",
"820 -32 OFFCURVE",
"820 -129 CURVE SMOOTH",
"820 -132 OFFCURVE",
"819 -135 OFFCURVE",
"819 -139 CURVE",
"796 -313 OFFCURVE",
"630 -355 OFFCURVE",
"458 -355 CURVE SMOOTH",
"285 -355 OFFCURVE",
"172 -280 OFFCURVE",
"172 -148 CURVE SMOOTH {name = hr04;}",
"172 -82 OFFCURVE",
"187 -24 OFFCURVE",
"224 36 CURVE",
"272 15 OFFCURVE",
"330 4 OFFCURVE",
"385 0 CURVE SMOOTH"
);
}
);
width = 1173;
},
{
anchors = (
{
name = bottom;
position = "{501, -671}";
},
{
name = btm;
position = "{628, -170}";
},
{
name = top;
position = "{659, 994}";
}
);
layerId = "BDB4B313-38B1-4B24-B843-560B185382BD";
paths = (
{
closed = 1;
nodes = (
"1155 1019 OFFCURVE",
"1056 970 OFFCURVE",
"1005 923 CURVE",
"939 980 OFFCURVE",
"827 1014 OFFCURVE",
"659 1014 CURVE SMOOTH",
"406 1014 OFFCURVE",
"157 908 OFFCURVE",
"157 648 CURVE SMOOTH",
"157 555 OFFCURVE",
"201 474 OFFCURVE",
"302 424 CURVE",
"214 381 OFFCURVE",
"108 292 OFFCURVE",
"108 186 CURVE SMOOTH",
"108 120 OFFCURVE",
"135 68 OFFCURVE",
"186 33 CURVE",
"91 2 OFFCURVE",
"-10 -55 OFFCURVE",
"-10 -163 CURVE SMOOTH",
"-10 -359 OFFCURVE",
"206 -448 OFFCURVE",
"549 -448 CURVE SMOOTH",
"880 -448 OFFCURVE",
"1154 -311 OFFCURVE",
"1154 -87 CURVE SMOOTH",
"1154 77 OFFCURVE",
"1054 172 OFFCURVE",
"759 208 CURVE SMOOTH",
"435 244 LINE SMOOTH",
"357 253 OFFCURVE",
"330 284 OFFCURVE",
"330 320 CURVE SMOOTH",
"330 345 OFFCURVE",
"354 372 OFFCURVE",
"386 392 CURVE",
"442 377 OFFCURVE",
"509 369 OFFCURVE",
"588 369 CURVE SMOOTH",
"865 369 OFFCURVE",
"1084 484 OFFCURVE",
"1084 745 CURVE SMOOTH",
"1084 782 OFFCURVE",
"1077 816 OFFCURVE",
"1063 848 CURVE",
"1100 866 OFFCURVE",
"1155 879 OFFCURVE",
"1164 874 CURVE",
"1184 798 LINE SMOOTH",
"1193 764 OFFCURVE",
"1233 744 OFFCURVE",
"1277 744 CURVE SMOOTH",
"1337 744 OFFCURVE",
"1394 783 OFFCURVE",
"1394 865 CURVE SMOOTH",
"1394 965 OFFCURVE",
"1322 1019 OFFCURVE",
"1242 1019 CURVE SMOOTH"
);
},
{
closed = 1;
nodes = (
"508 458 OFFCURVE",
"472 528 OFFCURVE",
"472 651 CURVE SMOOTH",
"472 811 OFFCURVE",
"511 928 OFFCURVE",
"637 928 CURVE SMOOTH",
"750 928 OFFCURVE",
"795 876 OFFCURVE",
"795 758 CURVE SMOOTH",
"795 593 OFFCURVE",
"743 458 OFFCURVE",
"612 458 CURVE SMOOTH"
);
},
{
closed = 1;
nodes = (
"668 -55 LINE SMOOTH",
"789 -68 OFFCURVE",
"868 -106 OFFCURVE",
"868 -166 CURVE SMOOTH",
"868 -302 OFFCURVE",
"723 -352 OFFCURVE",
"575 -352 CURVE SMOOTH",
"333 -352 OFFCURVE",
"274 -271 OFFCURVE",
"274 -146 CURVE SMOOTH",
"274 -86 OFFCURVE",
"284 -45 OFFCURVE",
"299 -13 CURVE",
"314 -16 OFFCURVE",
"331 -19 OFFCURVE",
"348 -21 CURVE SMOOTH"
);
}
);
width = 1330;
}
);
unicode = 0067;
},
{
color = 4;
glyphname = h;
lastChange = "2018-07-18 04:34:30 +0000";
layers = (
{
anchors = (
{
name = bottom;
position = "{506, 0}";
},
{
name = btm;
position = "{534, -170}";
},
{
name = center;
position = "{638, 939}";
},
{
name = top;
position = "{347, 1470}";
}
);
layerId = "D92FDD0B-F694-41DD-AE46-0E4F694F0F38";
paths = (
{
closed = 1;
nodes = (
"1014 113 OFFCURVE",
"964 96 OFFCURVE",
"936 96 CURVE SMOOTH",
"889 96 OFFCURVE",
"875 119 OFFCURVE",
"875 149 CURVE SMOOTH",
"875 155 OFFCURVE",
"876 162 OFFCURVE",
"877 168 CURVE SMOOTH",
"971 766 LINE SMOOTH",
"974 787 OFFCURVE",
"976 808 OFFCURVE",
"976 828 CURVE SMOOTH",
"976 930 OFFCURVE",
"926 1014 OFFCURVE",
"767 1014 CURVE SMOOTH {name = hr04;}",
"580 1014 OFFCURVE",
"418 842 OFFCURVE",
"350 764 CURVE",
"463 1506 LINE",
"465 1538 OFFCURVE",
"450 1546 OFFCURVE",
"439 1546 CURVE SMOOTH",
"388 1546 OFFCURVE",
"271 1546 OFFCURVE",
"149 1539 CURVE SMOOTH",
"133 1538 OFFCURVE",
"121 1511 OFFCURVE",
"117 1495 CURVE",
"115 1470 OFFCURVE",
"124 1462 OFFCURVE",
"135 1455 CURVE",
"171 1428 OFFCURVE",
"250 1441 OFFCURVE",
"250 1369 CURVE SMOOTH",
"250 1364 OFFCURVE",
"250 1359 OFFCURVE",
"249 1354 CURVE",
"42 0 LINE",
"229 0 LINE",
"333 656 LINE",
"410 753 OFFCURVE",
"562 874 OFFCURVE",
"689 874 CURVE SMOOTH",
"767 874 OFFCURVE",
"781 844 OFFCURVE",
"781 814 CURVE SMOOTH",
"781 804 OFFCURVE",
"779 794 OFFCURVE",
"778 785 CURVE",
"681 142 LINE {name = hr02;}",
"681 142 OFFCURVE",
"677 124 OFFCURVE",
"677 102 CURVE SMOOTH",
"677 57 OFFCURVE",
"685 -13 OFFCURVE",
"801 -13 CURVE SMOOTH",
"850 -13 OFFCURVE",
"943 8 OFFCURVE",
"1034 41 CURVE SMOOTH",
"1052 47 OFFCURVE",
"1059 67 OFFCURVE",
"1059 83 CURVE SMOOTH {name = hr03;}",
"1059 112 OFFCURVE",
"1046 113 OFFCURVE",
"1034 113 CURVE SMOOTH"
);
}
);
width = 1152;
},
{
anchors = (
{
name = bottom;
position = "{622, 0}";
},
{
name = btm;
position = "{546, -170}";
},
{
name = center;
position = "{755, 945}";
},
{
name = top;
position = "{425, 1469}";
}
);
layerId = "BDB4B313-38B1-4B24-B843-560B185382BD";
paths = (
{
closed = 1;
nodes = (
"366 0 LINE",
"470 669 LINE",
"517 716 OFFCURVE",
"627 838 OFFCURVE",
"776 838 CURVE SMOOTH",
"895 838 OFFCURVE",
"888 763 OFFCURVE",
"888 689 CURVE",
"805 94 OFFCURVE",
"797 126 OFFCURVE",
"797 105 CURVE SMOOTH",
"797 59 OFFCURVE",
"822 -13 OFFCURVE",
"982 -13 CURVE SMOOTH",
"1048 -13 OFFCURVE",
"1138 0 OFFCURVE",
"1259 34 CURVE",
"1277 40 OFFCURVE",
"1284 61 OFFCURVE",
"1284 76 CURVE SMOOTH",
"1284 79 OFFCURVE",
"1284 82 OFFCURVE",
"1283 85 CURVE SMOOTH",
"1279 107 OFFCURVE",
"1272 114 OFFCURVE",
"1259 114 CURVE SMOOTH",
"1255 114 OFFCURVE",
"1250 113 OFFCURVE",
"1245 112 CURVE SMOOTH",
"1226 108 OFFCURVE",
"1202 103 OFFCURVE",
"1178 103 CURVE SMOOTH",
"1143 103 OFFCURVE",
"1117 117 OFFCURVE",
"1121 175 CURVE SMOOTH",
"1124 222 OFFCURVE",
"1214 705 OFFCURVE",
"1214 763 CURVE SMOOTH",
"1214 970 OFFCURVE",
"1114 1014 OFFCURVE",
"974 1014 CURVE SMOOTH",
"708 1014 OFFCURVE",
"528 832 OFFCURVE",
"477 785 CURVE",
"533 1104 LINE",
"599 1508 LINE",
"601 1540 OFFCURVE",
"586 1548 OFFCURVE",
"575 1548 CURVE SMOOTH",
"494 1547 OFFCURVE",
"335 1546 OFFCURVE",
"145 1538 CURVE SMOOTH",
"129 1537 OFFCURVE",
"117 1510 OFFCURVE",
"114 1494 CURVE",
"111 1469 OFFCURVE",
"120 1460 OFFCURVE",
"133 1454 CURVE",
"181 1441 OFFCURVE",
"268 1451 OFFCURVE",
"268 1357 CURVE SMOOTH",
"268 1348 OFFCURVE",
"267 1339 OFFCURVE",
"266 1329 CURVE",
"57 0 LINE"
);
}
);
width = 1383;
}
);
unicode = 0068;
},
{
glyphname = hbar;
lastChange = "2018-07-18 03:33:48 +0000";
layers = (
{
components = (
{
name = h;
transform = "{1, 0, 0, 1, -29, 0}";
}
);
layerId = "D92FDD0B-F694-41DD-AE46-0E4F694F0F38";
paths = (
{
closed = 1;
nodes = (
"71 1247 LINE",
"57 1241 OFFCURVE",
"45 1229 OFFCURVE",
"41 1204 CURVE",
"41 1188 OFFCURVE",
"43 1156 OFFCURVE",
"59 1155 CURVE",
"222 1155 LINE",
"630 1155 LINE",
"645 1161 OFFCURVE",
"659 1198 OFFCURVE",
"662 1223 CURVE",
"663 1226 OFFCURVE",
"663 1229 OFFCURVE",
"663 1232 CURVE SMOOTH",
"663 1245 OFFCURVE",
"656 1256 OFFCURVE",
"643 1257 CURVE",
"234 1257 LINE {name = hr00;}"
);
}
);
width = 1152;
},
{
components = (
{
name = h;
transform = "{1, 0, 0, 1, -41, 0}";
}
);
layerId = "BDB4B313-38B1-4B24-B843-560B185382BD";
paths = (
{
closed = 1;
nodes = (
"99 1247 LINE",
"85 1241 OFFCURVE",
"73 1229 OFFCURVE",
"69 1204 CURVE",
"69 1188 OFFCURVE",
"71 1156 OFFCURVE",
"87 1155 CURVE",
"250 1155 LINE",
"748 1155 LINE",
"763 1161 OFFCURVE",
"777 1198 OFFCURVE",
"780 1223 CURVE",
"781 1226 OFFCURVE",
"781 1229 OFFCURVE",
"781 1232 CURVE SMOOTH",
"781 1245 OFFCURVE",
"774 1256 OFFCURVE",
"761 1257 CURVE",
"262 1257 LINE"
);
}
);
width = 1383;
}
);
unicode = 0127;
},
{
color = 4;
glyphname = idotless;
lastChange = "2018-07-18 04:34:49 +0000";
layers = (
{
anchors = (
{
name = bottom;
position = "{235, 0}";
},
{
name = btm;
position = "{250, -170}";
},
{
name = ogonek;
position = "{480, 10}";
},
{
name = top;
position = "{287, 994}";
}
);
layerId = "D92FDD0B-F694-41DD-AE46-0E4F694F0F38";
paths = (
{
closed = 1;
nodes = (
"409 989 OFFCURVE",
"392 997 OFFCURVE",
"381 997 CURVE SMOOTH",
"325 996 OFFCURVE",
"209 995 OFFCURVE",
"79 987 CURVE SMOOTH",
"63 986 OFFCURVE",
"51 959 OFFCURVE",
"49 943 CURVE SMOOTH",
"47 918 OFFCURVE",
"53 909 OFFCURVE",
"67 903 CURVE",
"111 890 OFFCURVE",
"190 906 OFFCURVE",
"190 812 CURVE SMOOTH",
"190 804 OFFCURVE",
"189 795 OFFCURVE",
"188 785 CURVE",
"82 142 LINE",
"82 142 OFFCURVE",
"80 124 OFFCURVE",
"80 102 CURVE SMOOTH",
"80 57 OFFCURVE",
"86 -13 OFFCURVE",
"202 -13 CURVE SMOOTH",
"251 -13 OFFCURVE",
"346 8 OFFCURVE",
"437 41 CURVE SMOOTH",
"455 47 OFFCURVE",
"462 67 OFFCURVE",
"462 83 CURVE SMOOTH {name = hr02;}",
"462 112 OFFCURVE",
"449 113 OFFCURVE",
"437 113 CURVE SMOOTH",
"417 113 OFFCURVE",
"365 96 OFFCURVE",
"337 96 CURVE SMOOTH",
"292 96 OFFCURVE",
"278 118 OFFCURVE",
"278 150 CURVE SMOOTH",
"278 158 OFFCURVE",
"279 166 OFFCURVE",
"280 175 CURVE SMOOTH",
"405 957 LINE {name = hr01;}"
);
}
);
width = 609;
},
{
anchors = (
{
name = bottom;
position = "{305, 0}";
},
{
name = btm;
position = "{160, -170}";
},
{
name = ogonek;
position = "{606, 10}";
},
{
name = top;
position = "{337, 994}";
}
);
layerId = "BDB4B313-38B1-4B24-B843-560B185382BD";
paths = (
{
closed = 1;
nodes = (
"60 150 OFFCURVE",
"57 121 OFFCURVE",
"57 96 CURVE SMOOTH",
"57 60 OFFCURVE",
"61 -13 OFFCURVE",
"178 -13 CURVE SMOOTH",
"293 -13 OFFCURVE",
"389 5 OFFCURVE",
"517 39 CURVE SMOOTH",
"535 44 OFFCURVE",
"541 57 OFFCURVE",
"541 69 CURVE SMOOTH",
"541 72 OFFCURVE",
"541 75 OFFCURVE",
"540 78 CURVE SMOOTH",
"536 100 OFFCURVE",
"529 107 OFFCURVE",
"516 107 CURVE SMOOTH",
"512 107 OFFCURVE",
"507 106 OFFCURVE",
"502 105 CURVE SMOOTH",
"483 101 OFFCURVE",
"458 96 OFFCURVE",
"435 96 CURVE SMOOTH",
"404 96 OFFCURVE",
"376 99 OFFCURVE",
"376 140 CURVE SMOOTH",
"376 145 OFFCURVE",
"376 151 OFFCURVE",
"377 157 CURVE SMOOTH",
"499 957 LINE",
"500 989 OFFCURVE",
"486 997 OFFCURVE",
"475 997 CURVE SMOOTH",
"395 996 OFFCURVE",
"239 995 OFFCURVE",
"53 987 CURVE SMOOTH",
"37 986 OFFCURVE",
"25 959 OFFCURVE",
"23 943 CURVE SMOOTH",
"21 918 OFFCURVE",
"27 909 OFFCURVE",
"41 903 CURVE",
"85 890 OFFCURVE",
"167 906 OFFCURVE",
"167 816 CURVE SMOOTH",
"167 807 OFFCURVE",
"166 797 OFFCURVE",
"164 785 CURVE SMOOTH",
"63 173 LINE SMOOTH"
);
}
);
width = 749;
}
);
unicode = 0131;
userData = {
com.typemytype.robofont.guides = (
{
angle = 82;
isGlobal = 0;
magnetic = 5;
x = 234;
y = 0;
}
);
};
},
{
glyphname = iogonek;
lastChange = "2018-07-18 03:33:48 +0000";
layers = (
{
components = (
{
name = dotaccent;
transform = "{1, 0, 0, 1, -123, -2}";
},
{
name = idotless;
}
);
layerId = "D92FDD0B-F694-41DD-AE46-0E4F694F0F38";
paths = (
{
closed = 1;
nodes = (
"-12 -385 OFFCURVE",
"73 -448 OFFCURVE",
"238 -448 CURVE SMOOTH",
"289 -448 OFFCURVE",
"342 -438 OFFCURVE",
"399 -422 CURVE SMOOTH",
"414 -418 OFFCURVE",
"426 -408 OFFCURVE",
"429 -393 CURVE SMOOTH",
"430 -386 OFFCURVE",
"431 -380 OFFCURVE",
"431 -375 CURVE SMOOTH",
"431 -359 OFFCURVE",
"426 -350 OFFCURVE",
"413 -349 CURVE SMOOTH",
"398 -348 OFFCURVE",
"369 -351 OFFCURVE",
"336 -351 CURVE SMOOTH",
"262 -351 OFFCURVE",
"166 -337 OFFCURVE",
"166 -238 CURVE SMOOTH",
"166 -176 OFFCURVE",
"193 -69 OFFCURVE",
"459 31 CURVE",
"459 31 OFFCURVE",
"288 15 OFFCURVE",
"288 15 CURVE",
"169 -1 OFFCURVE",
"-12 -145 OFFCURVE",
"-12 -278 CURVE SMOOTH {name = hr00;}"
);
}
);
width = 609;
},
{
components = (
{
name = idotless;
},
{
name = dotaccent;
transform = "{1, 0, 0, 1, -98, 0}";
}
);
layerId = "BDB4B313-38B1-4B24-B843-560B185382BD";
paths = (
{
closed = 1;
nodes = (
"3 -385 OFFCURVE",
"79 -452 OFFCURVE",
"245 -452 CURVE SMOOTH",
"345 -452 OFFCURVE",
"469 -414 OFFCURVE",
"545 -329 CURVE SMOOTH",
"547 -327 OFFCURVE",
"548 -323 OFFCURVE",
"548 -318 CURVE SMOOTH",
"548 -297 OFFCURVE",
"527 -259 OFFCURVE",
"505 -266 CURVE",
"478 -280 OFFCURVE",
"407 -330 OFFCURVE",
"343 -330 CURVE SMOOTH",
"286 -330 OFFCURVE",
"233 -313 OFFCURVE",
"233 -228 CURVE SMOOTH",
"233 -153 OFFCURVE",
"329 -68 OFFCURVE",
"525 21 CURVE",
"387 12 LINE",
"174 -28 OFFCURVE",
"3 -154 OFFCURVE",
"3 -293 CURVE SMOOTH {name = hr00;}"
);
}
);
width = 749;
}
);
unicode = 012F;
},
{
color = 4;
glyphname = jdotless;
lastChange = "2018-07-18 04:35:19 +0000";
layers = (
{
anchors = (
{
name = bottom;
position = "{166, -444}";
},
{
name = btm;
position = "{97, -170}";
},
{
name = top;
position = "{340, 994}";
}
);
layerId = "D92FDD0B-F694-41DD-AE46-0E4F694F0F38";
paths = (
{
closed = 1;
nodes = (
"-193 -178 OFFCURVE",
"-268 -230 OFFCURVE",
"-268 -300 CURVE SMOOTH",
"-268 -367 OFFCURVE",
"-213 -449 OFFCURVE",
"-95 -449 CURVE SMOOTH",
"133 -449 OFFCURVE",
"295 -187 OFFCURVE",
"334 88 CURVE SMOOTH",
"469 957 LINE",
"470 989 OFFCURVE",
"456 997 OFFCURVE",
"445 997 CURVE SMOOTH",
"387 996 OFFCURVE",
"257 995 OFFCURVE",
"123 987 CURVE SMOOTH",
"107 986 OFFCURVE",
"95 959 OFFCURVE",
"93 943 CURVE SMOOTH",
"93 939 OFFCURVE",
"92 936 OFFCURVE",
"92 933 CURVE SMOOTH",
"92 915 OFFCURVE",
"100 907 OFFCURVE",
"111 903 CURVE SMOOTH",
"158 886 OFFCURVE",
"255 900 OFFCURVE",
"255 803 CURVE SMOOTH",
"255 795 OFFCURVE",
"254 787 OFFCURVE",
"253 778 CURVE",
"253 777 LINE",
"138 56 LINE SMOOTH",
"86 -317 OFFCURVE",
"17 -345 OFFCURVE",
"-52 -347 CURVE",
"-104 -202 LINE SMOOTH",
"-111 -185 OFFCURVE",
"-127 -178 OFFCURVE",
"-155 -178 CURVE SMOOTH {name = hr00;}"
);
}
);
width = 596;
},
{
anchors = (
{
name = bottom;
position = "{210, -671}";
},
{
name = btm;
position = "{124, -170}";
},
{
name = top;
position = "{420, 994}";
}
);
layerId = "BDB4B313-38B1-4B24-B843-560B185382BD";
paths = (
{
closed = 1;
nodes = (
"163 56 LINE SMOOTH",
"114 -297 OFFCURVE",
"40 -345 OFFCURVE",
"-28 -347 CURVE",
"-122 -181 LINE SMOOTH",
"-137 -152 OFFCURVE",
"-164 -138 OFFCURVE",
"-195 -138 CURVE SMOOTH",
"-275 -138 OFFCURVE",
"-313 -196 OFFCURVE",
"-313 -260 CURVE SMOOTH",
"-313 -354 OFFCURVE",
"-210 -449 OFFCURVE",
"-31 -449 CURVE SMOOTH",
"206 -449 OFFCURVE",
"433 -235 OFFCURVE",
"477 74 CURVE SMOOTH",
"603 957 LINE",
"604 989 OFFCURVE",
"590 997 OFFCURVE",
"579 997 CURVE SMOOTH",
"499 996 OFFCURVE",
"343 995 OFFCURVE",
"157 987 CURVE SMOOTH",
"141 986 OFFCURVE",
"129 959 OFFCURVE",
"127 943 CURVE SMOOTH",
"125 918 OFFCURVE",
"131 909 OFFCURVE",
"145 903 CURVE",
"215 884 OFFCURVE",
"268 879 OFFCURVE",
"268 817 CURVE SMOOTH",
"268 808 OFFCURVE",
"266 797 OFFCURVE",
"264 785 CURVE"
);
}
);
width = 748;
}
);
unicode = 0237;
},
{
color = 4;
glyphname = k;
lastChange = "2018-07-18 03:37:32 +0000";
layers = (
{
anchors = (
{
name = bottom;
position = "{471, 0}";
},
{
name = btm;
position = "{413, -170}";
},
{
name = top;
position = "{563, 1700}";
}
);
layerId = "D92FDD0B-F694-41DD-AE46-0E4F694F0F38";
paths = (
{
closed = 1;
nodes = (
"493 1506 LINE",
"495 1538 OFFCURVE",
"480 1546 OFFCURVE",
"469 1546 CURVE SMOOTH",
"412 1546 OFFCURVE",
"283 1546 OFFCURVE",
"149 1539 CURVE SMOOTH",
"133 1538 OFFCURVE",
"121 1511 OFFCURVE",
"117 1495 CURVE",
"114 1470 OFFCURVE",
"123 1462 OFFCURVE",
"135 1455 CURVE SMOOTH",
"179 1428 OFFCURVE",
"280 1441 OFFCURVE",
"280 1369 CURVE SMOOTH",
"280 1364 OFFCURVE",
"280 1359 OFFCURVE",
"279 1354 CURVE SMOOTH",
"72 0 LINE",
"259 0 LINE",
"318 405 LINE",
"403 475 LINE",
"498 373 OFFCURVE",
"586 166 OFFCURVE",
"662 33 CURVE SMOOTH {name = hr02;}",
"677 4 OFFCURVE",
"717 -17 OFFCURVE",
"781 -17 CURVE SMOOTH",
"830 -17 OFFCURVE",
"901 -5 OFFCURVE",
"991 27 CURVE",
"1009 33 OFFCURVE",
"1016 54 OFFCURVE",
"1016 69 CURVE SMOOTH",
"1016 72 OFFCURVE",
"1016 75 OFFCURVE",
"1015 78 CURVE SMOOTH",
"1012 101 OFFCURVE",
"1004 107 OFFCURVE",
"990 107 CURVE SMOOTH",
"973 107 OFFCURVE",
"941 97 OFFCURVE",
"913 97 CURVE SMOOTH",
"876 97 OFFCURVE",
"845 137 OFFCURVE",
"822 170 CURVE SMOOTH",
"723 309 OFFCURVE",
"631 502 OFFCURVE",
"540 570 CURVE",
"846 814 LINE SMOOTH",
"892 855 OFFCURVE",
"965 899 OFFCURVE",
"1024 899 CURVE SMOOTH",
"1049 899 OFFCURVE",
"1066 921 OFFCURVE",
"1066 949 CURVE SMOOTH",
"1066 964 OFFCURVE",
"1057 987 OFFCURVE",
"1038 987 CURVE SMOOTH",
"665 990 LINE SMOOTH",
"642 991 OFFCURVE",
"627 961 OFFCURVE",
"624 946 CURVE SMOOTH",
"624 942 OFFCURVE",
"623 938 OFFCURVE",
"623 934 CURVE SMOOTH",
"623 918 OFFCURVE",
"628 905 OFFCURVE",
"649 903 CURVE SMOOTH",
"695 898 OFFCURVE",
"747 894 OFFCURVE",
"747 873 CURVE SMOOTH",
"747 866 OFFCURVE",
"742 858 OFFCURVE",
"730 848 CURVE SMOOTH",
"325 503 LINE",
"377 742 LINE {name = hr01;}"
);
}
);
width = 1081;
},
{
anchors = (
{
name = bottom;
position = "{587, 0}";
},
{
name = btm;
position = "{523, -170}";
},
{
name = top;
position = "{994, 1700}";
}
);
layerId = "BDB4B313-38B1-4B24-B843-560B185382BD";
paths = (
{
closed = 1;
nodes = (
"586 1508 LINE SMOOTH",
"587 1512 OFFCURVE",
"587 1515 OFFCURVE",
"587 1518 CURVE SMOOTH",
"587 1542 OFFCURVE",
"572 1548 OFFCURVE",
"562 1548 CURVE SMOOTH",
"481 1547 OFFCURVE",
"335 1546 OFFCURVE",
"145 1538 CURVE SMOOTH",
"129 1537 OFFCURVE",
"117 1510 OFFCURVE",
"114 1494 CURVE",
"111 1469 OFFCURVE",
"120 1460 OFFCURVE",
"133 1454 CURVE",
"180 1441 OFFCURVE",
"260 1451 OFFCURVE",
"260 1359 CURVE SMOOTH",
"260 1350 OFFCURVE",
"260 1340 OFFCURVE",
"258 1329 CURVE",
"51 0 LINE",
"363 0 LINE",
"424 366 LINE",
"550 467 LINE",
"626 366 OFFCURVE",
"661 199 OFFCURVE",
"719 67 CURVE SMOOTH",
"743 12 OFFCURVE",
"784 -13 OFFCURVE",
"841 -13 CURVE SMOOTH",
"986 -13 OFFCURVE",
"1074 0 OFFCURVE",
"1201 34 CURVE",
"1219 40 OFFCURVE",
"1226 61 OFFCURVE",
"1226 76 CURVE SMOOTH",
"1226 79 OFFCURVE",
"1226 82 OFFCURVE",
"1225 85 CURVE SMOOTH",
"1221 107 OFFCURVE",
"1214 114 OFFCURVE",
"1201 114 CURVE SMOOTH",
"1197 114 OFFCURVE",
"1192 113 OFFCURVE",
"1187 112 CURVE SMOOTH",
"1175 109 OFFCURVE",
"1158 103 OFFCURVE",
"1142 103 CURVE SMOOTH",
"1105 103 OFFCURVE",
"1073 143 OFFCURVE",
"1050 175 CURVE SMOOTH",
"944 322 OFFCURVE",
"870 549 OFFCURVE",
"782 649 CURVE",
"947 808 LINE SMOOTH",
"1009 868 OFFCURVE",
"1147 908 OFFCURVE",
"1236 906 CURVE SMOOTH",
"1260 906 OFFCURVE",
"1275 928 OFFCURVE",
"1275 954 CURVE SMOOTH",
"1275 970 OFFCURVE",
"1268 994 OFFCURVE",
"1247 994 CURVE SMOOTH",
"714 994 LINE SMOOTH",
"691 994 OFFCURVE",
"676 964 OFFCURVE",
"674 949 CURVE SMOOTH",
"673 945 OFFCURVE",
"673 940 OFFCURVE",
"673 936 CURVE SMOOTH",
"673 920 OFFCURVE",
"679 908 OFFCURVE",
"699 906 CURVE SMOOTH",
"749 901 OFFCURVE",
"828 889 OFFCURVE",
"828 858 CURVE SMOOTH",
"828 851 OFFCURVE",
"824 842 OFFCURVE",
"812 832 CURVE SMOOTH",
"434 490 LINE",
"470 743 LINE"
);
}
);
width = 1313;
}
);
unicode = 006B;
},
{
glyphname = kgreenlandic;
lastChange = "2018-07-18 03:33:48 +0000";
layers = (
{
layerId = "D92FDD0B-F694-41DD-AE46-0E4F694F0F38";
paths = (
{
closed = 1;
nodes = (
"315 360 LINE",
"430 450 LINE",
"515 357 OFFCURVE",
"622 157 OFFCURVE",
"688 37 CURVE SMOOTH {name = hr02;}",
"704 8 OFFCURVE",
"743 -13 OFFCURVE",
"807 -13 CURVE SMOOTH",
"856 -13 OFFCURVE",
"917 0 OFFCURVE",
"1007 34 CURVE",
"1025 40 OFFCURVE",
"1032 61 OFFCURVE",
"1032 76 CURVE SMOOTH",
"1032 79 OFFCURVE",
"1032 82 OFFCURVE",
"1031 85 CURVE SMOOTH",
"1027 107 OFFCURVE",
"1020 114 OFFCURVE",
"1007 114 CURVE SMOOTH",
"990 114 OFFCURVE",
"956 103 OFFCURVE",
"928 103 CURVE SMOOTH",
"891 103 OFFCURVE",
"859 142 OFFCURVE",
"836 175 CURVE SMOOTH",
"747 301 OFFCURVE",
"645 492 OFFCURVE",
"565 552 CURVE",
"833 819 LINE SMOOTH",
"886 861 OFFCURVE",
"967 906 OFFCURVE",
"1032 906 CURVE SMOOTH",
"1056 906 OFFCURVE",
"1071 928 OFFCURVE",
"1071 954 CURVE SMOOTH",
"1071 970 OFFCURVE",
"1064 994 OFFCURVE",
"1043 994 CURVE SMOOTH",
"650 994 LINE SMOOTH",
"627 994 OFFCURVE",
"612 964 OFFCURVE",
"610 949 CURVE SMOOTH",
"609 945 OFFCURVE",
"609 940 OFFCURVE",
"609 936 CURVE SMOOTH",
"609 920 OFFCURVE",
"615 908 OFFCURVE",
"635 906 CURVE SMOOTH",
"681 901 OFFCURVE",
"739 896 OFFCURVE",
"739 872 CURVE SMOOTH",
"739 864 OFFCURVE",
"732 854 OFFCURVE",
"718 842 CURVE SMOOTH",
"318 453 LINE",
"288 402 LINE {name = hr01;}"
);
},
{
closed = 1;
nodes = (
"431 989 OFFCURVE",
"414 997 OFFCURVE",
"403 997 CURVE SMOOTH",
"347 996 OFFCURVE",
"219 995 OFFCURVE",
"89 987 CURVE SMOOTH",
"73 986 OFFCURVE",
"61 959 OFFCURVE",
"59 943 CURVE SMOOTH",
"57 918 OFFCURVE",
"63 909 OFFCURVE",
"77 903 CURVE",
"121 890 OFFCURVE",
"211 899 OFFCURVE",
"211 806 CURVE SMOOTH",
"211 797 OFFCURVE",
"211 788 OFFCURVE",
"209 778 CURVE",
"81 0 LINE",
"273 0 LINE",
"427 957 LINE {name = hr03;}"
);
}
);
width = 1138;
},
{
layerId = "BDB4B313-38B1-4B24-B843-560B185382BD";
paths = (
{
closed = 1;
nodes = (
"519 989 OFFCURVE",
"502 997 OFFCURVE",
"491 997 CURVE SMOOTH",
"411 996 OFFCURVE",
"233 995 OFFCURVE",
"47 987 CURVE SMOOTH",
"31 986 OFFCURVE",
"19 959 OFFCURVE",
"17 943 CURVE SMOOTH",
"15 918 OFFCURVE",
"21 909 OFFCURVE",
"35 903 CURVE",
"79 890 OFFCURVE",
"169 899 OFFCURVE",
"169 806 CURVE SMOOTH",
"169 797 OFFCURVE",
"169 788 OFFCURVE",
"167 778 CURVE",
"39 0 LINE",
"361 0 LINE",
"515 957 LINE"
);
},
{
closed = 1;
nodes = (
"390 330 LINE",
"505 424 LINE",
"581 329 OFFCURVE",
"686 160 OFFCURVE",
"743 37 CURVE",
"759 10 OFFCURVE",
"795 -13 OFFCURVE",
"852 -13 CURVE SMOOTH",
"997 -13 OFFCURVE",
"1095 0 OFFCURVE",
"1222 34 CURVE",
"1240 40 OFFCURVE",
"1247 61 OFFCURVE",
"1247 76 CURVE SMOOTH",
"1247 79 OFFCURVE",
"1247 82 OFFCURVE",
"1246 85 CURVE SMOOTH",
"1242 107 OFFCURVE",
"1235 114 OFFCURVE",
"1222 114 CURVE SMOOTH",
"1218 114 OFFCURVE",
"1213 113 OFFCURVE",
"1208 112 CURVE SMOOTH",
"1196 109 OFFCURVE",
"1179 103 OFFCURVE",
"1163 103 CURVE SMOOTH",
"1126 103 OFFCURVE",
"1097 145 OFFCURVE",
"1071 175 CURVE SMOOTH",
"954 306 OFFCURVE",
"843 520 OFFCURVE",
"755 614 CURVE",
"938 808 LINE SMOOTH",
"1006 861 OFFCURVE",
"1138 908 OFFCURVE",
"1227 906 CURVE SMOOTH",
"1251 906 OFFCURVE",
"1266 928 OFFCURVE",
"1266 954 CURVE SMOOTH",
"1266 970 OFFCURVE",
"1259 994 OFFCURVE",
"1238 994 CURVE SMOOTH",
"705 994 LINE SMOOTH",
"682 994 OFFCURVE",
"667 964 OFFCURVE",
"665 949 CURVE SMOOTH",
"664 945 OFFCURVE",
"664 940 OFFCURVE",
"664 936 CURVE SMOOTH",
"664 920 OFFCURVE",
"670 908 OFFCURVE",
"690 906 CURVE SMOOTH",
"740 901 OFFCURVE",
"819 889 OFFCURVE",
"819 858 CURVE SMOOTH",
"819 851 OFFCURVE",
"815 842 OFFCURVE",
"803 832 CURVE",
"405 440 LINE",
"304 377 LINE"
);
}
);
width = 1343;
}
);
unicode = 0138;
},
{
color = 4;
glyphname = l;
lastChange = "2018-07-18 04:35:46 +0000";
layers = (
{
anchors = (
{
name = bottom;
position = "{222, 0}";
},
{
name = btm;
position = "{159, -170}";
},
{
name = center;
position = "{354, 939}";
},
{
name = top;
position = "{404, 1474}";
},
{
name = topright;
position = "{758, 1878}";
}
);
layerId = "D92FDD0B-F694-41DD-AE46-0E4F694F0F38";
paths = (
{
closed = 1;
nodes = (
"100 142 OFFCURVE",
"98 124 OFFCURVE",
"98 102 CURVE SMOOTH",
"98 57 OFFCURVE",
"104 -13 OFFCURVE",
"220 -13 CURVE SMOOTH",
"269 -13 OFFCURVE",
"364 8 OFFCURVE",
"455 41 CURVE SMOOTH",
"473 47 OFFCURVE",
"480 67 OFFCURVE",
"480 83 CURVE SMOOTH {name = hr02;}",
"480 112 OFFCURVE",
"467 113 OFFCURVE",
"455 113 CURVE SMOOTH",
"435 113 OFFCURVE",
"383 96 OFFCURVE",
"355 96 CURVE SMOOTH",
"309 96 OFFCURVE",
"296 117 OFFCURVE",
"296 147 CURVE SMOOTH",
"296 154 OFFCURVE",
"297 161 OFFCURVE",
"298 168 CURVE SMOOTH",
"498 1508 LINE SMOOTH",
"498 1512 OFFCURVE",
"499 1515 OFFCURVE",
"499 1518 CURVE SMOOTH",
"499 1542 OFFCURVE",
"484 1548 OFFCURVE",
"474 1548 CURVE SMOOTH",
"417 1547 OFFCURVE",
"287 1546 OFFCURVE",
"153 1538 CURVE SMOOTH",
"132 1537 OFFCURVE",
"121 1497 OFFCURVE",
"121 1485 CURVE SMOOTH",
"121 1417 OFFCURVE",
"285 1459 OFFCURVE",
"285 1368 CURVE SMOOTH",
"285 1364 OFFCURVE",
"285 1359 OFFCURVE",
"284 1354 CURVE SMOOTH",
"100 142 LINE {name = hr01;}"
);
}
);
width = 584;
},
{
anchors = (
{
name = bottom;
position = "{293, 0}";
},
{
name = btm;
position = "{203, -170}";
},
{
name = center;
position = "{426, 945}";
},
{
name = top;
position = "{491, 1471}";
},
{
name = topright;
position = "{902, 1889}";
}
);
layerId = "BDB4B313-38B1-4B24-B843-560B185382BD";
paths = (
{
closed = 1;
nodes = (
"92 144 OFFCURVE",
"89 123 OFFCURVE",
"89 102 CURVE SMOOTH",
"89 57 OFFCURVE",
"95 -13 OFFCURVE",
"211 -13 CURVE SMOOTH",
"289 -13 OFFCURVE",
"406 1 OFFCURVE",
"552 34 CURVE SMOOTH",
"570 40 OFFCURVE",
"577 60 OFFCURVE",
"577 76 CURVE SMOOTH",
"577 105 OFFCURVE",
"563 107 OFFCURVE",
"551 107 CURVE SMOOTH",
"531 107 OFFCURVE",
"499 98 OFFCURVE",
"471 98 CURVE SMOOTH",
"425 98 OFFCURVE",
"412 119 OFFCURVE",
"412 149 CURVE SMOOTH",
"412 156 OFFCURVE",
"413 163 OFFCURVE",
"414 170 CURVE SMOOTH",
"621 1508 LINE SMOOTH",
"621 1512 OFFCURVE",
"622 1515 OFFCURVE",
"622 1518 CURVE SMOOTH",
"622 1542 OFFCURVE",
"607 1548 OFFCURVE",
"597 1548 CURVE SMOOTH",
"517 1547 OFFCURVE",
"334 1546 OFFCURVE",
"146 1538 CURVE SMOOTH",
"125 1537 OFFCURVE",
"112 1497 OFFCURVE",
"112 1485 CURVE SMOOTH",
"112 1414 OFFCURVE",
"280 1461 OFFCURVE",
"280 1364 CURVE SMOOTH",
"280 1357 OFFCURVE",
"272 1318 OFFCURVE",
"266 1276 CURVE SMOOTH",
"207 883 OFFCURVE",
"153 576 OFFCURVE",
"97 180 CURVE SMOOTH"
);
}
);
width = 726;
}
);
unicode = 006C;
},
{
glyphname = lslash;
lastChange = "2018-07-18 03:33:48 +0000";
layers = (
{
components = (
{
name = l;
}
);
layerId = "D92FDD0B-F694-41DD-AE46-0E4F694F0F38";
paths = (
{
closed = 1;
nodes = (
"580 761 LINE",
"541 849 LINE",
"41 637 LINE",
"80 549 LINE {name = hr00;}"
);
}
);
width = 584;
},
{
components = (
{
name = l;
}
);
layerId = "BDB4B313-38B1-4B24-B843-560B185382BD";
paths = (
{
closed = 1;
nodes = (
"783 894 OFFCURVE",
"785 903 OFFCURVE",
"785 914 CURVE SMOOTH",
"785 931 OFFCURVE",
"781 953 OFFCURVE",
"775 967 CURVE SMOOTH",
"769 982 OFFCURVE",
"755 995 OFFCURVE",
"740 990 CURVE",
"27 702 LINE",
"21 696 OFFCURVE",
"18 685 OFFCURVE",
"18 673 CURVE SMOOTH",
"18 664 OFFCURVE",
"20 654 OFFCURVE",
"24 644 CURVE SMOOTH",
"30 629 OFFCURVE",
"51 597 OFFCURVE",
"66 602 CURVE",
"779 890 LINE"
);
}
);
width = 726;
}
);
unicode = 0142;
},
{
color = 4;
glyphname = m;
lastChange = "2018-07-18 04:36:29 +0000";
layers = (
{
anchors = (
{
name = bottom;
position = "{831, 0}";
},
{
name = btm;
position = "{858, -170}";
},
{
name = top;
position = "{914, 994}";
}
);
layerId = "D92FDD0B-F694-41DD-AE46-0E4F694F0F38";
paths = (
{
closed = 1;
nodes = (
"1588 786 OFFCURVE",
"1589 805 OFFCURVE",
"1589 823 CURVE SMOOTH",
"1589 981 OFFCURVE",
"1475 1014 OFFCURVE",
"1344 1014 CURVE SMOOTH",
"1201 1014 OFFCURVE",
"1071 895 OFFCURVE",
"1000 824 CURVE",
"999 981 OFFCURVE",
"885 1014 OFFCURVE",
"755 1014 CURVE SMOOTH",
"581 1014 OFFCURVE",
"430 832 OFFCURVE",
"388 785 CURVE",
"414 957 LINE {name = hr02;}",
"418 989 OFFCURVE",
"401 997 OFFCURVE",
"390 997 CURVE SMOOTH",
"334 996 OFFCURVE",
"218 995 OFFCURVE",
"88 987 CURVE SMOOTH",
"72 986 OFFCURVE",
"60 959 OFFCURVE",
"58 943 CURVE SMOOTH",
"58 939 OFFCURVE",
"57 936 OFFCURVE",
"57 933 CURVE SMOOTH",
"57 916 OFFCURVE",
"65 908 OFFCURVE",
"76 903 CURVE",
"120 890 OFFCURVE",
"211 899 OFFCURVE",
"211 807 CURVE SMOOTH",
"211 798 OFFCURVE",
"210 789 OFFCURVE",
"208 778 CURVE SMOOTH",
"85 0 LINE",
"277 0 LINE",
"386 688 LINE",
"452 763 OFFCURVE",
"552 873 OFFCURVE",
"685 873 CURVE SMOOTH {name = hr03;}",
"787 873 OFFCURVE",
"805 816 OFFCURVE",
"805 778 CURVE SMOOTH",
"805 772 OFFCURVE",
"805 767 OFFCURVE",
"804 762 CURVE SMOOTH",
"686 0 LINE",
"880 0 LINE",
"990 722 LINE",
"1060 792 OFFCURVE",
"1156 873 OFFCURVE",
"1273 873 CURVE SMOOTH",
"1375 873 OFFCURVE",
"1393 816 OFFCURVE",
"1393 778 CURVE SMOOTH",
"1393 772 OFFCURVE",
"1393 767 OFFCURVE",
"1392 762 CURVE SMOOTH",
"1295 142 LINE {name = hr04;}",
"1295 142 OFFCURVE",
"1293 124 OFFCURVE",
"1293 102 CURVE SMOOTH",
"1293 57 OFFCURVE",
"1299 -13 OFFCURVE",
"1415 -13 CURVE SMOOTH",
"1464 -13 OFFCURVE",
"1559 8 OFFCURVE",
"1650 41 CURVE SMOOTH",
"1668 47 OFFCURVE",
"1675 67 OFFCURVE",
"1675 83 CURVE SMOOTH {name = hr05;}",
"1675 112 OFFCURVE",
"1662 113 OFFCURVE",
"1650 113 CURVE SMOOTH",
"1630 113 OFFCURVE",
"1578 96 OFFCURVE",
"1550 96 CURVE SMOOTH",
"1504 96 OFFCURVE",
"1491 119 OFFCURVE",
"1491 151 CURVE SMOOTH",
"1491 159 OFFCURVE",
"1492 167 OFFCURVE",
"1493 175 CURVE",
"1585 766 LINE {name = hr01;}"
);
}
);
width = 1801;
},
{
anchors = (
{
name = bottom;
position = "{956, 0}";
},
{
name = btm;
position = "{742, -170}";
},
{
name = top;
position = "{1027, 994}";
}
);
layerId = "BDB4B313-38B1-4B24-B843-560B185382BD";
paths = (
{
closed = 1;
nodes = (
"1857 750 OFFCURVE",
"1858 772 OFFCURVE",
"1858 792 CURVE SMOOTH",
"1858 974 OFFCURVE",
"1725 1014 OFFCURVE",
"1578 1014 CURVE SMOOTH",
"1407 1014 OFFCURVE",
"1257 895 OFFCURVE",
"1172 824 CURVE",
"1154 976 OFFCURVE",
"1046 1014 OFFCURVE",
"897 1014 CURVE SMOOTH",
"683 1014 OFFCURVE",
"517 852 OFFCURVE",
"467 785 CURVE",
"493 957 LINE",
"497 989 OFFCURVE",
"480 997 OFFCURVE",
"469 997 CURVE SMOOTH",
"389 996 OFFCURVE",
"233 995 OFFCURVE",
"47 987 CURVE SMOOTH",
"31 986 OFFCURVE",
"19 959 OFFCURVE",
"17 943 CURVE SMOOTH",
"17 939 OFFCURVE",
"16 936 OFFCURVE",
"16 933 CURVE SMOOTH",
"16 916 OFFCURVE",
"24 908 OFFCURVE",
"35 903 CURVE",
"79 890 OFFCURVE",
"170 899 OFFCURVE",
"170 807 CURVE SMOOTH",
"170 798 OFFCURVE",
"169 789 OFFCURVE",
"167 778 CURVE SMOOTH",
"44 0 LINE",
"356 0 LINE",
"465 688 LINE",
"527 751 OFFCURVE",
"619 843 OFFCURVE",
"743 843 CURVE SMOOTH",
"839 843 OFFCURVE",
"860 783 OFFCURVE",
"860 731 CURVE SMOOTH",
"860 719 OFFCURVE",
"859 707 OFFCURVE",
"857 697 CURVE SMOOTH",
"750 0 LINE",
"1064 0 LINE",
"1172 722 LINE",
"1235 777 OFFCURVE",
"1318 843 OFFCURVE",
"1423 843 CURVE SMOOTH",
"1518 843 OFFCURVE",
"1538 782 OFFCURVE",
"1538 730 CURVE SMOOTH",
"1538 717 OFFCURVE",
"1537 705 OFFCURVE",
"1535 694 CURVE SMOOTH",
"1451 142 LINE",
"1451 142 OFFCURVE",
"1446 124 OFFCURVE",
"1446 101 CURVE SMOOTH",
"1446 53 OFFCURVE",
"1466 -17 OFFCURVE",
"1590 -13 CURVE",
"1758 -13 OFFCURVE",
"1881 40 OFFCURVE",
"1906 54 CURVE SMOOTH",
"1911 58 OFFCURVE",
"1914 67 OFFCURVE",
"1914 76 CURVE SMOOTH",
"1914 96 OFFCURVE",
"1902 119 OFFCURVE",
"1880 113 CURVE SMOOTH",
"1855 106 OFFCURVE",
"1816 100 OFFCURVE",
"1797 100 CURVE SMOOTH",
"1780 100 OFFCURVE",
"1769 115 OFFCURVE",
"1769 153 CURVE SMOOTH",
"1769 165 OFFCURVE",
"1770 179 OFFCURVE",
"1772 195 CURVE SMOOTH",
"1853 726 LINE"
);
}
);
width = 2052;
}
);
unicode = 006D;
},
{
color = 4;
glyphname = n;
lastChange = "2018-07-18 04:39:05 +0000";
layers = (
{
anchors = (
{
name = bottom;
position = "{534, 0}";
},
{
name = btm;
position = "{460, -170}";
},
{
name = top;
position = "{630, 994}";
}
);
layerId = "D92FDD0B-F694-41DD-AE46-0E4F694F0F38";
paths = (
{
closed = 1;
nodes = (
"995 786 OFFCURVE",
"997 804 OFFCURVE",
"997 821 CURVE SMOOTH",
"997 981 OFFCURVE",
"895 1014 OFFCURVE",
"789 1014 CURVE SMOOTH {name = hr02;}",
"604 1014 OFFCURVE",
"443 842 OFFCURVE",
"390 785 CURVE",
"416 957 LINE SMOOTH {name = hr03;}",
"420 989 OFFCURVE",
"403 997 OFFCURVE",
"392 997 CURVE SMOOTH",
"336 996 OFFCURVE",
"218 995 OFFCURVE",
"88 987 CURVE SMOOTH",
"72 986 OFFCURVE",
"60 959 OFFCURVE",
"58 943 CURVE SMOOTH",
"56 918 OFFCURVE",
"62 909 OFFCURVE",
"76 903 CURVE",
"120 890 OFFCURVE",
"210 899 OFFCURVE",
"210 806 CURVE SMOOTH",
"210 797 OFFCURVE",
"210 788 OFFCURVE",
"208 778 CURVE SMOOTH",
"87 0 LINE",
"279 0 LINE",
"388 689 LINE",
"454 774 OFFCURVE",
"601 874 OFFCURVE",
"711 874 CURVE SMOOTH {name = hr04;}",
"773 874 OFFCURVE",
"802 861 OFFCURVE",
"802 810 CURVE SMOOTH",
"802 802 OFFCURVE",
"801 794 OFFCURVE",
"800 784 CURVE SMOOTH",
"703 142 LINE {name = hr05;}",
"703 142 OFFCURVE",
"701 124 OFFCURVE",
"701 102 CURVE SMOOTH",
"701 57 OFFCURVE",
"707 -13 OFFCURVE",
"823 -13 CURVE SMOOTH",
"872 -13 OFFCURVE",
"967 8 OFFCURVE",
"1058 41 CURVE SMOOTH",
"1076 47 OFFCURVE",
"1083 67 OFFCURVE",
"1083 83 CURVE SMOOTH {name = hr06;}",
"1083 112 OFFCURVE",
"1070 113 OFFCURVE",
"1058 113 CURVE SMOOTH",
"1038 113 OFFCURVE",
"986 96 OFFCURVE",
"958 96 CURVE SMOOTH",
"912 96 OFFCURVE",
"899 119 OFFCURVE",
"899 151 CURVE SMOOTH",
"899 159 OFFCURVE",
"900 167 OFFCURVE",
"901 175 CURVE",
"993 766 LINE {name = hr01;}"
);
}
);
width = 1208;
},
{
anchors = (
{
name = bottom;
position = "{637, 0}";
},
{
name = btm;
position = "{521, -170}";
},
{
name = top;
position = "{707, 994}";
}
);
layerId = "BDB4B313-38B1-4B24-B843-560B185382BD";
paths = (
{
closed = 1;
nodes = (
"1178 744 OFFCURVE",
"1180 767 OFFCURVE",
"1180 789 CURVE SMOOTH",
"1180 961 OFFCURVE",
"1078 1014 OFFCURVE",
"965 1014 CURVE SMOOTH",
"690 1014 OFFCURVE",
"532 842 OFFCURVE",
"469 785 CURVE",
"495 957 LINE SMOOTH",
"499 989 OFFCURVE",
"482 997 OFFCURVE",
"471 997 CURVE SMOOTH",
"391 996 OFFCURVE",
"233 995 OFFCURVE",
"47 987 CURVE SMOOTH",
"31 986 OFFCURVE",
"19 959 OFFCURVE",
"17 943 CURVE SMOOTH",
"15 918 OFFCURVE",
"21 909 OFFCURVE",
"35 903 CURVE",
"79 890 OFFCURVE",
"168 899 OFFCURVE",
"168 806 CURVE SMOOTH",
"168 798 OFFCURVE",
"168 788 OFFCURVE",
"166 778 CURVE SMOOTH",
"45 0 LINE",
"357 0 LINE",
"467 689 LINE",
"533 759 OFFCURVE",
"645 844 OFFCURVE",
"784 844 CURVE SMOOTH",
"841 844 OFFCURVE",
"863 804 OFFCURVE",
"863 744 CURVE SMOOTH",
"863 730 OFFCURVE",
"862 716 OFFCURVE",
"860 701 CURVE SMOOTH",
"777 142 LINE",
"777 142 OFFCURVE",
"772 124 OFFCURVE",
"772 101 CURVE SMOOTH",
"772 53 OFFCURVE",
"792 -17 OFFCURVE",
"916 -13 CURVE SMOOTH",
"1079 -13 OFFCURVE",
"1208 40 OFFCURVE",
"1232 54 CURVE SMOOTH",
"1237 58 OFFCURVE",
"1240 67 OFFCURVE",
"1240 76 CURVE SMOOTH",
"1240 96 OFFCURVE",
"1228 119 OFFCURVE",
"1206 113 CURVE SMOOTH",
"1181 106 OFFCURVE",
"1142 100 OFFCURVE",
"1123 100 CURVE SMOOTH",
"1106 100 OFFCURVE",
"1095 115 OFFCURVE",
"1095 155 CURVE SMOOTH",
"1095 166 OFFCURVE",
"1096 180 OFFCURVE",
"1098 195 CURVE SMOOTH",
"1175 719 LINE"
);
}
);
width = 1413;
}
);
unicode = 006E;
},
{
glyphname = eng;
lastChange = "2018-07-18 03:33:48 +0000";
layers = (
{
anchors = (
{
name = btm;
position = "{514, -170}";
},
{
name = top;
position = "{514, 1700}";
}
);
layerId = "D92FDD0B-F694-41DD-AE46-0E4F694F0F38";
paths = (
{
closed = 1;
nodes = (
"646 -317 OFFCURVE",
"570 -345 OFFCURVE",
"493 -347 CURVE",
"441 -202 LINE",
"434 -185 OFFCURVE",
"418 -178 OFFCURVE",
"390 -178 CURVE SMOOTH",
"335 -178 OFFCURVE",
"287 -223 OFFCURVE",
"278 -285 CURVE SMOOTH",
"277 -290 OFFCURVE",
"277 -295 OFFCURVE",
"277 -300 CURVE SMOOTH",
"277 -367 OFFCURVE",
"332 -449 OFFCURVE",
"450 -449 CURVE SMOOTH",
"688 -449 OFFCURVE",
"856 -186 OFFCURVE",
"899 88 CURVE SMOOTH",
"1006 763 LINE SMOOTH",
"1010 786 OFFCURVE",
"1011 807 OFFCURVE",
"1011 826 CURVE SMOOTH",
"1011 979 OFFCURVE",
"901 1014 OFFCURVE",
"786 1014 CURVE SMOOTH",
"601 1014 OFFCURVE",
"443 842 OFFCURVE",
"390 785 CURVE",
"416 957 LINE {name = hr02;}",
"420 989 OFFCURVE",
"403 997 OFFCURVE",
"392 997 CURVE SMOOTH",
"336 996 OFFCURVE",
"218 995 OFFCURVE",
"88 987 CURVE SMOOTH",
"72 986 OFFCURVE",
"60 959 OFFCURVE",
"58 943 CURVE SMOOTH",
"56 918 OFFCURVE",
"62 909 OFFCURVE",
"76 903 CURVE",
"120 890 OFFCURVE",
"210 899 OFFCURVE",
"210 806 CURVE SMOOTH",
"210 797 OFFCURVE",
"210 788 OFFCURVE",
"208 778 CURVE",
"80 0 LINE",
"272 0 LINE",
"388 689 LINE",
"454 774 OFFCURVE",
"598 874 OFFCURVE",
"708 874 CURVE SMOOTH {name = hr03;}",
"779 874 OFFCURVE",
"812 861 OFFCURVE",
"812 792 CURVE SMOOTH",
"812 776 OFFCURVE",
"810 758 OFFCURVE",
"807 736 CURVE SMOOTH",
"703 56 LINE SMOOTH {name = hr01;}"
);
}
);
width = 1184;
},
{
anchors = (
{
name = btm;
position = "{414, -170}";
},
{
name = top;
position = "{414, 1700}";
}
);
layerId = "BDB4B313-38B1-4B24-B843-560B185382BD";
paths = (
{
closed = 1;
nodes = (
"1179 741 OFFCURVE",
"1181 766 OFFCURVE",
"1181 789 CURVE SMOOTH",
"1181 957 OFFCURVE",
"1077 1014 OFFCURVE",
"965 1014 CURVE SMOOTH",
"695 1014 OFFCURVE",
"532 842 OFFCURVE",
"470 785 CURVE",
"496 957 LINE",
"500 989 OFFCURVE",
"483 997 OFFCURVE",
"472 997 CURVE SMOOTH",
"392 996 OFFCURVE",
"233 995 OFFCURVE",
"47 987 CURVE SMOOTH",
"31 986 OFFCURVE",
"19 959 OFFCURVE",
"17 943 CURVE SMOOTH",
"15 918 OFFCURVE",
"21 909 OFFCURVE",
"35 903 CURVE",
"79 890 OFFCURVE",
"169 899 OFFCURVE",
"169 806 CURVE SMOOTH",
"169 797 OFFCURVE",
"169 788 OFFCURVE",
"167 778 CURVE",
"45 0 LINE",
"358 0 LINE",
"468 689 LINE",
"532 759 OFFCURVE",
"648 844 OFFCURVE",
"784 844 CURVE SMOOTH",
"833 844 OFFCURVE",
"865 814 OFFCURVE",
"865 745 CURVE SMOOTH",
"865 732 OFFCURVE",
"864 718 OFFCURVE",
"862 702 CURVE SMOOTH",
"766 58 LINE SMOOTH",
"721 -294 OFFCURVE",
"650 -346 OFFCURVE",
"584 -346 CURVE",
"499 -144 LINE",
"492 -122 OFFCURVE",
"469 -115 OFFCURVE",
"431 -115 CURVE SMOOTH",
"342 -115 OFFCURVE",
"294 -179 OFFCURVE",
"284 -253 CURVE SMOOTH",
"283 -258 OFFCURVE",
"283 -263 OFFCURVE",
"283 -268 CURVE SMOOTH",
"283 -348 OFFCURVE",
"369 -448 OFFCURVE",
"531 -448 CURVE SMOOTH",
"932 -448 OFFCURVE",
"1045 -185 OFFCURVE",
"1083 90 CURVE SMOOTH",
"1175 714 LINE SMOOTH"
);
}
);
width = 1388;
}
);
unicode = 014B;
},
{
color = 4;
glyphname = o;
lastChange = "2018-07-18 04:39:32 +0000";
layers = (
{
anchors = (
{
name = bottom;
position = "{480, 0}";
},
{
name = btm;
position = "{531, -170}";
},
{
name = center;
position = "{550, 497}";
},
{
name = ogonek;
position = "{922, 10}";
},
{
name = top;
position = "{595, 994}";
},
{
name = topright;
position = "{1150, 994}";
}
);
layerId = "D92FDD0B-F694-41DD-AE46-0E4F694F0F38";
paths = (
{
closed = 1;
nodes = (
"75 159 OFFCURVE",
"216 -28 OFFCURVE",
"472 -28 CURVE SMOOTH",
"793 -28 OFFCURVE",
"988 245 OFFCURVE",
"988 568 CURVE SMOOTH",
"988 829 OFFCURVE",
"853 1014 OFFCURVE",
"595 1014 CURVE SMOOTH",
"267 1014 OFFCURVE",
"75 714 OFFCURVE",
"75 424 CURVE SMOOTH {name = hr00;}"
);
},
{
closed = 1;
nodes = (
"322 59 OFFCURVE",
"286 190 OFFCURVE",
"286 376 CURVE SMOOTH",
"286 640 OFFCURVE",
"369 926 OFFCURVE",
"594 926 CURVE SMOOTH",
"740 926 OFFCURVE",
"773 800 OFFCURVE",
"773 617 CURVE SMOOTH",
"773 347 OFFCURVE",
"692 59 OFFCURVE",
"468 59 CURVE SMOOTH"
);
}
);
width = 1100;
},
{
anchors = (
{
name = bottom;
position = "{581, 0}";
},
{
name = btm;
position = "{518, -170}";
},
{
name = center;
position = "{651, 497}";
},
{
name = ogonek;
position = "{1104, 10}";
},
{
name = top;
position = "{678, 994}";
},
{
name = topright;
position = "{1352, 994}";
}
);
layerId = "BDB4B313-38B1-4B24-B843-560B185382BD";
paths = (
{
closed = 1;
nodes = (
"81 161 OFFCURVE",
"227 -28 OFFCURVE",
"595 -28 CURVE SMOOTH",
"988 -28 OFFCURVE",
"1207 230 OFFCURVE",
"1207 536 CURVE SMOOTH",
"1207 816 OFFCURVE",
"1061 1014 OFFCURVE",
"678 1014 CURVE SMOOTH",
"276 1014 OFFCURVE",
"67 715 OFFCURVE",
"74 431 CURVE SMOOTH"
);
},
{
closed = 1;
nodes = (
"448 59 OFFCURVE",
"410 185 OFFCURVE",
"410 364 CURVE SMOOTH",
"410 634 OFFCURVE",
"486 926 OFFCURVE",
"680 926 CURVE SMOOTH",
"824 926 OFFCURVE",
"867 800 OFFCURVE",
"867 616 CURVE SMOOTH",
"867 346 OFFCURVE",
"789 59 OFFCURVE",
"589 59 CURVE SMOOTH"
);
}
);
width = 1302;
}
);
unicode = 006F;
},
{
glyphname = oslash;
lastChange = "2018-07-18 03:33:48 +0000";
layers = (
{
components = (
{
name = o;
}
);
layerId = "D92FDD0B-F694-41DD-AE46-0E4F694F0F38";
paths = (
{
closed = 1;
nodes = (
"872 1101 LINE",
"132 -83 LINE",
"214 -134 LINE",
"953 1050 LINE {name = hr00;}"
);
}
);
width = 1100;
},
{
components = (
{
name = o;
}
);
layerId = "BDB4B313-38B1-4B24-B843-560B185382BD";
paths = (
{
closed = 1;
nodes = (
"1092 1105 OFFCURVE",
"1070 1130 OFFCURVE",
"1049 1143 CURVE SMOOTH",
"1042 1147 OFFCURVE",
"1034 1149 OFFCURVE",
"1027 1149 CURVE SMOOTH",
"1019 1149 OFFCURVE",
"1012 1147 OFFCURVE",
"1007 1140 CURVE",
"222 -107 LINE",
"220 -122 OFFCURVE",
"233 -142 OFFCURVE",
"255 -155 CURVE SMOOTH",
"263 -160 OFFCURVE",
"276 -164 OFFCURVE",
"287 -164 CURVE SMOOTH",
"294 -164 OFFCURVE",
"300 -162 OFFCURVE",
"304 -157 CURVE SMOOTH",
"1090 1090 LINE"
);
}
);
width = 1302;
}
);
unicode = 00F8;
},
{
glyphname = oe;
lastChange = "2018-07-18 03:33:48 +0000";
layers = (
{
anchors = (
{
name = btm;
position = "{841, -170}";
},
{
name = top;
position = "{841, 1700}";
}
);
layerId = "D92FDD0B-F694-41DD-AE46-0E4F694F0F38";
paths = (
{
closed = 1;
nodes = (
"74 155 OFFCURVE",
"213 -28 OFFCURVE",
"457 -28 CURVE SMOOTH",
"612 -28 OFFCURVE",
"721 36 OFFCURVE",
"806 140 CURVE",
"874 34 OFFCURVE",
"995 -29 OFFCURVE",
"1161 -29 CURVE SMOOTH {name = hr02;}",
"1327 -29 OFFCURVE",
"1443 50 OFFCURVE",
"1532 164 CURVE",
"1535 170 OFFCURVE",
"1543 176 OFFCURVE",
"1543 183 CURVE SMOOTH",
"1543 186 OFFCURVE",
"1542 189 OFFCURVE",
"1538 192 CURVE SMOOTH",
"1501 225 LINE",
"1490 231 OFFCURVE",
"1490 223 OFFCURVE",
"1479 215 CURVE",
"1387 124 OFFCURVE",
"1306 75 OFFCURVE",
"1192 75 CURVE SMOOTH",
"1068 75 OFFCURVE",
"960 154 OFFCURVE",
"960 362 CURVE SMOOTH",
"960 378 OFFCURVE",
"960 394 OFFCURVE",
"961 409 CURVE",
"1394 454 OFFCURVE",
"1609 611 OFFCURVE",
"1609 804 CURVE SMOOTH",
"1609 898 OFFCURVE",
"1545 1014 OFFCURVE",
"1329 1014 CURVE SMOOTH",
"1218 1014 OFFCURVE",
"1104 979 OFFCURVE",
"1004 890 CURVE SMOOTH",
"977 866 OFFCURVE",
"943 827 OFFCURVE",
"920 794 CURVE",
"893 930 OFFCURVE",
"768 1014 OFFCURVE",
"620 1014 CURVE SMOOTH",
"274 1014 OFFCURVE",
"74 709 OFFCURVE",
"74 414 CURVE SMOOTH {name = hr01;}"
);
},
{
closed = 1;
nodes = (
"1374 933 OFFCURVE",
"1422 901 OFFCURVE",
"1422 838 CURVE SMOOTH",
"1422 660 OFFCURVE",
"1291 536 OFFCURVE",
"966 486 CURVE",
"1002 770 OFFCURVE",
"1156 933 OFFCURVE",
"1323 933 CURVE SMOOTH {name = hr04;}"
);
},
{
closed = 1;
nodes = (
"319 59 OFFCURVE",
"285 185 OFFCURVE",
"285 365 CURVE SMOOTH",
"285 635 OFFCURVE",
"373 926 OFFCURVE",
"622 926 CURVE SMOOTH {name = hr05;}",
"705 926 OFFCURVE",
"771 840 OFFCURVE",
"771 701 CURVE SMOOTH",
"771 686 OFFCURVE",
"771 670 OFFCURVE",
"769 653 CURVE",
"739 375 OFFCURVE",
"676 59 OFFCURVE",
"451 59 CURVE SMOOTH"
);
}
);
width = 1690;
},
{
anchors = (
{
name = btm;
position = "{840, -170}";
},
{
name = top;
position = "{840, 1700}";
}
);
layerId = "BDB4B313-38B1-4B24-B843-560B185382BD";
paths = (
{
closed = 1;
nodes = (
"74 168 OFFCURVE",
"225 -28 OFFCURVE",
"585 -28 CURVE SMOOTH",
"977 -28 OFFCURVE",
"1177 229 OFFCURVE",
"1177 535 CURVE SMOOTH",
"1177 816 OFFCURVE",
"1051 1014 OFFCURVE",
"668 1014 CURVE SMOOTH",
"286 1014 OFFCURVE",
"74 724 OFFCURVE",
"74 445 CURVE SMOOTH"
);
},
{
closed = 1;
nodes = (
"453 59 OFFCURVE",
"420 186 OFFCURVE",
"420 366 CURVE SMOOTH",
"420 635 OFFCURVE",
"490 926 OFFCURVE",
"670 926 CURVE SMOOTH",
"814 926 OFFCURVE",
"857 800 OFFCURVE",
"857 616 CURVE SMOOTH",
"857 346 OFFCURVE",
"779 59 OFFCURVE",
"579 59 CURVE SMOOTH"
);
},
{
closed = 1;
nodes = (
"1859 875 OFFCURVE",
"1776 1014 OFFCURVE",
"1500 1014 CURVE SMOOTH",
"1153 1014 OFFCURVE",
"863 740 OFFCURVE",
"863 381 CURVE SMOOTH",
"863 133 OFFCURVE",
"1040 -29 OFFCURVE",
"1332 -29 CURVE SMOOTH",
"1569 -29 OFFCURVE",
"1686 50 OFFCURVE",
"1823 164 CURVE",
"1826 170 OFFCURVE",
"1834 176 OFFCURVE",
"1834 183 CURVE SMOOTH",
"1834 186 OFFCURVE",
"1833 189 OFFCURVE",
"1829 192 CURVE SMOOTH",
"1792 225 LINE",
"1783 231 OFFCURVE",
"1777 223 OFFCURVE",
"1770 215 CURVE",
"1660 143 OFFCURVE",
"1561 105 OFFCURVE",
"1423 105 CURVE SMOOTH",
"1310 105 OFFCURVE",
"1200 173 OFFCURVE",
"1200 360 CURVE SMOOTH",
"1200 376 OFFCURVE",
"1200 392 OFFCURVE",
"1201 407 CURVE",
"1637 465 OFFCURVE",
"1859 558 OFFCURVE",
"1859 781 CURVE SMOOTH"
);
},
{
closed = 1;
nodes = (
"1539 933 OFFCURVE",
"1558 871 OFFCURVE",
"1558 808 CURVE SMOOTH",
"1558 630 OFFCURVE",
"1433 534 OFFCURVE",
"1206 484 CURVE",
"1231 768 OFFCURVE",
"1337 933 OFFCURVE",
"1454 933 CURVE SMOOTH"
);
}
);
width = 1910;
}
);
unicode = 0153;
},
{
color = 4;
glyphname = p;
lastChange = "2018-07-18 04:40:48 +0000";
layers = (
{
anchors = (
{
name = bottom;
position = "{522, 0}";
},
{
name = btm;
position = "{458, -170}";
},
{
name = top;
position = "{706, 994}";
}
);
layerId = "D92FDD0B-F694-41DD-AE46-0E4F694F0F38";
paths = (
{
closed = 1;
nodes = (
"396 -444 LINE SMOOTH",
"419 -444 OFFCURVE",
"433 -418 OFFCURVE",
"436 -403 CURVE",
"437 -393 LINE",
"437 -378 OFFCURVE",
"430 -368 OFFCURVE",
"408 -366 CURVE SMOOTH",
"330 -359 OFFCURVE",
"229 -346 OFFCURVE",
"235 -302 CURVE",
"271 -108 LINE",
"286 11 LINE {name = hr01;}",
"287 14 LINE",
"343 -13 OFFCURVE",
"418 -30 OFFCURVE",
"522 -30 CURVE SMOOTH",
"824 -30 OFFCURVE",
"1034 273 OFFCURVE",
"1034 608 CURVE SMOOTH",
"1034 823 OFFCURVE",
"961 1013 OFFCURVE",
"719 1013 CURVE SMOOTH",
"624 1013 OFFCURVE",
"479 956 OFFCURVE",
"391 810 CURVE",
"391 815 LINE",
"413 957 LINE {name = hr02;}",
"414 961 OFFCURVE",
"414 964 OFFCURVE",
"414 967 CURVE SMOOTH",
"414 991 OFFCURVE",
"399 997 OFFCURVE",
"389 997 CURVE SMOOTH",
"333 996 OFFCURVE",
"217 995 OFFCURVE",
"87 987 CURVE SMOOTH",
"71 986 OFFCURVE",
"59 959 OFFCURVE",
"57 943 CURVE",
"55 918 OFFCURVE",
"61 908 OFFCURVE",
"75 903 CURVE SMOOTH",
"118 887 OFFCURVE",
"209 900 OFFCURVE",
"209 804 CURVE SMOOTH",
"209 796 OFFCURVE",
"208 787 OFFCURVE",
"207 778 CURVE SMOOTH",
"55 -269 LINE SMOOTH",
"43 -355 OFFCURVE",
"-31 -361 OFFCURVE",
"-81 -366 CURVE SMOOTH",
"-108 -369 OFFCURVE",
"-117 -373 OFFCURVE",
"-121 -403 CURVE SMOOTH",
"-123 -418 OFFCURVE",
"-115 -444 OFFCURVE",
"-94 -444 CURVE SMOOTH"
);
},
{
closed = 1;
nodes = (
"434 65 OFFCURVE",
"352 100 OFFCURVE",
"312 159 CURVE",
"386 704 LINE",
"448 799 OFFCURVE",
"576 895 OFFCURVE",
"663 895 CURVE SMOOTH {name = hr03;}",
"798 895 OFFCURVE",
"830 757 OFFCURVE",
"830 621 CURVE SMOOTH",
"830 409 OFFCURVE",
"766 65 OFFCURVE",
"519 65 CURVE SMOOTH"
);
}
);
width = 1184;
},
{
anchors = (
{
name = bottom;
position = "{609, 0}";
},
{
name = btm;
position = "{336, -170}";
},
{
name = top;
position = "{805, 994}";
}
);
layerId = "BDB4B313-38B1-4B24-B843-560B185382BD";
paths = (
{
closed = 1;
nodes = (
"474 -444 LINE SMOOTH",
"506 -444 OFFCURVE",
"515 -403 OFFCURVE",
"515 -393 CURVE SMOOTH",
"515 -378 OFFCURVE",
"508 -368 OFFCURVE",
"486 -366 CURVE SMOOTH",
"410 -360 OFFCURVE",
"319 -347 OFFCURVE",
"319 -306 CURVE SMOOTH",
"319 -305 OFFCURVE",
"319 -303 OFFCURVE",
"319 -302 CURVE",
"346 -108 LINE",
"355 11 LINE",
"330 -1 LINE",
"402 -19 OFFCURVE",
"482 -30 OFFCURVE",
"559 -30 CURVE SMOOTH",
"990 -30 OFFCURVE",
"1207 301 OFFCURVE",
"1207 610 CURVE SMOOTH",
"1207 835 OFFCURVE",
"1101 1013 OFFCURVE",
"833 1013 CURVE SMOOTH",
"712 1013 OFFCURVE",
"570 952 OFFCURVE",
"469 815 CURVE",
"491 957 LINE",
"491 961 OFFCURVE",
"492 964 OFFCURVE",
"492 967 CURVE SMOOTH",
"492 991 OFFCURVE",
"477 997 OFFCURVE",
"467 997 CURVE SMOOTH",
"387 996 OFFCURVE",
"231 995 OFFCURVE",
"45 987 CURVE SMOOTH",
"23 986 OFFCURVE",
"14 944 OFFCURVE",
"14 933 CURVE SMOOTH",
"14 864 OFFCURVE",
"167 930 OFFCURVE",
"167 804 CURVE SMOOTH",
"167 796 OFFCURVE",
"166 787 OFFCURVE",
"165 778 CURVE SMOOTH",
"13 -269 LINE SMOOTH",
"1 -355 OFFCURVE",
"-73 -361 OFFCURVE",
"-123 -366 CURVE SMOOTH",
"-149 -369 OFFCURVE",
"-163 -374 OFFCURVE",
"-163 -408 CURVE SMOOTH",
"-163 -423 OFFCURVE",
"-155 -444 OFFCURVE",
"-136 -444 CURVE SMOOTH"
);
},
{
closed = 1;
nodes = (
"517 787 OFFCURVE",
"618 865 OFFCURVE",
"710 865 CURVE SMOOTH",
"823 865 OFFCURVE",
"860 773 OFFCURVE",
"860 627 CURVE SMOOTH",
"860 327 OFFCURVE",
"753 65 OFFCURVE",
"536 65 CURVE SMOOTH",
"457 65 OFFCURVE",
"378 113 OFFCURVE",
"375 144 CURVE",
"467 719 LINE"
);
}
);
width = 1357;
}
);
unicode = 0070;
},
{
glyphname = thorn;
lastChange = "2018-07-18 03:33:48 +0000";
layers = (
{
anchors = (
{
name = btm;
position = "{520, -170}";
},
{
name = top;
position = "{520, 1700}";
}
);
components = (
{
name = b;
}
);
layerId = "D92FDD0B-F694-41DD-AE46-0E4F694F0F38";
paths = (
{
closed = 1;
nodes = (
"223 149 LINE",
"97 126 LINE",
"-1 -443 LINE",
"180 -444 LINE",
"233 -117 LINE",
"247 34 LINE {name = hr00;}"
);
}
);
width = 1132;
},
{
anchors = (
{
name = btm;
position = "{309, -170}";
},
{
name = top;
position = "{309, 1700}";
}
);
components = (
{
name = b;
}
);
layerId = "BDB4B313-38B1-4B24-B843-560B185382BD";
paths = (
{
closed = 1;
nodes = (
"2 -443 LINE",
"303 -444 LINE",
"352 -117 LINE",
"365 27 LINE",
"265 251 LINE",
"92 126 LINE"
);
}
);
width = 1326;
}
);
unicode = 00FE;
},
